<?xml version="1.0" encoding="utf-8"?>
<!DOCTYPE svg PUBLIC "-//W3C//DTD SVG 1.0//EN" "http://www.w3.org/TR/2001/REC-SVG-20010904/DTD/svg10.dtd">
<svg version="1.0" xmlns="http://www.w3.org/2000/svg" width="1080px" height="1080px" viewBox="0 0 1080 1080" preserveAspectRatio="xMidYMid meet">
 <g fill="#000000">
  <path d="M502 954.9 c-3.6 -0.5 -10.3 -1.4 -15 -2 -7.7 -1 -32.8 -5 -44 -6.9 -20.8 -3.7 -56.4 -14.4 -74.9 -22.7 -52.8 -23.5 -90.8 -51.3 -130.4 -95.6 -6.8 -7.5 -7.9 -9.7 -5.2 -9.7 3.1 0 25.5 -8 30.4 -10.9 2.9 -1.7 5.4 -3.1 5.6 -3.1 0.2 0 3.2 -1.9 6.7 -4.2 8.8 -6 21.5 -18.9 27.6 -28 6.2 -9.3 15.7 -28.5 22.8 -46.1 1.5 -3.8 3.4 -7.1 4.2 -7.4 1.9 -0.8 8.8 1 23.7 5.9 66.1 22.1 121.8 62.2 170.5 122.8 22 27.4 32.2 42.1 34.9 50.3 1.9 5.8 1.5 19.3 -0.8 25.9 -3.9 11.4 -14.7 24.1 -24.1 28.7 -7.9 3.8 -18.6 4.8 -32 3z"/>
  <path d="M626.5 946.3 c0.3 -1 1.8 -6.3 3.2 -11.8 2.4 -8.8 2.7 -11.9 2.6 -26 0 -15.6 -0.3 -17.2 -4.2 -32 -4.2 -15.5 -14.4 -32.1 -39.3 -64.2 -1 -1.3 12.2 -14.6 25.7 -25.8 34.8 -28.9 84.9 -55.6 125 -66.5 19.1 -5.2 33 -8.5 42.5 -10 3 -0.5 9.3 -1.5 14 -2.3 4.7 -0.8 12.1 -2 16.5 -2.6 4.4 -0.6 11.2 -1.5 15.2 -2.1 3.9 -0.5 12.6 -1 19.2 -1 14.3 0 20 1.7 27.7 8.2 14.4 12.2 22.1 31.8 18.3 46.2 -2.6 9.6 -7.1 16.6 -30.1 46.6 -18.5 24.1 -40.4 47.2 -63.8 67.2 -5.5 4.7 -6.7 5.6 -19.2 14.8 -21.2 15.7 -55.3 34.1 -80 43.1 -21 7.7 -38 12.6 -60.8 17.4 -13.6 3 -13.4 3 -12.5 0.8z"/>
  <path d="M194 746.9 c-11.4 -3.2 -20 -10 -26.4 -20.9 -2 -3.4 -3.6 -6.3 -3.6 -6.5 0 -0.3 -1.1 -2.8 -2.4 -5.7 -1.3 -2.9 -3.6 -8.2 -5.1 -11.8 -1.5 -3.6 -3.6 -8.4 -4.6 -10.7 -1.1 -2.4 -1.9 -4.7 -1.9 -5.3 0 -0.6 -0.4 -1.8 -0.9 -2.8 -0.5 -0.9 -1.9 -4.4 -3.1 -7.7 -1.2 -3.3 -2.6 -6.9 -3 -8 -3.2 -7.5 -11.7 -36 -14.4 -48 -3.7 -17 -4.9 -24.5 -7.6 -46.7 -2.5 -20.5 -1.2 -59.9 3 -88.8 2.6 -18.1 15.1 -64.7 19 -71 0.8 -1.2 1.9 -0.6 6.2 3.6 8.8 8.5 11 10.2 19.4 15.9 26.3 17.5 51.4 21.4 98.9 15.4 14 -1.8 13.7 -1.8 14.7 1.6 1.8 5.8 2.9 10.1 3.9 15.5 0.6 3 1.5 7.5 2 10 7 34.6 7.8 85.6 1.9 119.3 -0.5 3.1 -1.4 8.1 -1.9 11.1 -3.7 21.3 -16.4 63 -25.6 84.1 -0.7 1.7 -2.8 6.6 -4.5 11 -5.7 14.5 -13.7 29.8 -18 34.3 -8.9 9.2 -19.2 13.3 -33.4 13.1 -5 0 -10.7 -0.5 -12.6 -1z"/>
  <path d="M532.8 725.3 c-0.8 -1 -2.2 -3.1 -3.1 -4.8 -2 -3.6 -23.7 -48.6 -23.7 -49 0 -0.2 -4.2 -9 -9.4 -19.7 -9 -18.7 -12.9 -26.6 -26.1 -54.3 -3.4 -7.1 -8.9 -18.4 -12.1 -25 -5.2 -10.8 -5.8 -12.8 -6.2 -19.6 -0.4 -6.8 -0.1 -8.5 2.3 -13.8 3.4 -7.6 8.3 -12 24.2 -22.1 6.5 -4.1 17.7 -11.3 24.8 -16 7.2 -4.7 15.1 -9.8 17.7 -11.3 5.5 -3.2 5.4 -3 6.8 -19.2 3.4 -39.7 5.7 -65.2 7 -77.5 0.5 -5.2 1.5 -15.1 2.1 -22 1.2 -13 2.9 -18 6.1 -18 3.3 0 6.1 4.2 15.5 23.9 5.2 10.8 12.2 25.2 15.5 32.1 3.4 6.9 8 16.6 10.3 21.5 4.5 9.5 11.2 23.5 24 50 19.1 39.4 19.5 40.5 19.5 48.2 0 8.2 -2.7 14.8 -8.5 20.9 -4.6 4.9 -11.4 9.4 -56.5 38.1 -4.6 3 -8.8 5.9 -9.1 6.5 -0.4 0.7 -1 4.6 -1.4 8.8 -0.3 4.1 -1 12 -1.5 17.5 -0.5 5.5 -1.4 15.4 -2 22 -0.6 6.6 -1.5 16.1 -2 21 -0.5 5 -1.4 15.1 -2 22.5 -1.1 13.9 -2.7 29.1 -3.6 34.7 -0.9 5.8 -5.5 8.2 -8.6 4.6z"/>
  <path d="M927 660.3 c-7.5 -7.4 -16.5 -14 -25 -18.3 -2.5 -1.2 -5.6 -2.8 -7 -3.6 -4.5 -2.2 -14.3 -5.3 -22 -6.8 -15.7 -3.1 -32.8 -3 -60 0.5 -14.6 1.9 -14 2 -15.5 -2.6 -2 -6 -6.5 -27 -8 -37.5 -3.5 -24.2 -4.7 -65.7 -2.5 -84.1 2.8 -23 6 -40.9 9.5 -54.4 0.9 -3.3 2.2 -8.3 3 -11.1 2.6 -10.1 11.4 -35.3 18.4 -52.9 9.8 -24.4 17.2 -39.2 22.5 -44.6 8.1 -8.3 19.5 -12.9 32.3 -12.9 17.9 0 31.1 7.3 39.6 21.8 2.9 5.1 12.2 25.8 15.7 35.2 0.7 1.9 1.9 4.9 2.6 6.5 6.1 14 14.8 41.4 19.4 60.5 8.1 34.6 10 50.3 10 84.1 0 26.5 -1.2 39.3 -5.9 66.9 -3.5 19.8 -15.7 60.4 -18.2 60.6 -0.8 0 -4.8 -3.3 -8.9 -7.3z"/>
  <path d="M225.5 378 c-9.2 -0.7 -16.5 -4.3 -24.2 -12 -14.1 -14.2 -18.9 -35.2 -11.6 -50.2 4.7 -9.5 25.1 -36.7 44.5 -59.4 26.4 -30.7 59.6 -59.2 90.3 -77.4 9.1 -5.4 33.7 -18.1 41 -21.2 7.5 -3.2 23 -9 28 -10.5 2.8 -0.8 5.9 -1.9 7 -2.3 2.7 -1.1 15.3 -4.7 18.5 -5.3 1.4 -0.3 5 -1.2 8 -2 3 -0.7 8.2 -2 11.5 -2.6 3.3 -0.7 7.8 -1.6 9.9 -2.1 4 -0.9 6 -0.5 5.1 0.9 -0.2 0.5 -1.7 5.5 -3.2 11.2 -2.4 9.4 -2.7 12.1 -2.6 26.9 0 13.6 0.4 17.9 2.2 24.2 6.3 23.2 14.6 37.6 40.4 70.4 1.8 2.3 1.8 2.4 -1.5 5.6 -11.1 11 -23.3 21.7 -33.3 29.4 -8.6 6.5 -25.3 18.4 -25.9 18.4 -0.2 0 -4.6 2.5 -9.7 5.7 -11.3 6.8 -47.2 24.3 -49.9 24.3 -0.6 0 -1.8 0.4 -2.8 1 -3.4 2 -29.9 10.1 -43.7 13.4 -17.7 4.3 -27.7 6.3 -42.5 8.6 -4.1 0.6 -10 1.5 -13 2 -15.2 2.4 -33.1 3.7 -42.5 3z"/>
  <path d="M748 362.2 c-5.9 -0.8 -31.9 -9.5 -45.5 -15.2 -7.9 -3.3 -29.4 -13.9 -36.9 -18.2 -42.9 -24.5 -76.6 -54.4 -113.9 -101 -12.8 -16 -26.4 -34.9 -27.9 -38.8 -0.5 -1.4 -1.6 -3.9 -2.5 -5.7 -2.4 -5.1 -2 -19.3 0.8 -26.8 4.8 -13 15.4 -25.1 25.4 -28.8 11.5 -4.4 19.7 -4.4 49.5 0 5.8 0.8 13.2 1.9 16.5 2.3 3.3 0.5 8.5 1.3 11.5 1.9 3 0.5 7.1 1.3 9 1.6 6.6 1.2 27.8 6.1 32 7.5 1.4 0.4 4.5 1.3 7 2.1 10.6 3 28.5 9.2 35.5 12.3 1.7 0.8 4.8 2.2 7 3.1 5.6 2.5 29.4 14.2 33 16.3 26.3 15.2 52.1 35 74.4 57.2 14 13.9 26.1 27.2 26.1 28.7 0 0.6 -2.1 1.6 -4.7 2.3 -6.7 1.7 -16.1 4.8 -21 7.1 -2.4 1 -4.5 1.9 -4.8 1.9 -1 0 -11.2 6.6 -18.1 11.6 -18.5 13.6 -32.7 35.9 -47.4 74.4 -1.7 4.4 -2 4.7 -5 4.2z"/>
 </g>
</svg>