%TF.GenerationSoftware,KiCad,Pcbnew,8.0.4*%
%TF.CreationDate,2024-09-21T01:35:51-04:00*%
%TF.ProjectId,DangerDoughnut,44616e67-6572-4446-9f75-67686e75742e,rev?*%
%TF.SameCoordinates,Original*%
%TF.FileFunction,Soldermask,Top*%
%TF.FilePolarity,Negative*%
%FSLAX46Y46*%
G04 Gerber Fmt 4.6, Leading zero omitted, Abs format (unit mm)*
G04 Created by KiCad (PCBNEW 8.0.4) date 2024-09-21 01:35:51*
%MOMM*%
%LPD*%
G01*
G04 APERTURE LIST*
G04 Aperture macros list*
%AMRoundRect*
0 Rectangle with rounded corners*
0 $1 Rounding radius*
0 $2 $3 $4 $5 $6 $7 $8 $9 X,Y pos of 4 corners*
0 Add a 4 corners polygon primitive as box body*
4,1,4,$2,$3,$4,$5,$6,$7,$8,$9,$2,$3,0*
0 Add four circle primitives for the rounded corners*
1,1,$1+$1,$2,$3*
1,1,$1+$1,$4,$5*
1,1,$1+$1,$6,$7*
1,1,$1+$1,$8,$9*
0 Add four rect primitives between the rounded corners*
20,1,$1+$1,$2,$3,$4,$5,0*
20,1,$1+$1,$4,$5,$6,$7,0*
20,1,$1+$1,$6,$7,$8,$9,0*
20,1,$1+$1,$8,$9,$2,$3,0*%
%AMRotRect*
0 Rectangle, with rotation*
0 The origin of the aperture is its center*
0 $1 length*
0 $2 width*
0 $3 Rotation angle, in degrees counterclockwise*
0 Add horizontal line*
21,1,$1,$2,0,0,$3*%
G04 Aperture macros list end*
%ADD10R,1.000000X0.750000*%
%ADD11RoundRect,0.135000X0.185000X-0.135000X0.185000X0.135000X-0.185000X0.135000X-0.185000X-0.135000X0*%
%ADD12RoundRect,0.135000X-0.135000X-0.185000X0.135000X-0.185000X0.135000X0.185000X-0.135000X0.185000X0*%
%ADD13RoundRect,0.160000X0.044194X0.270468X-0.270468X-0.044194X-0.044194X-0.270468X0.270468X0.044194X0*%
%ADD14RoundRect,0.225000X-0.225000X-0.250000X0.225000X-0.250000X0.225000X0.250000X-0.225000X0.250000X0*%
%ADD15RoundRect,0.140000X-0.140000X-0.170000X0.140000X-0.170000X0.140000X0.170000X-0.140000X0.170000X0*%
%ADD16RoundRect,0.140000X-0.170000X0.140000X-0.170000X-0.140000X0.170000X-0.140000X0.170000X0.140000X0*%
%ADD17RoundRect,0.140000X0.170000X-0.140000X0.170000X0.140000X-0.170000X0.140000X-0.170000X-0.140000X0*%
%ADD18RoundRect,0.155000X-0.155000X0.212500X-0.155000X-0.212500X0.155000X-0.212500X0.155000X0.212500X0*%
%ADD19RoundRect,0.140000X0.140000X0.170000X-0.140000X0.170000X-0.140000X-0.170000X0.140000X-0.170000X0*%
%ADD20RoundRect,0.135000X0.135000X0.185000X-0.135000X0.185000X-0.135000X-0.185000X0.135000X-0.185000X0*%
%ADD21R,0.900000X0.800000*%
%ADD22RoundRect,0.135000X-0.185000X0.135000X-0.185000X-0.135000X0.185000X-0.135000X0.185000X0.135000X0*%
%ADD23RoundRect,0.243750X-0.456250X0.243750X-0.456250X-0.243750X0.456250X-0.243750X0.456250X0.243750X0*%
%ADD24RoundRect,0.243750X0.456250X-0.243750X0.456250X0.243750X-0.456250X0.243750X-0.456250X-0.243750X0*%
%ADD25RoundRect,0.250000X0.337500X0.475000X-0.337500X0.475000X-0.337500X-0.475000X0.337500X-0.475000X0*%
%ADD26R,2.209800X2.260600*%
%ADD27RoundRect,0.243750X0.243750X0.456250X-0.243750X0.456250X-0.243750X-0.456250X0.243750X-0.456250X0*%
%ADD28RoundRect,0.102000X0.000000X0.388909X-0.388909X0.000000X0.000000X-0.388909X0.388909X0.000000X0*%
%ADD29RoundRect,0.102000X-0.070711X0.282843X-0.282843X0.070711X0.070711X-0.282843X0.282843X-0.070711X0*%
%ADD30RotRect,0.355600X0.457200X246.347000*%
%ADD31RotRect,0.355600X0.457200X156.347000*%
%ADD32RoundRect,0.050000X-0.350000X-0.050000X0.350000X-0.050000X0.350000X0.050000X-0.350000X0.050000X0*%
%ADD33RoundRect,0.050000X-0.050000X-0.350000X0.050000X-0.350000X0.050000X0.350000X-0.050000X0.350000X0*%
%ADD34R,4.000000X4.000000*%
%ADD35RoundRect,0.250000X0.475000X-0.250000X0.475000X0.250000X-0.475000X0.250000X-0.475000X-0.250000X0*%
%ADD36RoundRect,0.225000X-0.225000X-0.375000X0.225000X-0.375000X0.225000X0.375000X-0.225000X0.375000X0*%
%ADD37R,0.990600X0.990600*%
%ADD38RotRect,0.355600X0.457200X293.654000*%
%ADD39RotRect,0.355600X0.457200X203.654000*%
%ADD40RoundRect,0.250000X-0.475000X0.337500X-0.475000X-0.337500X0.475000X-0.337500X0.475000X0.337500X0*%
%ADD41RoundRect,0.155000X0.155000X-0.212500X0.155000X0.212500X-0.155000X0.212500X-0.155000X-0.212500X0*%
%ADD42RoundRect,0.150000X-0.150000X0.650000X-0.150000X-0.650000X0.150000X-0.650000X0.150000X0.650000X0*%
%ADD43RoundRect,0.250000X-0.650000X0.412500X-0.650000X-0.412500X0.650000X-0.412500X0.650000X0.412500X0*%
%ADD44R,0.762000X0.254000*%
%ADD45R,0.254000X0.762000*%
%ADD46R,3.759200X3.759200*%
%ADD47RoundRect,0.150000X0.150000X-0.650000X0.150000X0.650000X-0.150000X0.650000X-0.150000X-0.650000X0*%
%ADD48R,3.100000X2.410000*%
%ADD49R,0.304800X0.457200*%
%ADD50R,0.457200X0.304800*%
%ADD51R,2.641600X2.641600*%
%ADD52RoundRect,0.150000X0.150000X-0.512500X0.150000X0.512500X-0.150000X0.512500X-0.150000X-0.512500X0*%
%ADD53RoundRect,0.160000X-0.160000X0.222500X-0.160000X-0.222500X0.160000X-0.222500X0.160000X0.222500X0*%
%ADD54C,1.000000*%
%ADD55R,1.600000X1.600000*%
%ADD56C,1.600000*%
%ADD57C,1.100000*%
%ADD58RoundRect,0.102000X-0.654000X0.654000X-0.654000X-0.654000X0.654000X-0.654000X0.654000X0.654000X0*%
%ADD59C,1.512000*%
%ADD60RoundRect,0.102000X0.654000X-0.654000X0.654000X0.654000X-0.654000X0.654000X-0.654000X-0.654000X0*%
%ADD61C,0.650000*%
%ADD62O,1.000000X1.800000*%
%ADD63O,1.000000X2.100000*%
%ADD64C,1.400000*%
%ADD65R,3.500000X3.500000*%
%ADD66C,3.500000*%
G04 APERTURE END LIST*
D10*
%TO.C,SW2*%
X6775000Y-11350000D03*
X775000Y-11350000D03*
X6775000Y-7600000D03*
X775000Y-7600000D03*
%TD*%
%TO.C,SW1*%
X6775000Y-4700000D03*
X775000Y-4700000D03*
X6775000Y-950000D03*
X775000Y-950000D03*
%TD*%
D11*
%TO.C,R25*%
X92500000Y-48010000D03*
X92500000Y-46990000D03*
%TD*%
D12*
%TO.C,R11*%
X87010000Y-52500000D03*
X85990000Y-52500000D03*
%TD*%
D13*
%TO.C,L3*%
X83095181Y-52154819D03*
X83904819Y-51345181D03*
%TD*%
D14*
%TO.C,C41*%
X87275000Y-55250000D03*
X85725000Y-55250000D03*
%TD*%
D15*
%TO.C,C36*%
X86980000Y-53750000D03*
X86020000Y-53750000D03*
%TD*%
D16*
%TO.C,C35*%
X81750000Y-53730000D03*
X81750000Y-52770000D03*
%TD*%
D17*
%TO.C,C34*%
X85000000Y-49500000D03*
X85000000Y-50460000D03*
%TD*%
D18*
%TO.C,C5*%
X98000000Y-70567500D03*
X98000000Y-69432500D03*
%TD*%
D19*
%TO.C,C32*%
X86730000Y-46500000D03*
X85770000Y-46500000D03*
%TD*%
D12*
%TO.C,R1*%
X117490000Y-54000000D03*
X118510000Y-54000000D03*
%TD*%
D11*
%TO.C,R19*%
X91250000Y-48010000D03*
X91250000Y-46990000D03*
%TD*%
D20*
%TO.C,R10*%
X114260000Y-46000000D03*
X113240000Y-46000000D03*
%TD*%
D11*
%TO.C,R7*%
X106500000Y-43010000D03*
X106500000Y-41990000D03*
%TD*%
D21*
%TO.C,Y1*%
X92200000Y-43700000D03*
X90800000Y-43700000D03*
X90800000Y-44800000D03*
X92200000Y-44800000D03*
%TD*%
D17*
%TO.C,C33*%
X94916726Y-47442311D03*
X94916726Y-46482311D03*
%TD*%
D22*
%TO.C,R16*%
X100000000Y-61510000D03*
X100000000Y-60490000D03*
%TD*%
D15*
%TO.C,C21*%
X91980000Y-65500000D03*
X91020000Y-65500000D03*
%TD*%
D19*
%TO.C,C14*%
X100730000Y-41750000D03*
X99770000Y-41750000D03*
%TD*%
D12*
%TO.C,R9*%
X85740000Y-44000000D03*
X86760000Y-44000000D03*
%TD*%
D15*
%TO.C,C11*%
X86020000Y-40750000D03*
X86980000Y-40750000D03*
%TD*%
D23*
%TO.C,D5*%
X102000000Y-60062500D03*
X102000000Y-61937500D03*
%TD*%
D24*
%TO.C,D4*%
X110000000Y-70875000D03*
X110000000Y-69000000D03*
%TD*%
D25*
%TO.C,C31*%
X85787500Y-48000000D03*
X83712500Y-48000000D03*
%TD*%
D26*
%TO.C,CR1*%
X108205300Y-64000000D03*
X112294700Y-64000000D03*
%TD*%
D11*
%TO.C,R8*%
X108500000Y-43010000D03*
X108500000Y-41990000D03*
%TD*%
D15*
%TO.C,C3*%
X109520000Y-67500000D03*
X110480000Y-67500000D03*
%TD*%
D21*
%TO.C,Y3*%
X95300000Y-69450000D03*
X96700000Y-69450000D03*
X96700000Y-70550000D03*
X95300000Y-70550000D03*
%TD*%
D15*
%TO.C,C20*%
X91980000Y-64000000D03*
X91020000Y-64000000D03*
%TD*%
D22*
%TO.C,R15*%
X95500000Y-61211100D03*
X95500000Y-60191100D03*
%TD*%
D27*
%TO.C,D6*%
X77562500Y-64750000D03*
X79437500Y-64750000D03*
%TD*%
D12*
%TO.C,R20*%
X79010000Y-62750000D03*
X77990000Y-62750000D03*
%TD*%
%TO.C,R11*%
X93010000Y-62500000D03*
X91990000Y-62500000D03*
%TD*%
D28*
%TO.C,FL1*%
X83924264Y-67075736D03*
D29*
X83252513Y-67252513D03*
D28*
X83075736Y-67924264D03*
D29*
X83747487Y-67747487D03*
%TD*%
D30*
%TO.C,U2*%
X115822918Y-39911713D03*
X116023567Y-39453601D03*
X116224216Y-38995490D03*
X116424865Y-38537379D03*
X116625514Y-38079267D03*
D31*
X116015461Y-37489853D03*
X115557350Y-37289204D03*
X115099239Y-37088555D03*
D30*
X114252362Y-37039847D03*
X114051713Y-37497959D03*
X113851064Y-37956070D03*
X113650415Y-38414181D03*
X113449766Y-38872293D03*
D31*
X114059819Y-39461707D03*
X114517930Y-39662356D03*
X114976041Y-39863005D03*
%TD*%
D12*
%TO.C,R22*%
X87097500Y-58750000D03*
X86077500Y-58750000D03*
%TD*%
D32*
%TO.C,U10*%
X88550000Y-50150000D03*
X88550001Y-50550000D03*
X88550000Y-50950000D03*
X88550000Y-51350000D03*
X88550000Y-51750000D03*
X88550001Y-52150000D03*
X88550000Y-52550000D03*
X88550000Y-52950000D03*
X88550001Y-53350000D03*
X88550000Y-53750000D03*
X88550000Y-54150000D03*
X88550000Y-54550000D03*
X88550001Y-54950000D03*
X88550000Y-55350000D03*
D33*
X89400000Y-56200000D03*
X89800000Y-56199999D03*
X90200000Y-56200000D03*
X90600000Y-56200000D03*
X91000000Y-56200000D03*
X91400000Y-56199999D03*
X91800000Y-56200000D03*
X92200000Y-56200000D03*
X92600000Y-56199999D03*
X93000000Y-56200000D03*
X93400000Y-56200000D03*
X93800000Y-56200000D03*
X94200000Y-56199999D03*
X94600000Y-56200000D03*
D32*
X95450000Y-55350000D03*
X95449999Y-54950000D03*
X95450000Y-54550000D03*
X95450000Y-54150000D03*
X95450000Y-53750000D03*
X95449999Y-53350000D03*
X95450000Y-52950000D03*
X95450000Y-52550000D03*
X95449999Y-52150000D03*
X95450000Y-51750000D03*
X95450000Y-51350000D03*
X95450000Y-50950000D03*
X95449999Y-50550000D03*
X95450000Y-50150000D03*
D33*
X94600000Y-49300000D03*
X94200000Y-49300001D03*
X93800000Y-49300000D03*
X93400000Y-49300000D03*
X93000000Y-49300000D03*
X92600000Y-49300001D03*
X92200000Y-49300000D03*
X91800000Y-49300000D03*
X91400000Y-49300001D03*
X91000000Y-49300000D03*
X90600000Y-49300000D03*
X90200000Y-49300000D03*
X89800000Y-49300001D03*
X89400000Y-49300000D03*
D34*
X92000000Y-52750000D03*
%TD*%
D35*
%TO.C,D3*%
X104250000Y-69950000D03*
X104250000Y-68050000D03*
%TD*%
D20*
%TO.C,R17*%
X102260000Y-63500000D03*
X101240000Y-63500000D03*
%TD*%
D12*
%TO.C,R3*%
X106490000Y-71500000D03*
X107510000Y-71500000D03*
%TD*%
D22*
%TO.C,R13*%
X98500000Y-61211100D03*
X98500000Y-60191100D03*
%TD*%
D12*
%TO.C,R5*%
X120490000Y-58500000D03*
X121510000Y-58500000D03*
%TD*%
%TO.C,R6*%
X116490000Y-68250000D03*
X117510000Y-68250000D03*
%TD*%
D25*
%TO.C,C12*%
X90537500Y-39500000D03*
X88462500Y-39500000D03*
%TD*%
D19*
%TO.C,C30*%
X86980000Y-51500000D03*
X86020000Y-51500000D03*
%TD*%
D36*
%TO.C,D1*%
X116350000Y-50500000D03*
X119650000Y-50500000D03*
%TD*%
D22*
%TO.C,R12*%
X99000000Y-70510000D03*
X99000000Y-69490000D03*
%TD*%
D37*
%TO.C,ANT2*%
X79058100Y-54801905D03*
X79058100Y-52801904D03*
X79058100Y-50201905D03*
X76441900Y-50201905D03*
X76441900Y-52801904D03*
X76441900Y-54801905D03*
%TD*%
D38*
%TO.C,U3*%
X86550241Y-38872265D03*
X86349582Y-38414157D03*
X86148927Y-37956049D03*
X85948270Y-37497941D03*
X85747614Y-37039834D03*
D39*
X84900737Y-37088558D03*
X84442629Y-37289213D03*
X83984521Y-37489870D03*
D38*
X83374479Y-38079295D03*
X83575138Y-38537403D03*
X83775793Y-38995511D03*
X83976450Y-39453619D03*
X84177106Y-39911726D03*
D39*
X85023983Y-39863002D03*
X85482091Y-39662347D03*
X85940199Y-39461690D03*
%TD*%
D40*
%TO.C,C13*%
X102750000Y-37962500D03*
X102750000Y-40037500D03*
%TD*%
D41*
%TO.C,C19*%
X89500000Y-44817500D03*
X89500000Y-43682500D03*
%TD*%
D42*
%TO.C,U4*%
X101571726Y-49112311D03*
X100301726Y-49112311D03*
X99031726Y-49112311D03*
X97761726Y-49112311D03*
X97761726Y-56312311D03*
X99031726Y-56312311D03*
X100301726Y-56312311D03*
X101571726Y-56312311D03*
%TD*%
D43*
%TO.C,C4*%
X114750000Y-53937500D03*
X114750000Y-57062500D03*
%TD*%
D18*
%TO.C,C18*%
X93500000Y-43682500D03*
X93500000Y-44817500D03*
%TD*%
D17*
%TO.C,C7*%
X119000000Y-67480000D03*
X119000000Y-66520000D03*
%TD*%
D15*
%TO.C,C6*%
X116520000Y-66750000D03*
X117480000Y-66750000D03*
%TD*%
D16*
%TO.C,C23*%
X100000000Y-69020000D03*
X100000000Y-69980000D03*
%TD*%
D41*
%TO.C,C15*%
X94000000Y-69432500D03*
X94000000Y-70567500D03*
%TD*%
D16*
%TO.C,C22*%
X86500000Y-70960000D03*
X86500000Y-70000000D03*
%TD*%
D12*
%TO.C,R2*%
X119510000Y-52500000D03*
X118490000Y-52500000D03*
%TD*%
D17*
%TO.C,C25*%
X103500000Y-56230000D03*
X103500000Y-55270000D03*
%TD*%
D16*
%TO.C,C16*%
X85000000Y-70500000D03*
X85000000Y-69540000D03*
%TD*%
D27*
%TO.C,D2*%
X104437500Y-46500000D03*
X102562500Y-46500000D03*
%TD*%
D44*
%TO.C,U8*%
X99451100Y-67249999D03*
X99451100Y-66750000D03*
X99451100Y-66250001D03*
X99451100Y-65750000D03*
X99451100Y-65250000D03*
X99451100Y-64749999D03*
X99451100Y-64250000D03*
X99451100Y-63750001D03*
D45*
X98749999Y-63048900D03*
X98250000Y-63048900D03*
X97750001Y-63048900D03*
X97250000Y-63048900D03*
X96750000Y-63048900D03*
X96249999Y-63048900D03*
X95750000Y-63048900D03*
X95250001Y-63048900D03*
D44*
X94548900Y-63750001D03*
X94548900Y-64250000D03*
X94548900Y-64749999D03*
X94548900Y-65250000D03*
X94548900Y-65750000D03*
X94548900Y-66250001D03*
X94548900Y-66750000D03*
X94548900Y-67249999D03*
D45*
X95250001Y-67951100D03*
X95750000Y-67951100D03*
X96249999Y-67951100D03*
X96750000Y-67951100D03*
X97250000Y-67951100D03*
X97750001Y-67951100D03*
X98250000Y-67951100D03*
X98749999Y-67951100D03*
D46*
X97000000Y-65500000D03*
%TD*%
D19*
%TO.C,C9*%
X113730000Y-40500000D03*
X112770000Y-40500000D03*
%TD*%
D21*
%TO.C,Y2*%
X88300000Y-69950000D03*
X89700000Y-69950000D03*
X89700000Y-71050000D03*
X88300000Y-71050000D03*
%TD*%
D15*
%TO.C,C26*%
X101270000Y-65000000D03*
X102230000Y-65000000D03*
%TD*%
D17*
%TO.C,C2*%
X105750000Y-64980000D03*
X105750000Y-64020000D03*
%TD*%
D22*
%TO.C,R18*%
X112000000Y-69490000D03*
X112000000Y-70510000D03*
%TD*%
%TO.C,R14*%
X97000000Y-61211100D03*
X97000000Y-60191100D03*
%TD*%
D15*
%TO.C,C1*%
X119480000Y-55500000D03*
X118520000Y-55500000D03*
%TD*%
D40*
%TO.C,C10*%
X111250000Y-37712500D03*
X111250000Y-39787500D03*
%TD*%
D47*
%TO.C,U6*%
X114595000Y-64650000D03*
X115865000Y-64650000D03*
X117135000Y-64650000D03*
X118405000Y-64650000D03*
X118405000Y-59350000D03*
X117135000Y-59350000D03*
X115865000Y-59350000D03*
X114595000Y-59350000D03*
D48*
X116500000Y-62000000D03*
%TD*%
D49*
%TO.C,U1*%
X99249999Y-40274999D03*
X99750000Y-40274999D03*
X100250000Y-40274999D03*
X100750001Y-40274999D03*
D50*
X101274999Y-39750001D03*
X101274999Y-39250000D03*
X101274999Y-38750000D03*
X101274999Y-38249999D03*
D49*
X100750001Y-37725001D03*
X100250000Y-37725001D03*
X99750000Y-37725001D03*
X99249999Y-37725001D03*
D50*
X98725001Y-38249999D03*
X98725001Y-38750000D03*
X98725001Y-39250000D03*
X98725001Y-39750001D03*
%TD*%
D45*
%TO.C,U9*%
X86250000Y-68218500D03*
X86749999Y-68218500D03*
X87250000Y-68218500D03*
X87750000Y-68218500D03*
X88250001Y-68218500D03*
X88750000Y-68218500D03*
D44*
X89468500Y-67500000D03*
X89468500Y-67000001D03*
X89468500Y-66500000D03*
X89468500Y-66000000D03*
X89468500Y-65499999D03*
X89468500Y-65000000D03*
D45*
X88750000Y-64281500D03*
X88250001Y-64281500D03*
X87750000Y-64281500D03*
X87250000Y-64281500D03*
X86749999Y-64281500D03*
X86250000Y-64281500D03*
D44*
X85531500Y-65000000D03*
X85531500Y-65499999D03*
X85531500Y-66000000D03*
X85531500Y-66500000D03*
X85531500Y-67000001D03*
X85531500Y-67500000D03*
D51*
X87500000Y-66250000D03*
%TD*%
D17*
%TO.C,C27*%
X105000000Y-56230000D03*
X105000000Y-55270000D03*
%TD*%
D52*
%TO.C,U7*%
X106050000Y-70137500D03*
X107000000Y-70137500D03*
X107950000Y-70137500D03*
X107950000Y-67862500D03*
X106050000Y-67862500D03*
%TD*%
D19*
%TO.C,C17*%
X88270000Y-62750000D03*
X89230000Y-62750000D03*
%TD*%
D40*
%TO.C,C24*%
X101500000Y-68962500D03*
X101500000Y-71037500D03*
%TD*%
D53*
%TO.C,L2*%
X87250000Y-47677500D03*
X87250000Y-48822500D03*
%TD*%
D17*
%TO.C,C28*%
X88750000Y-47480000D03*
X88750000Y-46520000D03*
%TD*%
D54*
%TO.C,TP1*%
X117500000Y-57250000D03*
%TD*%
D12*
%TO.C,R21*%
X84240000Y-56750000D03*
X85260000Y-56750000D03*
%TD*%
D20*
%TO.C,R4*%
X120510000Y-57500000D03*
X119490000Y-57500000D03*
%TD*%
D55*
%TO.C,C8*%
X104000000Y-66500000D03*
D56*
X101500000Y-66500000D03*
%TD*%
D57*
%TO.C,J3*%
X81400000Y-43000000D03*
X81400000Y-48000000D03*
D58*
X83500000Y-46500000D03*
D59*
X83500000Y-44500000D03*
%TD*%
D55*
%TO.C,C29*%
X109182380Y-59500000D03*
D56*
X106682379Y-59500000D03*
%TD*%
D57*
%TO.C,J2*%
X118600000Y-48000000D03*
X118600000Y-43000000D03*
D60*
X116500000Y-44500000D03*
D59*
X116500000Y-46500000D03*
%TD*%
D61*
%TO.C,J6*%
X97110000Y-42280000D03*
X102890000Y-42280000D03*
D62*
X95680000Y-38600000D03*
D63*
X95680000Y-42780000D03*
D62*
X104320000Y-38600000D03*
D63*
X104320000Y-42780000D03*
%TD*%
D57*
%TO.C,J4*%
X81400000Y-57000000D03*
X81400000Y-66000000D03*
D58*
X83500000Y-64500000D03*
D59*
X83500000Y-62500000D03*
X83500000Y-60500000D03*
X83500000Y-58500000D03*
%TD*%
D64*
%TO.C,J1*%
X121500000Y-62500000D03*
X121500000Y-51500000D03*
D65*
X111500000Y-54500000D03*
D66*
X111500000Y-59500000D03*
%TD*%
M02*
