%TF.GenerationSoftware,KiCad,Pcbnew,8.0.4*%
%TF.CreationDate,2024-09-21T01:35:51-04:00*%
%TF.ProjectId,DangerDoughnut,44616e67-6572-4446-9f75-67686e75742e,rev?*%
%TF.SameCoordinates,Original*%
%TF.FileFunction,Legend,Top*%
%TF.FilePolarity,Positive*%
%FSLAX46Y46*%
G04 Gerber Fmt 4.6, Leading zero omitted, Abs format (unit mm)*
G04 Created by KiCad (PCBNEW 8.0.4) date 2024-09-21 01:35:51*
%MOMM*%
%LPD*%
G01*
G04 APERTURE LIST*
%ADD10C,0.100000*%
%ADD11C,0.000000*%
%ADD12C,0.300000*%
%ADD13C,0.150000*%
%ADD14C,0.120000*%
%ADD15C,0.152400*%
%ADD16C,0.200000*%
G04 APERTURE END LIST*
D10*
X81570402Y-36892303D02*
X81699103Y-36563006D01*
X103000000Y-37999999D02*
X103250000Y-37749999D01*
X118336099Y-36991854D02*
X118207400Y-36662557D01*
X103000000Y-37499999D02*
X103250000Y-37749999D01*
X82000000Y-37250000D02*
X82686994Y-36949103D01*
X118264200Y-37779147D02*
X118593497Y-37650448D01*
D11*
G36*
X119058774Y-44796214D02*
G01*
X119059424Y-44796301D01*
X119060114Y-44796463D01*
X119060847Y-44796702D01*
X119061625Y-44797019D01*
X119062452Y-44797416D01*
X119063331Y-44797896D01*
X119064264Y-44798459D01*
X119065254Y-44799107D01*
X119066304Y-44799843D01*
X119067417Y-44800667D01*
X119068595Y-44801583D01*
X119069841Y-44802591D01*
X119071159Y-44803693D01*
X119072550Y-44804890D01*
X119074018Y-44806186D01*
X119075566Y-44807581D01*
X119078912Y-44810676D01*
X119082609Y-44814190D01*
X119086681Y-44818136D01*
X119102638Y-44833428D01*
X119116116Y-44846017D01*
X119127906Y-44856571D01*
X119133417Y-44861295D01*
X119138804Y-44865761D01*
X119144165Y-44870054D01*
X119149602Y-44874257D01*
X119161095Y-44882728D01*
X119174076Y-44891843D01*
X119189339Y-44902274D01*
X119215390Y-44918798D01*
X119241474Y-44933665D01*
X119267776Y-44946902D01*
X119294478Y-44958539D01*
X119321762Y-44968604D01*
X119349813Y-44977125D01*
X119378812Y-44984132D01*
X119408943Y-44989652D01*
X119440389Y-44993716D01*
X119473332Y-44996351D01*
X119507956Y-44997586D01*
X119544443Y-44997449D01*
X119582976Y-44995970D01*
X119623739Y-44993178D01*
X119666914Y-44989100D01*
X119712685Y-44983765D01*
X119737080Y-44980656D01*
X119755349Y-44978540D01*
X119762488Y-44977885D01*
X119768458Y-44977515D01*
X119773380Y-44977442D01*
X119777375Y-44977680D01*
X119780564Y-44978240D01*
X119783068Y-44979135D01*
X119785007Y-44980377D01*
X119786504Y-44981979D01*
X119787677Y-44983953D01*
X119788649Y-44986312D01*
X119790472Y-44992232D01*
X119793877Y-45003396D01*
X119796971Y-45013977D01*
X119799793Y-45024137D01*
X119802379Y-45034036D01*
X119804766Y-45043836D01*
X119806992Y-45053698D01*
X119809094Y-45063783D01*
X119811110Y-45074253D01*
X119821693Y-45127170D01*
X119828253Y-45162473D01*
X119834041Y-45199549D01*
X119839051Y-45238136D01*
X119843281Y-45277974D01*
X119849384Y-45360355D01*
X119852319Y-45444603D01*
X119852053Y-45528628D01*
X119848557Y-45610340D01*
X119845587Y-45649675D01*
X119841798Y-45687649D01*
X119837186Y-45723999D01*
X119831747Y-45758465D01*
X119821693Y-45817203D01*
X119812248Y-45864106D01*
X119799113Y-45918588D01*
X119783063Y-45978104D01*
X119764874Y-46040114D01*
X119745321Y-46102074D01*
X119725178Y-46161442D01*
X119705222Y-46215675D01*
X119686226Y-46262232D01*
X119676305Y-46285978D01*
X119669409Y-46302787D01*
X119665868Y-46311623D01*
X119662414Y-46320440D01*
X119650595Y-46349292D01*
X119638006Y-46377822D01*
X119625021Y-46405309D01*
X119612011Y-46431036D01*
X119599348Y-46454282D01*
X119587405Y-46474328D01*
X119581819Y-46482927D01*
X119576552Y-46490455D01*
X119571652Y-46496824D01*
X119567164Y-46501944D01*
X119558243Y-46510757D01*
X119549130Y-46518944D01*
X119539804Y-46526510D01*
X119530246Y-46533463D01*
X119520437Y-46539807D01*
X119510358Y-46545551D01*
X119499989Y-46550699D01*
X119489310Y-46555258D01*
X119478303Y-46559234D01*
X119466948Y-46562633D01*
X119455225Y-46565462D01*
X119443116Y-46567726D01*
X119430600Y-46569432D01*
X119417659Y-46570587D01*
X119404273Y-46571195D01*
X119390422Y-46571265D01*
X119380373Y-46571146D01*
X119370256Y-46570810D01*
X119360350Y-46570288D01*
X119350933Y-46569611D01*
X119342286Y-46568810D01*
X119334686Y-46567916D01*
X119328414Y-46566960D01*
X119323747Y-46565973D01*
X119323747Y-46565974D01*
X119312609Y-46562575D01*
X119301814Y-46558726D01*
X119291356Y-46554422D01*
X119281232Y-46549661D01*
X119271437Y-46544437D01*
X119261965Y-46538747D01*
X119252813Y-46532588D01*
X119243975Y-46525955D01*
X119235448Y-46518845D01*
X119227226Y-46511254D01*
X119219305Y-46503177D01*
X119211680Y-46494611D01*
X119204346Y-46485552D01*
X119197299Y-46475996D01*
X119190535Y-46465939D01*
X119184047Y-46455378D01*
X119176606Y-46442562D01*
X119170554Y-46431830D01*
X119166486Y-46424273D01*
X119165382Y-46422026D01*
X119165095Y-46421345D01*
X119164997Y-46420982D01*
X119164930Y-46420550D01*
X119164734Y-46419859D01*
X119164415Y-46418924D01*
X119163980Y-46417757D01*
X119162793Y-46414787D01*
X119161227Y-46411060D01*
X119159339Y-46406688D01*
X119157184Y-46401783D01*
X119152297Y-46390819D01*
X119146295Y-46377268D01*
X119139200Y-46360988D01*
X119131908Y-46344013D01*
X119125310Y-46328378D01*
X119118902Y-46313206D01*
X119112147Y-46297488D01*
X119100968Y-46271757D01*
X119098865Y-46267036D01*
X119096941Y-46262463D01*
X119095229Y-46258139D01*
X119093758Y-46254162D01*
X119092560Y-46250632D01*
X119091666Y-46247647D01*
X119091107Y-46245307D01*
X119090963Y-46244410D01*
X119090914Y-46243711D01*
X119090890Y-46243080D01*
X119090818Y-46242380D01*
X119090701Y-46241618D01*
X119090542Y-46240801D01*
X119090342Y-46239934D01*
X119090105Y-46239023D01*
X119089831Y-46238075D01*
X119089525Y-46237097D01*
X119089187Y-46236093D01*
X119088821Y-46235071D01*
X119088428Y-46234036D01*
X119088012Y-46232996D01*
X119087573Y-46231955D01*
X119087116Y-46230920D01*
X119086641Y-46229898D01*
X119086152Y-46228894D01*
X119084947Y-46226492D01*
X119083365Y-46222974D01*
X119081473Y-46218514D01*
X119079338Y-46213284D01*
X119077031Y-46207459D01*
X119074617Y-46201212D01*
X119072167Y-46194718D01*
X119069747Y-46188149D01*
X119064886Y-46174986D01*
X119060222Y-46162616D01*
X119053872Y-46145815D01*
X119046322Y-46126111D01*
X119036832Y-46098314D01*
X119026088Y-46064750D01*
X119014780Y-46027745D01*
X119003596Y-45989623D01*
X118993225Y-45952711D01*
X118984354Y-45919333D01*
X118977672Y-45891815D01*
X118970909Y-45860187D01*
X118965138Y-45831771D01*
X118960111Y-45805067D01*
X118955580Y-45778574D01*
X118951297Y-45750790D01*
X118947014Y-45720217D01*
X118937456Y-45644695D01*
X118935210Y-45623221D01*
X118933428Y-45599631D01*
X118931230Y-45547014D01*
X118930805Y-45488667D01*
X118932098Y-45426413D01*
X118935053Y-45362076D01*
X118939614Y-45297478D01*
X118945725Y-45234443D01*
X118953331Y-45174794D01*
X118960755Y-45132519D01*
X118971942Y-45080371D01*
X118985747Y-45022618D01*
X119001022Y-44963525D01*
X119016619Y-44907359D01*
X119031391Y-44858386D01*
X119044191Y-44820873D01*
X119049493Y-44807747D01*
X119053872Y-44799086D01*
X119054274Y-44798519D01*
X119054688Y-44798010D01*
X119055117Y-44797559D01*
X119055564Y-44797170D01*
X119056031Y-44796844D01*
X119056522Y-44796582D01*
X119057039Y-44796386D01*
X119057585Y-44796258D01*
X119058162Y-44796201D01*
X119058774Y-44796214D01*
G37*
D10*
X117878103Y-36791255D02*
X118207400Y-36662557D01*
D11*
G36*
X122792345Y-46328487D02*
G01*
X122805029Y-46328832D01*
X122816811Y-46329435D01*
X122827773Y-46330321D01*
X122837997Y-46331514D01*
X122847565Y-46333038D01*
X122856560Y-46334917D01*
X122865063Y-46337176D01*
X122873157Y-46339837D01*
X122880923Y-46342925D01*
X122888445Y-46346465D01*
X122895804Y-46350479D01*
X122903083Y-46354993D01*
X122910362Y-46360030D01*
X122917726Y-46365614D01*
X122925256Y-46371770D01*
X122939122Y-46384317D01*
X122952119Y-46397685D01*
X122964211Y-46411774D01*
X122975361Y-46426489D01*
X122985531Y-46441731D01*
X122994684Y-46457402D01*
X123002783Y-46473405D01*
X123009790Y-46489642D01*
X123015669Y-46506015D01*
X123020382Y-46522427D01*
X123023891Y-46538781D01*
X123026161Y-46554977D01*
X123027153Y-46570920D01*
X123026831Y-46586510D01*
X123026165Y-46594143D01*
X123025157Y-46601651D01*
X123023801Y-46609023D01*
X123022093Y-46616245D01*
X123019374Y-46625642D01*
X123016291Y-46634914D01*
X123012715Y-46644262D01*
X123008517Y-46653882D01*
X123003569Y-46663973D01*
X122997741Y-46674734D01*
X122990906Y-46686363D01*
X122982935Y-46699059D01*
X122973699Y-46713020D01*
X122963068Y-46728445D01*
X122950916Y-46745531D01*
X122937112Y-46764478D01*
X122921529Y-46785483D01*
X122904037Y-46808746D01*
X122862814Y-46862836D01*
X122825279Y-46910390D01*
X122786176Y-46957317D01*
X122745621Y-47003488D01*
X122703733Y-47048772D01*
X122660630Y-47093039D01*
X122616429Y-47136159D01*
X122571248Y-47178002D01*
X122525206Y-47218436D01*
X122515197Y-47226945D01*
X122506354Y-47234320D01*
X122497710Y-47241309D01*
X122488296Y-47248665D01*
X122477147Y-47257137D01*
X122463293Y-47267475D01*
X122423606Y-47296753D01*
X122401800Y-47312482D01*
X122378568Y-47328452D01*
X122328513Y-47360741D01*
X122274824Y-47392868D01*
X122218884Y-47424084D01*
X122162077Y-47453637D01*
X122105783Y-47480779D01*
X122051388Y-47504758D01*
X122025334Y-47515327D01*
X122000273Y-47524824D01*
X121959491Y-47539437D01*
X121920087Y-47552828D01*
X121881452Y-47565165D01*
X121842978Y-47576616D01*
X121804057Y-47587347D01*
X121764082Y-47597526D01*
X121722445Y-47607321D01*
X121678539Y-47616899D01*
X121637173Y-47625895D01*
X121624728Y-47628284D01*
X121620210Y-47628974D01*
X121616693Y-47629334D01*
X121614074Y-47629372D01*
X121612254Y-47629094D01*
X121611129Y-47628506D01*
X121610796Y-47628098D01*
X121610599Y-47627614D01*
X121610562Y-47626425D01*
X121610916Y-47624944D01*
X121612393Y-47621132D01*
X121614667Y-47613236D01*
X121618677Y-47598841D01*
X121623778Y-47579981D01*
X121629326Y-47558690D01*
X121633586Y-47542469D01*
X121635357Y-47535095D01*
X121636908Y-47528040D01*
X121638252Y-47521174D01*
X121639400Y-47514367D01*
X121640367Y-47507491D01*
X121641166Y-47500416D01*
X121641811Y-47493012D01*
X121642313Y-47485150D01*
X121642686Y-47476700D01*
X121642944Y-47467533D01*
X121643166Y-47446531D01*
X121643085Y-47421107D01*
X121642976Y-47393342D01*
X121642514Y-47370836D01*
X121642087Y-47361028D01*
X121641494Y-47351902D01*
X121640711Y-47343247D01*
X121639711Y-47334853D01*
X121638470Y-47326508D01*
X121636961Y-47318002D01*
X121635159Y-47309124D01*
X121633039Y-47299663D01*
X121627740Y-47278149D01*
X121620860Y-47251773D01*
X121616309Y-47236308D01*
X121610947Y-47220594D01*
X121604706Y-47204521D01*
X121597518Y-47187976D01*
X121589317Y-47170848D01*
X121580034Y-47153026D01*
X121569602Y-47134398D01*
X121557955Y-47114852D01*
X121545023Y-47094276D01*
X121530741Y-47072560D01*
X121515040Y-47049591D01*
X121497853Y-47025257D01*
X121479113Y-46999448D01*
X121458752Y-46972051D01*
X121412897Y-46912048D01*
X121412619Y-46911220D01*
X121412767Y-46910033D01*
X121413329Y-46908501D01*
X121414291Y-46906638D01*
X121417361Y-46901974D01*
X121421868Y-46896149D01*
X121427706Y-46889273D01*
X121434766Y-46881455D01*
X121442940Y-46872805D01*
X121452122Y-46863431D01*
X121462202Y-46853444D01*
X121473074Y-46842952D01*
X121484630Y-46832065D01*
X121496762Y-46820891D01*
X121509362Y-46809541D01*
X121522322Y-46798124D01*
X121535535Y-46786748D01*
X121548893Y-46775524D01*
X121584337Y-46747003D01*
X121621483Y-46718862D01*
X121660134Y-46691203D01*
X121700094Y-46664134D01*
X121741167Y-46637759D01*
X121783158Y-46612185D01*
X121825869Y-46587515D01*
X121869105Y-46563857D01*
X121912670Y-46541315D01*
X121956367Y-46519994D01*
X122000000Y-46500000D01*
X122043374Y-46481439D01*
X122086293Y-46464416D01*
X122128559Y-46449036D01*
X122169977Y-46435405D01*
X122210351Y-46423628D01*
X122281061Y-46404867D01*
X122341849Y-46389827D01*
X122368647Y-46383687D01*
X122393112Y-46378459D01*
X122415296Y-46374135D01*
X122435247Y-46370711D01*
X122509330Y-46358540D01*
X122553582Y-46351264D01*
X122576675Y-46347676D01*
X122596643Y-46344782D01*
X122637654Y-46339226D01*
X122658853Y-46336299D01*
X122677076Y-46333670D01*
X122685935Y-46332683D01*
X122696747Y-46331727D01*
X122709084Y-46330833D01*
X122722519Y-46330032D01*
X122736623Y-46329355D01*
X122750970Y-46328833D01*
X122765130Y-46328497D01*
X122778676Y-46328378D01*
X122792345Y-46328487D01*
G37*
D10*
X82357697Y-36820404D02*
X82686994Y-36949103D01*
D11*
G36*
X120050906Y-46413719D02*
G01*
X120055105Y-46414078D01*
X120060018Y-46414775D01*
X120065666Y-46415813D01*
X120072074Y-46417198D01*
X120079265Y-46418931D01*
X120087262Y-46421019D01*
X120096089Y-46423463D01*
X120105768Y-46426269D01*
X120116323Y-46429440D01*
X120140155Y-46436893D01*
X120167768Y-46445853D01*
X120232711Y-46468900D01*
X120296391Y-46494198D01*
X120358833Y-46521768D01*
X120420065Y-46551628D01*
X120480112Y-46583798D01*
X120539002Y-46618298D01*
X120596759Y-46655146D01*
X120653411Y-46694363D01*
X120708984Y-46735966D01*
X120763505Y-46779977D01*
X120816999Y-46826414D01*
X120869493Y-46875296D01*
X120921014Y-46926644D01*
X120971587Y-46980475D01*
X121021240Y-47036811D01*
X121069998Y-47095669D01*
X121110771Y-47146955D01*
X121145958Y-47192325D01*
X121175824Y-47232163D01*
X121200636Y-47266855D01*
X121220660Y-47296784D01*
X121236164Y-47322335D01*
X121242304Y-47333588D01*
X121247414Y-47343892D01*
X121251527Y-47353293D01*
X121254677Y-47361840D01*
X121256420Y-47368054D01*
X121257881Y-47375109D01*
X121259063Y-47382892D01*
X121259969Y-47391292D01*
X121260602Y-47400193D01*
X121260965Y-47409484D01*
X121261062Y-47419050D01*
X121260895Y-47428780D01*
X121260467Y-47438559D01*
X121259783Y-47448274D01*
X121258844Y-47457813D01*
X121257653Y-47467062D01*
X121256215Y-47475907D01*
X121254532Y-47484237D01*
X121252607Y-47491937D01*
X121250443Y-47498894D01*
X121246157Y-47510274D01*
X121241079Y-47521742D01*
X121235273Y-47533225D01*
X121228805Y-47544651D01*
X121221739Y-47555947D01*
X121214139Y-47567039D01*
X121206068Y-47577856D01*
X121197593Y-47588324D01*
X121188776Y-47598370D01*
X121179683Y-47607921D01*
X121170377Y-47616906D01*
X121160923Y-47625250D01*
X121151386Y-47632880D01*
X121141829Y-47639725D01*
X121132317Y-47645711D01*
X121122914Y-47650765D01*
X121114903Y-47654362D01*
X121106544Y-47657611D01*
X121097840Y-47660514D01*
X121088791Y-47663068D01*
X121079398Y-47665276D01*
X121069662Y-47667136D01*
X121059583Y-47668649D01*
X121049162Y-47669815D01*
X121038400Y-47670634D01*
X121027298Y-47671105D01*
X121015856Y-47671229D01*
X121004075Y-47671006D01*
X120991957Y-47670435D01*
X120979501Y-47669518D01*
X120966709Y-47668253D01*
X120953581Y-47666640D01*
X120916076Y-47661547D01*
X120874206Y-47656057D01*
X120828970Y-47649533D01*
X120764734Y-47639587D01*
X120641372Y-47619544D01*
X120596756Y-47610563D01*
X120546775Y-47598692D01*
X120493409Y-47584514D01*
X120438635Y-47568612D01*
X120384432Y-47551569D01*
X120332777Y-47533968D01*
X120285649Y-47516392D01*
X120245026Y-47499424D01*
X120193536Y-47475825D01*
X120143753Y-47451598D01*
X120095552Y-47426649D01*
X120048805Y-47400883D01*
X120003385Y-47374205D01*
X119959165Y-47346521D01*
X119916018Y-47317737D01*
X119873816Y-47287757D01*
X119832433Y-47256487D01*
X119791741Y-47223833D01*
X119751614Y-47189700D01*
X119711924Y-47153994D01*
X119672544Y-47116619D01*
X119633347Y-47077482D01*
X119594206Y-47036487D01*
X119554993Y-46993540D01*
X119542894Y-46979940D01*
X119537867Y-46974066D01*
X119533504Y-46968777D01*
X119529789Y-46964049D01*
X119526706Y-46959859D01*
X119524243Y-46956181D01*
X119522383Y-46952993D01*
X119521113Y-46950270D01*
X119520694Y-46949075D01*
X119520416Y-46947988D01*
X119520279Y-46947004D01*
X119520280Y-46946122D01*
X119520417Y-46945339D01*
X119520688Y-46944650D01*
X119521092Y-46944054D01*
X119521627Y-46943547D01*
X119522290Y-46943126D01*
X119523081Y-46942789D01*
X119525036Y-46942352D01*
X119527477Y-46942211D01*
X119531702Y-46941732D01*
X119538035Y-46940362D01*
X119555886Y-46935357D01*
X119578748Y-46928007D01*
X119604338Y-46919126D01*
X119630375Y-46909526D01*
X119654576Y-46900018D01*
X119674659Y-46891416D01*
X119682444Y-46887709D01*
X119688343Y-46884532D01*
X119699299Y-46878174D01*
X119708518Y-46872956D01*
X119715058Y-46869426D01*
X119717029Y-46868464D01*
X119717638Y-46868213D01*
X119717977Y-46868128D01*
X119718346Y-46868012D01*
X119719044Y-46867672D01*
X119721358Y-46866367D01*
X119724776Y-46864305D01*
X119729155Y-46861579D01*
X119734353Y-46858283D01*
X119740226Y-46854510D01*
X119753431Y-46845903D01*
X119762390Y-46839536D01*
X119771752Y-46832396D01*
X119781435Y-46824566D01*
X119791357Y-46816129D01*
X119801438Y-46807168D01*
X119811595Y-46797766D01*
X119821747Y-46788006D01*
X119831814Y-46777971D01*
X119841713Y-46767743D01*
X119851363Y-46757407D01*
X119860683Y-46747044D01*
X119869591Y-46736737D01*
X119878007Y-46726570D01*
X119885848Y-46716626D01*
X119893033Y-46706987D01*
X119899481Y-46697736D01*
X119912544Y-46676945D01*
X119926890Y-46651955D01*
X119942167Y-46623480D01*
X119958020Y-46592233D01*
X119974097Y-46558928D01*
X119990043Y-46524277D01*
X120005505Y-46488993D01*
X120020131Y-46453790D01*
X120023191Y-46446400D01*
X120026357Y-46439412D01*
X120029535Y-46432982D01*
X120032632Y-46427266D01*
X120035556Y-46422418D01*
X120036924Y-46420367D01*
X120038213Y-46418593D01*
X120039413Y-46417112D01*
X120040511Y-46415946D01*
X120041496Y-46415112D01*
X120042356Y-46414632D01*
X120043376Y-46414276D01*
X120044555Y-46414000D01*
X120045894Y-46413806D01*
X120047397Y-46413695D01*
X120050906Y-46413719D01*
G37*
D10*
X102750000Y-37250000D02*
X102500000Y-37000000D01*
X118464798Y-37321151D02*
X118593497Y-37650448D01*
X102500000Y-37750000D02*
X102500000Y-37000000D01*
D11*
G36*
X122932670Y-44370914D02*
G01*
X122949556Y-44372271D01*
X122965859Y-44374532D01*
X122981579Y-44377696D01*
X122996716Y-44381762D01*
X123011270Y-44386730D01*
X123025241Y-44392599D01*
X123038629Y-44399367D01*
X123051435Y-44407035D01*
X123063657Y-44415601D01*
X123075297Y-44425064D01*
X123086354Y-44435425D01*
X123096827Y-44446681D01*
X123106718Y-44458833D01*
X123116026Y-44471880D01*
X123124751Y-44485820D01*
X123131967Y-44499532D01*
X123141602Y-44519314D01*
X123152898Y-44543500D01*
X123165100Y-44570420D01*
X123177451Y-44598407D01*
X123189194Y-44625793D01*
X123199573Y-44650908D01*
X123207831Y-44672087D01*
X123211022Y-44680512D01*
X123214710Y-44689880D01*
X123218397Y-44698950D01*
X123221589Y-44706482D01*
X123234269Y-44737363D01*
X123247824Y-44773546D01*
X123261837Y-44813685D01*
X123275894Y-44856435D01*
X123289579Y-44900450D01*
X123302477Y-44944384D01*
X123314171Y-44986892D01*
X123324247Y-45026628D01*
X123338827Y-45090982D01*
X123350598Y-45148254D01*
X123359826Y-45200738D01*
X123366779Y-45250730D01*
X123371722Y-45300524D01*
X123374923Y-45352413D01*
X123376648Y-45408693D01*
X123377164Y-45471657D01*
X123376842Y-45521139D01*
X123375783Y-45565593D01*
X123373843Y-45606784D01*
X123370880Y-45646481D01*
X123366751Y-45686450D01*
X123361313Y-45728460D01*
X123354425Y-45774278D01*
X123345943Y-45825670D01*
X123337030Y-45869487D01*
X123324941Y-45919828D01*
X123310819Y-45972898D01*
X123295804Y-46024901D01*
X123281037Y-46072042D01*
X123267659Y-46110527D01*
X123261848Y-46125337D01*
X123256811Y-46136559D01*
X123252693Y-46143720D01*
X123251022Y-46145629D01*
X123249634Y-46146345D01*
X123249188Y-46146294D01*
X123248646Y-46146143D01*
X123248011Y-46145896D01*
X123247285Y-46145553D01*
X123245575Y-46144594D01*
X123243541Y-46143285D01*
X123241205Y-46141649D01*
X123238593Y-46139703D01*
X123235728Y-46137470D01*
X123232635Y-46134968D01*
X123229337Y-46132218D01*
X123225858Y-46129240D01*
X123222223Y-46126054D01*
X123218455Y-46122681D01*
X123214578Y-46119140D01*
X123210618Y-46115453D01*
X123206596Y-46111638D01*
X123202538Y-46107716D01*
X123202539Y-46107715D01*
X123195007Y-46100425D01*
X123187305Y-46093245D01*
X123179447Y-46086187D01*
X123171450Y-46079264D01*
X123163329Y-46072487D01*
X123155100Y-46065867D01*
X123146777Y-46059415D01*
X123138377Y-46053145D01*
X123129915Y-46047067D01*
X123121407Y-46041192D01*
X123112867Y-46035533D01*
X123104312Y-46030101D01*
X123095757Y-46024908D01*
X123087218Y-46019966D01*
X123078709Y-46015285D01*
X123070247Y-46010878D01*
X123059920Y-46005818D01*
X123049544Y-46000559D01*
X123040258Y-45995697D01*
X123033206Y-45991828D01*
X123028422Y-45989593D01*
X123023038Y-45987265D01*
X123010699Y-45982410D01*
X122996650Y-45977420D01*
X122981347Y-45972447D01*
X122965251Y-45967649D01*
X122948820Y-45963179D01*
X122932513Y-45959192D01*
X122916789Y-45955845D01*
X122901113Y-45952968D01*
X122885197Y-45950489D01*
X122868972Y-45948410D01*
X122852371Y-45946733D01*
X122835327Y-45945459D01*
X122817771Y-45944590D01*
X122799638Y-45944126D01*
X122780859Y-45944071D01*
X122761367Y-45944424D01*
X122741094Y-45945189D01*
X122719973Y-45946366D01*
X122697937Y-45947957D01*
X122650848Y-45952386D01*
X122599289Y-45958490D01*
X122573908Y-45961784D01*
X122554996Y-45964005D01*
X122547630Y-45964657D01*
X122541478Y-45964974D01*
X122536408Y-45964932D01*
X122532283Y-45964510D01*
X122528971Y-45963684D01*
X122527578Y-45963114D01*
X122526337Y-45962433D01*
X122525233Y-45961641D01*
X122524248Y-45960735D01*
X122522568Y-45958565D01*
X122521164Y-45955903D01*
X122519902Y-45952725D01*
X122517268Y-45944732D01*
X122512736Y-45929369D01*
X122507305Y-45908145D01*
X122501315Y-45882643D01*
X122495109Y-45854443D01*
X122489027Y-45825127D01*
X122483410Y-45796276D01*
X122478598Y-45769472D01*
X122474935Y-45746295D01*
X122468571Y-45694399D01*
X122463417Y-45636427D01*
X122459540Y-45574882D01*
X122457009Y-45512271D01*
X122455892Y-45451098D01*
X122456257Y-45393870D01*
X122458172Y-45343090D01*
X122461705Y-45301266D01*
X122467360Y-45256883D01*
X122473206Y-45214987D01*
X122479239Y-45175534D01*
X122485452Y-45138481D01*
X122491838Y-45103784D01*
X122498392Y-45071401D01*
X122505106Y-45041287D01*
X122511976Y-45013399D01*
X122520112Y-44983038D01*
X122524255Y-44967634D01*
X122527851Y-44954661D01*
X122534466Y-44931108D01*
X122543660Y-44901472D01*
X122554938Y-44867160D01*
X122567803Y-44829580D01*
X122581760Y-44790139D01*
X122596312Y-44750246D01*
X122610964Y-44711308D01*
X122625218Y-44674732D01*
X122644073Y-44628693D01*
X122661755Y-44587403D01*
X122678285Y-44550852D01*
X122693679Y-44519025D01*
X122707957Y-44491911D01*
X122721138Y-44469498D01*
X122727322Y-44460051D01*
X122733239Y-44451773D01*
X122738891Y-44444665D01*
X122744281Y-44438724D01*
X122752520Y-44430719D01*
X122761153Y-44423181D01*
X122770166Y-44416115D01*
X122779545Y-44409529D01*
X122789273Y-44403430D01*
X122799338Y-44397824D01*
X122809723Y-44392719D01*
X122820414Y-44388122D01*
X122831397Y-44384040D01*
X122842657Y-44380480D01*
X122854179Y-44377448D01*
X122865948Y-44374951D01*
X122877949Y-44372997D01*
X122890168Y-44371593D01*
X122902591Y-44370746D01*
X122915201Y-44370461D01*
X122932670Y-44370914D01*
G37*
G36*
X121303918Y-43272184D02*
G01*
X121320157Y-43273003D01*
X121337918Y-43274367D01*
X121357392Y-43276277D01*
X121378773Y-43278732D01*
X121402255Y-43281734D01*
X121456288Y-43289374D01*
X121504906Y-43296253D01*
X121526907Y-43299345D01*
X121543601Y-43301545D01*
X121574623Y-43306373D01*
X121590705Y-43309060D01*
X121604455Y-43311599D01*
X121652080Y-43320065D01*
X121668472Y-43323290D01*
X121690147Y-43327904D01*
X121741509Y-43339512D01*
X121790490Y-43351319D01*
X121809189Y-43356181D01*
X121821414Y-43359753D01*
X121837752Y-43364515D01*
X121848128Y-43367641D01*
X121858455Y-43370865D01*
X121881112Y-43377547D01*
X121906262Y-43385426D01*
X121932776Y-43394110D01*
X121959526Y-43403211D01*
X121985383Y-43412336D01*
X122009218Y-43421095D01*
X122029903Y-43429098D01*
X122046309Y-43435953D01*
X122054255Y-43439632D01*
X122063838Y-43443957D01*
X122073917Y-43448380D01*
X122083351Y-43452357D01*
X122120459Y-43469853D01*
X122174632Y-43496278D01*
X122226821Y-43522306D01*
X122246219Y-43532257D01*
X122257976Y-43538611D01*
X122310010Y-43569892D01*
X122361610Y-43603318D01*
X122412590Y-43638754D01*
X122462763Y-43676062D01*
X122511945Y-43715107D01*
X122559948Y-43755752D01*
X122606587Y-43797860D01*
X122651676Y-43841295D01*
X122678881Y-43868613D01*
X122704510Y-43894939D01*
X122727932Y-43919578D01*
X122748513Y-43941836D01*
X122765623Y-43961019D01*
X122778626Y-43976431D01*
X122786893Y-43987378D01*
X122789051Y-43990960D01*
X122789789Y-43993166D01*
X122789756Y-43993469D01*
X122789660Y-43993785D01*
X122789502Y-43994111D01*
X122789284Y-43994448D01*
X122789007Y-43994795D01*
X122788672Y-43995150D01*
X122788282Y-43995514D01*
X122787837Y-43995886D01*
X122787340Y-43996264D01*
X122786791Y-43996649D01*
X122785547Y-43997435D01*
X122784117Y-43998238D01*
X122782513Y-43999052D01*
X122780747Y-43999873D01*
X122778833Y-44000695D01*
X122776783Y-44001512D01*
X122774608Y-44002318D01*
X122772322Y-44003110D01*
X122769936Y-44003880D01*
X122767464Y-44004624D01*
X122764918Y-44005336D01*
X122751027Y-44009034D01*
X122736243Y-44013290D01*
X122721013Y-44017968D01*
X122705783Y-44022931D01*
X122691000Y-44028043D01*
X122677109Y-44033167D01*
X122664558Y-44038167D01*
X122653792Y-44042907D01*
X122636925Y-44049919D01*
X122633778Y-44051175D01*
X122631245Y-44052134D01*
X122629419Y-44052746D01*
X122628800Y-44052906D01*
X122628393Y-44052961D01*
X122627756Y-44053062D01*
X122626846Y-44053360D01*
X122624255Y-44054514D01*
X122620717Y-44056359D01*
X122616329Y-44058832D01*
X122605389Y-44065407D01*
X122592211Y-44073731D01*
X122577569Y-44083295D01*
X122562239Y-44093591D01*
X122546995Y-44104111D01*
X122532614Y-44114345D01*
X122514519Y-44128388D01*
X122496920Y-44143568D01*
X122479780Y-44159943D01*
X122463061Y-44177572D01*
X122446727Y-44196512D01*
X122430741Y-44216822D01*
X122415064Y-44238560D01*
X122399660Y-44261784D01*
X122384492Y-44286551D01*
X122369523Y-44312922D01*
X122354714Y-44340952D01*
X122340030Y-44370701D01*
X122325432Y-44402227D01*
X122310884Y-44435587D01*
X122296349Y-44470840D01*
X122281788Y-44508045D01*
X122278720Y-44515793D01*
X122277367Y-44518968D01*
X122276092Y-44521712D01*
X122274863Y-44524049D01*
X122273649Y-44526006D01*
X122273038Y-44526850D01*
X122272419Y-44527608D01*
X122271787Y-44528284D01*
X122271139Y-44528881D01*
X122270471Y-44529401D01*
X122269779Y-44529849D01*
X122269058Y-44530227D01*
X122268306Y-44530539D01*
X122267518Y-44530788D01*
X122266689Y-44530977D01*
X122265817Y-44531109D01*
X122264897Y-44531187D01*
X122262896Y-44531196D01*
X122260656Y-44531029D01*
X122258145Y-44530712D01*
X122255330Y-44530270D01*
X122255331Y-44530270D01*
X122248272Y-44529000D01*
X122238973Y-44526835D01*
X122214659Y-44520158D01*
X122184404Y-44510913D01*
X122150225Y-44499776D01*
X122114135Y-44487425D01*
X122078151Y-44474533D01*
X122044287Y-44461779D01*
X122014560Y-44449836D01*
X121995795Y-44441618D01*
X121971995Y-44430621D01*
X121916134Y-44403666D01*
X121860671Y-44375720D01*
X121837367Y-44363483D01*
X121819297Y-44353528D01*
X121777286Y-44328870D01*
X121736317Y-44303454D01*
X121696291Y-44277194D01*
X121657107Y-44250001D01*
X121618668Y-44221789D01*
X121580874Y-44192468D01*
X121543626Y-44161952D01*
X121506824Y-44130153D01*
X121470369Y-44096984D01*
X121434163Y-44062357D01*
X121398105Y-44026184D01*
X121362097Y-43988378D01*
X121326039Y-43948851D01*
X121289833Y-43907516D01*
X121253378Y-43864284D01*
X121216576Y-43819070D01*
X121191111Y-43786785D01*
X121166049Y-43754172D01*
X121142190Y-43722341D01*
X121120334Y-43692400D01*
X121101281Y-43665461D01*
X121085831Y-43642634D01*
X121074783Y-43625028D01*
X121071161Y-43618529D01*
X121068939Y-43613753D01*
X121067806Y-43610721D01*
X121066425Y-43607254D01*
X121064846Y-43603465D01*
X121063118Y-43599465D01*
X121061290Y-43595366D01*
X121059413Y-43591280D01*
X121057537Y-43587317D01*
X121055709Y-43583590D01*
X121053501Y-43577986D01*
X121051637Y-43571376D01*
X121050114Y-43563882D01*
X121048929Y-43555627D01*
X121048079Y-43546733D01*
X121047561Y-43537323D01*
X121047371Y-43527520D01*
X121047507Y-43517445D01*
X121047966Y-43507221D01*
X121048743Y-43496970D01*
X121049837Y-43486816D01*
X121051244Y-43476881D01*
X121052962Y-43467286D01*
X121054986Y-43458155D01*
X121057314Y-43449610D01*
X121059943Y-43441774D01*
X121065056Y-43428941D01*
X121070840Y-43416278D01*
X121077244Y-43403842D01*
X121084218Y-43391693D01*
X121091713Y-43379888D01*
X121099680Y-43368485D01*
X121108068Y-43357543D01*
X121116828Y-43347119D01*
X121125911Y-43337272D01*
X121135266Y-43328060D01*
X121144845Y-43319540D01*
X121154597Y-43311772D01*
X121164474Y-43304813D01*
X121174424Y-43298722D01*
X121184400Y-43293556D01*
X121194351Y-43289374D01*
X121205589Y-43285281D01*
X121216610Y-43281734D01*
X121227608Y-43278732D01*
X121238776Y-43276277D01*
X121250307Y-43274367D01*
X121262393Y-43273003D01*
X121275229Y-43272184D01*
X121289006Y-43271911D01*
X121303918Y-43272184D01*
G37*
G36*
X120691253Y-43314986D02*
G01*
X120693164Y-43315237D01*
X120694772Y-43315630D01*
X120696070Y-43316164D01*
X120696600Y-43316483D01*
X120697049Y-43316835D01*
X120697417Y-43317222D01*
X120697704Y-43317643D01*
X120697907Y-43318097D01*
X120698026Y-43318583D01*
X120698061Y-43319103D01*
X120698011Y-43319655D01*
X120697873Y-43320239D01*
X120697649Y-43320855D01*
X120697336Y-43321503D01*
X120696935Y-43322182D01*
X120696229Y-43324251D01*
X120694959Y-43328317D01*
X120691048Y-43341497D01*
X120685847Y-43359836D01*
X120682964Y-43370351D01*
X120680001Y-43381449D01*
X120675742Y-43398634D01*
X120673970Y-43406345D01*
X120672419Y-43413662D01*
X120671076Y-43420731D01*
X120669928Y-43427697D01*
X120668960Y-43434707D01*
X120668161Y-43441906D01*
X120667517Y-43449440D01*
X120667015Y-43457454D01*
X120666642Y-43466095D01*
X120666384Y-43475508D01*
X120666161Y-43497233D01*
X120666243Y-43523794D01*
X120666353Y-43548592D01*
X120666723Y-43569476D01*
X120667415Y-43587149D01*
X120668492Y-43602310D01*
X120670015Y-43615660D01*
X120672047Y-43627900D01*
X120674650Y-43639731D01*
X120677885Y-43651853D01*
X120684279Y-43674361D01*
X120691042Y-43695989D01*
X120698294Y-43716946D01*
X120706154Y-43737445D01*
X120714742Y-43757696D01*
X120724179Y-43777910D01*
X120734586Y-43798298D01*
X120746081Y-43819069D01*
X120758786Y-43840437D01*
X120772819Y-43862610D01*
X120788303Y-43885800D01*
X120805356Y-43910218D01*
X120824099Y-43936075D01*
X120844652Y-43963582D01*
X120891668Y-44024386D01*
X120893340Y-44026539D01*
X120894778Y-44028459D01*
X120895405Y-44029345D01*
X120895969Y-44030189D01*
X120896468Y-44030996D01*
X120896902Y-44031770D01*
X120897268Y-44032517D01*
X120897565Y-44033241D01*
X120897792Y-44033950D01*
X120897947Y-44034646D01*
X120898028Y-44035336D01*
X120898035Y-44036024D01*
X120897966Y-44036716D01*
X120897820Y-44037417D01*
X120897594Y-44038132D01*
X120897287Y-44038865D01*
X120896899Y-44039624D01*
X120896427Y-44040411D01*
X120895871Y-44041233D01*
X120895228Y-44042094D01*
X120894497Y-44043001D01*
X120893677Y-44043957D01*
X120892766Y-44044968D01*
X120891764Y-44046040D01*
X120889476Y-44048384D01*
X120886802Y-44051030D01*
X120883730Y-44054020D01*
X120861465Y-44075745D01*
X120838859Y-44097155D01*
X120816116Y-44118081D01*
X120793441Y-44138355D01*
X120771040Y-44157812D01*
X120749115Y-44176282D01*
X120727873Y-44193599D01*
X120707518Y-44209594D01*
X120667351Y-44239319D01*
X120623116Y-44271176D01*
X120586818Y-44296584D01*
X120575398Y-44304188D01*
X120572026Y-44306246D01*
X120570464Y-44306961D01*
X120570009Y-44307114D01*
X120569061Y-44307563D01*
X120565792Y-44309293D01*
X120560874Y-44312040D01*
X120554523Y-44315692D01*
X120546956Y-44320139D01*
X120538391Y-44325267D01*
X120529045Y-44330966D01*
X120519135Y-44337124D01*
X120491207Y-44352980D01*
X120454659Y-44372396D01*
X120413076Y-44393622D01*
X120370042Y-44414911D01*
X120329141Y-44434513D01*
X120293958Y-44450679D01*
X120268076Y-44461662D01*
X120259744Y-44464662D01*
X120255081Y-44465711D01*
X120254449Y-44465736D01*
X120253749Y-44465808D01*
X120252988Y-44465927D01*
X120252170Y-44466091D01*
X120251303Y-44466299D01*
X120250392Y-44466548D01*
X120249445Y-44466838D01*
X120248466Y-44467166D01*
X120247462Y-44467532D01*
X120246440Y-44467933D01*
X120245406Y-44468369D01*
X120244365Y-44468836D01*
X120243324Y-44469335D01*
X120242290Y-44469864D01*
X120241268Y-44470420D01*
X120240264Y-44471003D01*
X120235504Y-44473351D01*
X120228157Y-44476372D01*
X120206811Y-44484091D01*
X120178445Y-44493485D01*
X120145279Y-44503877D01*
X120109533Y-44514592D01*
X120073428Y-44524953D01*
X120039183Y-44534285D01*
X120009018Y-44541911D01*
X119945377Y-44556910D01*
X119917349Y-44563100D01*
X119890815Y-44568634D01*
X119865001Y-44573671D01*
X119839131Y-44578374D01*
X119784122Y-44587419D01*
X119747544Y-44592910D01*
X119715331Y-44598003D01*
X119684614Y-44602483D01*
X119653253Y-44606362D01*
X119621941Y-44609583D01*
X119591373Y-44612092D01*
X119562244Y-44613831D01*
X119535249Y-44614746D01*
X119511081Y-44614780D01*
X119490435Y-44613878D01*
X119481422Y-44613002D01*
X119472626Y-44611757D01*
X119464031Y-44610134D01*
X119455617Y-44608123D01*
X119447368Y-44605716D01*
X119439266Y-44602902D01*
X119431292Y-44599673D01*
X119423429Y-44596019D01*
X119415659Y-44591930D01*
X119407964Y-44587399D01*
X119400327Y-44582415D01*
X119392729Y-44576969D01*
X119385153Y-44571051D01*
X119377581Y-44564653D01*
X119369994Y-44557765D01*
X119362376Y-44550378D01*
X119348967Y-44535884D01*
X119336733Y-44520645D01*
X119325695Y-44504762D01*
X119315876Y-44488333D01*
X119307297Y-44471458D01*
X119299980Y-44454235D01*
X119293947Y-44436764D01*
X119289219Y-44419145D01*
X119285818Y-44401475D01*
X119283766Y-44383856D01*
X119283085Y-44366385D01*
X119283795Y-44349162D01*
X119285920Y-44332287D01*
X119287519Y-44324010D01*
X119289480Y-44315858D01*
X119291805Y-44307842D01*
X119294497Y-44299975D01*
X119297559Y-44292269D01*
X119300993Y-44284736D01*
X119306608Y-44274242D01*
X119314041Y-44261724D01*
X119323163Y-44247355D01*
X119333843Y-44231307D01*
X119359362Y-44194863D01*
X119389562Y-44153767D01*
X119423409Y-44109398D01*
X119459867Y-44063131D01*
X119497900Y-44016343D01*
X119536472Y-43970411D01*
X119563076Y-43940098D01*
X119590450Y-43910120D01*
X119618524Y-43880541D01*
X119647225Y-43851423D01*
X119676481Y-43822829D01*
X119706220Y-43794822D01*
X119736370Y-43767464D01*
X119766858Y-43740819D01*
X119797613Y-43714949D01*
X119828563Y-43689917D01*
X119859635Y-43665785D01*
X119890758Y-43642617D01*
X119921858Y-43620476D01*
X119952865Y-43599423D01*
X119983707Y-43579522D01*
X120014310Y-43560836D01*
X120035873Y-43548485D01*
X120063092Y-43533559D01*
X120126361Y-43500181D01*
X120187843Y-43469084D01*
X120212830Y-43457011D01*
X120231268Y-43448653D01*
X120247944Y-43441729D01*
X120267442Y-43433944D01*
X120310312Y-43417498D01*
X120350703Y-43402740D01*
X120367100Y-43397062D01*
X120379435Y-43393091D01*
X120385042Y-43391439D01*
X120390655Y-43389701D01*
X120401329Y-43386211D01*
X120410317Y-43383119D01*
X120416476Y-43380920D01*
X120424090Y-43378174D01*
X120435419Y-43374528D01*
X120449265Y-43370325D01*
X120464432Y-43365905D01*
X120479723Y-43361608D01*
X120493941Y-43357777D01*
X120505890Y-43354752D01*
X120514372Y-43352874D01*
X120521880Y-43351146D01*
X120532364Y-43348574D01*
X120544435Y-43345507D01*
X120556705Y-43342290D01*
X120586537Y-43335213D01*
X120602917Y-43331500D01*
X120610582Y-43329883D01*
X120617560Y-43328532D01*
X120646135Y-43322579D01*
X120659529Y-43319751D01*
X120669947Y-43317420D01*
X120673791Y-43316607D01*
X120677379Y-43315953D01*
X120680706Y-43315456D01*
X120683763Y-43315113D01*
X120686545Y-43314922D01*
X120689044Y-43314880D01*
X120691253Y-43314986D01*
G37*
D10*
X102500000Y-37750000D02*
X103250000Y-37749999D01*
X117906503Y-37349551D02*
X118593497Y-37650448D01*
X102249999Y-37249999D02*
X102500000Y-37000000D01*
X82028400Y-36691705D02*
X81699103Y-36563006D01*
X117906503Y-37349551D02*
X118207400Y-36662557D01*
D11*
G36*
X121173227Y-44481653D02*
G01*
X121174849Y-44481862D01*
X121176469Y-44482222D01*
X121178094Y-44482745D01*
X121179732Y-44483442D01*
X121181388Y-44484325D01*
X121183070Y-44485403D01*
X121184784Y-44486688D01*
X121186539Y-44488191D01*
X121188339Y-44489923D01*
X121190193Y-44491894D01*
X121192107Y-44494116D01*
X121194088Y-44496600D01*
X121196143Y-44499356D01*
X121198279Y-44502396D01*
X121200502Y-44505730D01*
X121202820Y-44509369D01*
X121205240Y-44513325D01*
X121207768Y-44517609D01*
X121210411Y-44522230D01*
X121216070Y-44532532D01*
X121222273Y-44544318D01*
X121229074Y-44557676D01*
X121236528Y-44572693D01*
X121244691Y-44589458D01*
X121253618Y-44608057D01*
X121335638Y-44777920D01*
X121350033Y-44807454D01*
X121365073Y-44838774D01*
X121390142Y-44891691D01*
X121437172Y-44990248D01*
X121517142Y-45156274D01*
X121575905Y-45278354D01*
X121594207Y-45317855D01*
X121606638Y-45346708D01*
X121614330Y-45367698D01*
X121616755Y-45376114D01*
X121618420Y-45383609D01*
X121619468Y-45390530D01*
X121620042Y-45397226D01*
X121620330Y-45411332D01*
X121620162Y-45419371D01*
X121619656Y-45427219D01*
X121618809Y-45434886D01*
X121617618Y-45442380D01*
X121616079Y-45449709D01*
X121614191Y-45456883D01*
X121611948Y-45463910D01*
X121609350Y-45470798D01*
X121606391Y-45477555D01*
X121603070Y-45484191D01*
X121599383Y-45490714D01*
X121595327Y-45497132D01*
X121590898Y-45503454D01*
X121586095Y-45509688D01*
X121580914Y-45515844D01*
X121575351Y-45521928D01*
X121570604Y-45526797D01*
X121565304Y-45531807D01*
X121559171Y-45537149D01*
X121551927Y-45543013D01*
X121543290Y-45549590D01*
X121532981Y-45557071D01*
X121520721Y-45565646D01*
X121506228Y-45575507D01*
X121489225Y-45586843D01*
X121469430Y-45599846D01*
X121420346Y-45631615D01*
X121356740Y-45672338D01*
X121276371Y-45723541D01*
X121258802Y-45735166D01*
X121250857Y-45740563D01*
X121243762Y-45745501D01*
X121237733Y-45749844D01*
X121232988Y-45753455D01*
X121229744Y-45756198D01*
X121228752Y-45757201D01*
X121228217Y-45757936D01*
X121227809Y-45758826D01*
X121227378Y-45760089D01*
X121226929Y-45761705D01*
X121226465Y-45763650D01*
X121225501Y-45768438D01*
X121224513Y-45774275D01*
X121223525Y-45780979D01*
X121222562Y-45788372D01*
X121221648Y-45796273D01*
X121220809Y-45804503D01*
X121219271Y-45824033D01*
X121217237Y-45848027D01*
X121212871Y-45897107D01*
X121202288Y-46013524D01*
X121196798Y-46072460D01*
X121191705Y-46124649D01*
X121186612Y-46179418D01*
X121181122Y-46243711D01*
X121176359Y-46299266D01*
X121171200Y-46351992D01*
X121166239Y-46396483D01*
X121162072Y-46427332D01*
X121161569Y-46430156D01*
X121160956Y-46432873D01*
X121160238Y-46435479D01*
X121159422Y-46437971D01*
X121158510Y-46440349D01*
X121157509Y-46442608D01*
X121156423Y-46444747D01*
X121155259Y-46446763D01*
X121154019Y-46448653D01*
X121152710Y-46450415D01*
X121151337Y-46452046D01*
X121149905Y-46453545D01*
X121148418Y-46454907D01*
X121146882Y-46456132D01*
X121145302Y-46457216D01*
X121143683Y-46458156D01*
X121142030Y-46458951D01*
X121140347Y-46459598D01*
X121138641Y-46460094D01*
X121136916Y-46460436D01*
X121135176Y-46460623D01*
X121133428Y-46460651D01*
X121131676Y-46460519D01*
X121129925Y-46460223D01*
X121128180Y-46459762D01*
X121126446Y-46459132D01*
X121124729Y-46458331D01*
X121123033Y-46457356D01*
X121121364Y-46456206D01*
X121119725Y-46454877D01*
X121118124Y-46453367D01*
X121116563Y-46451674D01*
X121116564Y-46451674D01*
X121114839Y-46449432D01*
X121112884Y-46446737D01*
X121110769Y-46443683D01*
X121108560Y-46440363D01*
X121106327Y-46436868D01*
X121104137Y-46433293D01*
X121102058Y-46429731D01*
X121100160Y-46426274D01*
X121076099Y-46378020D01*
X121033485Y-46290278D01*
X120992855Y-46205710D01*
X120974747Y-46166982D01*
X120973739Y-46164521D01*
X120970845Y-46158209D01*
X120960195Y-46135695D01*
X120944386Y-46102763D01*
X120925005Y-46062736D01*
X120864284Y-45936927D01*
X120786893Y-45775399D01*
X120722864Y-45643107D01*
X120713641Y-45623718D01*
X120706427Y-45607851D01*
X120703488Y-45600975D01*
X120700949Y-45594663D01*
X120698776Y-45588811D01*
X120696935Y-45583311D01*
X120695391Y-45578060D01*
X120694111Y-45572951D01*
X120693060Y-45567880D01*
X120692205Y-45562740D01*
X120691511Y-45557426D01*
X120690944Y-45551834D01*
X120690055Y-45539390D01*
X120689450Y-45527072D01*
X120689304Y-45521693D01*
X120689278Y-45516744D01*
X120689382Y-45512158D01*
X120689628Y-45507867D01*
X120690025Y-45503804D01*
X120690585Y-45499901D01*
X120691318Y-45496092D01*
X120692236Y-45492308D01*
X120693350Y-45488482D01*
X120694669Y-45484547D01*
X120696206Y-45480436D01*
X120697970Y-45476080D01*
X120702226Y-45466365D01*
X120705705Y-45459012D01*
X120709443Y-45451986D01*
X120713515Y-45445219D01*
X120717994Y-45438642D01*
X120722953Y-45432186D01*
X120728466Y-45425782D01*
X120734608Y-45419361D01*
X120741451Y-45412854D01*
X120749069Y-45406191D01*
X120757535Y-45399305D01*
X120766925Y-45392126D01*
X120777310Y-45384585D01*
X120788765Y-45376612D01*
X120801363Y-45368140D01*
X120815179Y-45359099D01*
X120830285Y-45349420D01*
X120894711Y-45308277D01*
X120929999Y-45285424D01*
X120961518Y-45264753D01*
X121017477Y-45228505D01*
X121040099Y-45214152D01*
X121055180Y-45204957D01*
X121060299Y-45201968D01*
X121064779Y-45199246D01*
X121066796Y-45197938D01*
X121068674Y-45196639D01*
X121070419Y-45195331D01*
X121072039Y-45193994D01*
X121073541Y-45192608D01*
X121074930Y-45191156D01*
X121076215Y-45189617D01*
X121077402Y-45187972D01*
X121078498Y-45186203D01*
X121079510Y-45184290D01*
X121080444Y-45182213D01*
X121081308Y-45179954D01*
X121082108Y-45177494D01*
X121082852Y-45174813D01*
X121083546Y-45171892D01*
X121084197Y-45168712D01*
X121084812Y-45165253D01*
X121085397Y-45161497D01*
X121085961Y-45157425D01*
X121086509Y-45153016D01*
X121087586Y-45143115D01*
X121088684Y-45131641D01*
X121091164Y-45103357D01*
X121113852Y-44843933D01*
X121128205Y-44693253D01*
X121133563Y-44638418D01*
X121139318Y-44576837D01*
X121141833Y-44552993D01*
X121143203Y-44542502D01*
X121144659Y-44532932D01*
X121146207Y-44524262D01*
X121147857Y-44516468D01*
X121149614Y-44509527D01*
X121151488Y-44503415D01*
X121153487Y-44498109D01*
X121155616Y-44493586D01*
X121157886Y-44489822D01*
X121160302Y-44486796D01*
X121162874Y-44484482D01*
X121165608Y-44482858D01*
X121168513Y-44481900D01*
X121171597Y-44481587D01*
X121173227Y-44481653D01*
G37*
D10*
X82558295Y-37278400D02*
X82686994Y-36949103D01*
X82000000Y-37250000D02*
X81699103Y-36563006D01*
X103666666Y-38023890D02*
X103333333Y-37523890D01*
X103333333Y-38023890D02*
X103666666Y-37523890D01*
X102500000Y-36488014D02*
X102500000Y-36726109D01*
X102333334Y-36226109D02*
X102500000Y-36488014D01*
X102500000Y-36488014D02*
X102666667Y-36226109D01*
X117500000Y-36738014D02*
X117500000Y-36976109D01*
X117333334Y-36476109D02*
X117500000Y-36738014D01*
X117500000Y-36738014D02*
X117666667Y-36476109D01*
D12*
X128887844Y-36079638D02*
X130030701Y-36079638D01*
X129459272Y-38079638D02*
X129459272Y-36079638D01*
X131078320Y-36079638D02*
X131459273Y-36079638D01*
X131459273Y-36079638D02*
X131649749Y-36174876D01*
X131649749Y-36174876D02*
X131840225Y-36365352D01*
X131840225Y-36365352D02*
X131935463Y-36746304D01*
X131935463Y-36746304D02*
X131935463Y-37412971D01*
X131935463Y-37412971D02*
X131840225Y-37793923D01*
X131840225Y-37793923D02*
X131649749Y-37984400D01*
X131649749Y-37984400D02*
X131459273Y-38079638D01*
X131459273Y-38079638D02*
X131078320Y-38079638D01*
X131078320Y-38079638D02*
X130887844Y-37984400D01*
X130887844Y-37984400D02*
X130697368Y-37793923D01*
X130697368Y-37793923D02*
X130602130Y-37412971D01*
X130602130Y-37412971D02*
X130602130Y-36746304D01*
X130602130Y-36746304D02*
X130697368Y-36365352D01*
X130697368Y-36365352D02*
X130887844Y-36174876D01*
X130887844Y-36174876D02*
X131078320Y-36079638D01*
X132792606Y-38079638D02*
X132792606Y-36079638D01*
X132792606Y-36079638D02*
X133268796Y-36079638D01*
X133268796Y-36079638D02*
X133554511Y-36174876D01*
X133554511Y-36174876D02*
X133744987Y-36365352D01*
X133744987Y-36365352D02*
X133840225Y-36555828D01*
X133840225Y-36555828D02*
X133935463Y-36936780D01*
X133935463Y-36936780D02*
X133935463Y-37222495D01*
X133935463Y-37222495D02*
X133840225Y-37603447D01*
X133840225Y-37603447D02*
X133744987Y-37793923D01*
X133744987Y-37793923D02*
X133554511Y-37984400D01*
X133554511Y-37984400D02*
X133268796Y-38079638D01*
X133268796Y-38079638D02*
X132792606Y-38079638D01*
X135173558Y-36079638D02*
X135554511Y-36079638D01*
X135554511Y-36079638D02*
X135744987Y-36174876D01*
X135744987Y-36174876D02*
X135935463Y-36365352D01*
X135935463Y-36365352D02*
X136030701Y-36746304D01*
X136030701Y-36746304D02*
X136030701Y-37412971D01*
X136030701Y-37412971D02*
X135935463Y-37793923D01*
X135935463Y-37793923D02*
X135744987Y-37984400D01*
X135744987Y-37984400D02*
X135554511Y-38079638D01*
X135554511Y-38079638D02*
X135173558Y-38079638D01*
X135173558Y-38079638D02*
X134983082Y-37984400D01*
X134983082Y-37984400D02*
X134792606Y-37793923D01*
X134792606Y-37793923D02*
X134697368Y-37412971D01*
X134697368Y-37412971D02*
X134697368Y-36746304D01*
X134697368Y-36746304D02*
X134792606Y-36365352D01*
X134792606Y-36365352D02*
X134983082Y-36174876D01*
X134983082Y-36174876D02*
X135173558Y-36079638D01*
X136887844Y-37889161D02*
X136983082Y-37984400D01*
X136983082Y-37984400D02*
X136887844Y-38079638D01*
X136887844Y-38079638D02*
X136792606Y-37984400D01*
X136792606Y-37984400D02*
X136887844Y-37889161D01*
X136887844Y-37889161D02*
X136887844Y-38079638D01*
X136887844Y-36841542D02*
X136983082Y-36936780D01*
X136983082Y-36936780D02*
X136887844Y-37032019D01*
X136887844Y-37032019D02*
X136792606Y-36936780D01*
X136792606Y-36936780D02*
X136887844Y-36841542D01*
X136887844Y-36841542D02*
X136887844Y-37032019D01*
X129459272Y-41299526D02*
X129268796Y-41204288D01*
X129268796Y-41204288D02*
X129173558Y-41013811D01*
X129173558Y-41013811D02*
X129173558Y-39299526D01*
X131078320Y-41299526D02*
X131078320Y-40251907D01*
X131078320Y-40251907D02*
X130983082Y-40061430D01*
X130983082Y-40061430D02*
X130792606Y-39966192D01*
X130792606Y-39966192D02*
X130411653Y-39966192D01*
X130411653Y-39966192D02*
X130221177Y-40061430D01*
X131078320Y-41204288D02*
X130887844Y-41299526D01*
X130887844Y-41299526D02*
X130411653Y-41299526D01*
X130411653Y-41299526D02*
X130221177Y-41204288D01*
X130221177Y-41204288D02*
X130125939Y-41013811D01*
X130125939Y-41013811D02*
X130125939Y-40823335D01*
X130125939Y-40823335D02*
X130221177Y-40632859D01*
X130221177Y-40632859D02*
X130411653Y-40537621D01*
X130411653Y-40537621D02*
X130887844Y-40537621D01*
X130887844Y-40537621D02*
X131078320Y-40442383D01*
X131840225Y-39966192D02*
X132316415Y-41299526D01*
X132792606Y-39966192D02*
X132316415Y-41299526D01*
X132316415Y-41299526D02*
X132125939Y-41775716D01*
X132125939Y-41775716D02*
X132030701Y-41870954D01*
X132030701Y-41870954D02*
X131840225Y-41966192D01*
X133840225Y-41299526D02*
X133649749Y-41204288D01*
X133649749Y-41204288D02*
X133554511Y-41109049D01*
X133554511Y-41109049D02*
X133459273Y-40918573D01*
X133459273Y-40918573D02*
X133459273Y-40347145D01*
X133459273Y-40347145D02*
X133554511Y-40156668D01*
X133554511Y-40156668D02*
X133649749Y-40061430D01*
X133649749Y-40061430D02*
X133840225Y-39966192D01*
X133840225Y-39966192D02*
X134125940Y-39966192D01*
X134125940Y-39966192D02*
X134316416Y-40061430D01*
X134316416Y-40061430D02*
X134411654Y-40156668D01*
X134411654Y-40156668D02*
X134506892Y-40347145D01*
X134506892Y-40347145D02*
X134506892Y-40918573D01*
X134506892Y-40918573D02*
X134411654Y-41109049D01*
X134411654Y-41109049D02*
X134316416Y-41204288D01*
X134316416Y-41204288D02*
X134125940Y-41299526D01*
X134125940Y-41299526D02*
X133840225Y-41299526D01*
X136221178Y-39966192D02*
X136221178Y-41299526D01*
X135364035Y-39966192D02*
X135364035Y-41013811D01*
X135364035Y-41013811D02*
X135459273Y-41204288D01*
X135459273Y-41204288D02*
X135649749Y-41299526D01*
X135649749Y-41299526D02*
X135935464Y-41299526D01*
X135935464Y-41299526D02*
X136125940Y-41204288D01*
X136125940Y-41204288D02*
X136221178Y-41109049D01*
X136887845Y-39966192D02*
X137649749Y-39966192D01*
X137173559Y-39299526D02*
X137173559Y-41013811D01*
X137173559Y-41013811D02*
X137268797Y-41204288D01*
X137268797Y-41204288D02*
X137459273Y-41299526D01*
X137459273Y-41299526D02*
X137649749Y-41299526D01*
X139744988Y-41204288D02*
X139935464Y-41299526D01*
X139935464Y-41299526D02*
X140316416Y-41299526D01*
X140316416Y-41299526D02*
X140506893Y-41204288D01*
X140506893Y-41204288D02*
X140602131Y-41013811D01*
X140602131Y-41013811D02*
X140602131Y-40918573D01*
X140602131Y-40918573D02*
X140506893Y-40728097D01*
X140506893Y-40728097D02*
X140316416Y-40632859D01*
X140316416Y-40632859D02*
X140030702Y-40632859D01*
X140030702Y-40632859D02*
X139840226Y-40537621D01*
X139840226Y-40537621D02*
X139744988Y-40347145D01*
X139744988Y-40347145D02*
X139744988Y-40251907D01*
X139744988Y-40251907D02*
X139840226Y-40061430D01*
X139840226Y-40061430D02*
X140030702Y-39966192D01*
X140030702Y-39966192D02*
X140316416Y-39966192D01*
X140316416Y-39966192D02*
X140506893Y-40061430D01*
X142221179Y-41204288D02*
X142030703Y-41299526D01*
X142030703Y-41299526D02*
X141649750Y-41299526D01*
X141649750Y-41299526D02*
X141459274Y-41204288D01*
X141459274Y-41204288D02*
X141364036Y-41013811D01*
X141364036Y-41013811D02*
X141364036Y-40251907D01*
X141364036Y-40251907D02*
X141459274Y-40061430D01*
X141459274Y-40061430D02*
X141649750Y-39966192D01*
X141649750Y-39966192D02*
X142030703Y-39966192D01*
X142030703Y-39966192D02*
X142221179Y-40061430D01*
X142221179Y-40061430D02*
X142316417Y-40251907D01*
X142316417Y-40251907D02*
X142316417Y-40442383D01*
X142316417Y-40442383D02*
X141364036Y-40632859D01*
X143173560Y-39966192D02*
X143173560Y-41299526D01*
X143173560Y-40156668D02*
X143268798Y-40061430D01*
X143268798Y-40061430D02*
X143459274Y-39966192D01*
X143459274Y-39966192D02*
X143744989Y-39966192D01*
X143744989Y-39966192D02*
X143935465Y-40061430D01*
X143935465Y-40061430D02*
X144030703Y-40251907D01*
X144030703Y-40251907D02*
X144030703Y-41299526D01*
X144887846Y-41204288D02*
X145078322Y-41299526D01*
X145078322Y-41299526D02*
X145459274Y-41299526D01*
X145459274Y-41299526D02*
X145649751Y-41204288D01*
X145649751Y-41204288D02*
X145744989Y-41013811D01*
X145744989Y-41013811D02*
X145744989Y-40918573D01*
X145744989Y-40918573D02*
X145649751Y-40728097D01*
X145649751Y-40728097D02*
X145459274Y-40632859D01*
X145459274Y-40632859D02*
X145173560Y-40632859D01*
X145173560Y-40632859D02*
X144983084Y-40537621D01*
X144983084Y-40537621D02*
X144887846Y-40347145D01*
X144887846Y-40347145D02*
X144887846Y-40251907D01*
X144887846Y-40251907D02*
X144983084Y-40061430D01*
X144983084Y-40061430D02*
X145173560Y-39966192D01*
X145173560Y-39966192D02*
X145459274Y-39966192D01*
X145459274Y-39966192D02*
X145649751Y-40061430D01*
X146887846Y-41299526D02*
X146697370Y-41204288D01*
X146697370Y-41204288D02*
X146602132Y-41109049D01*
X146602132Y-41109049D02*
X146506894Y-40918573D01*
X146506894Y-40918573D02*
X146506894Y-40347145D01*
X146506894Y-40347145D02*
X146602132Y-40156668D01*
X146602132Y-40156668D02*
X146697370Y-40061430D01*
X146697370Y-40061430D02*
X146887846Y-39966192D01*
X146887846Y-39966192D02*
X147173561Y-39966192D01*
X147173561Y-39966192D02*
X147364037Y-40061430D01*
X147364037Y-40061430D02*
X147459275Y-40156668D01*
X147459275Y-40156668D02*
X147554513Y-40347145D01*
X147554513Y-40347145D02*
X147554513Y-40918573D01*
X147554513Y-40918573D02*
X147459275Y-41109049D01*
X147459275Y-41109049D02*
X147364037Y-41204288D01*
X147364037Y-41204288D02*
X147173561Y-41299526D01*
X147173561Y-41299526D02*
X146887846Y-41299526D01*
X148411656Y-41299526D02*
X148411656Y-39966192D01*
X148411656Y-40347145D02*
X148506894Y-40156668D01*
X148506894Y-40156668D02*
X148602132Y-40061430D01*
X148602132Y-40061430D02*
X148792608Y-39966192D01*
X148792608Y-39966192D02*
X148983085Y-39966192D01*
X149554513Y-41204288D02*
X149744989Y-41299526D01*
X149744989Y-41299526D02*
X150125941Y-41299526D01*
X150125941Y-41299526D02*
X150316418Y-41204288D01*
X150316418Y-41204288D02*
X150411656Y-41013811D01*
X150411656Y-41013811D02*
X150411656Y-40918573D01*
X150411656Y-40918573D02*
X150316418Y-40728097D01*
X150316418Y-40728097D02*
X150125941Y-40632859D01*
X150125941Y-40632859D02*
X149840227Y-40632859D01*
X149840227Y-40632859D02*
X149649751Y-40537621D01*
X149649751Y-40537621D02*
X149554513Y-40347145D01*
X149554513Y-40347145D02*
X149554513Y-40251907D01*
X149554513Y-40251907D02*
X149649751Y-40061430D01*
X149649751Y-40061430D02*
X149840227Y-39966192D01*
X149840227Y-39966192D02*
X150125941Y-39966192D01*
X150125941Y-39966192D02*
X150316418Y-40061430D01*
X129459272Y-44519414D02*
X129268796Y-44424176D01*
X129268796Y-44424176D02*
X129173558Y-44233699D01*
X129173558Y-44233699D02*
X129173558Y-42519414D01*
X131078320Y-44519414D02*
X131078320Y-43471795D01*
X131078320Y-43471795D02*
X130983082Y-43281318D01*
X130983082Y-43281318D02*
X130792606Y-43186080D01*
X130792606Y-43186080D02*
X130411653Y-43186080D01*
X130411653Y-43186080D02*
X130221177Y-43281318D01*
X131078320Y-44424176D02*
X130887844Y-44519414D01*
X130887844Y-44519414D02*
X130411653Y-44519414D01*
X130411653Y-44519414D02*
X130221177Y-44424176D01*
X130221177Y-44424176D02*
X130125939Y-44233699D01*
X130125939Y-44233699D02*
X130125939Y-44043223D01*
X130125939Y-44043223D02*
X130221177Y-43852747D01*
X130221177Y-43852747D02*
X130411653Y-43757509D01*
X130411653Y-43757509D02*
X130887844Y-43757509D01*
X130887844Y-43757509D02*
X131078320Y-43662271D01*
X131840225Y-43186080D02*
X132316415Y-44519414D01*
X132792606Y-43186080D02*
X132316415Y-44519414D01*
X132316415Y-44519414D02*
X132125939Y-44995604D01*
X132125939Y-44995604D02*
X132030701Y-45090842D01*
X132030701Y-45090842D02*
X131840225Y-45186080D01*
X133840225Y-44519414D02*
X133649749Y-44424176D01*
X133649749Y-44424176D02*
X133554511Y-44328937D01*
X133554511Y-44328937D02*
X133459273Y-44138461D01*
X133459273Y-44138461D02*
X133459273Y-43567033D01*
X133459273Y-43567033D02*
X133554511Y-43376556D01*
X133554511Y-43376556D02*
X133649749Y-43281318D01*
X133649749Y-43281318D02*
X133840225Y-43186080D01*
X133840225Y-43186080D02*
X134125940Y-43186080D01*
X134125940Y-43186080D02*
X134316416Y-43281318D01*
X134316416Y-43281318D02*
X134411654Y-43376556D01*
X134411654Y-43376556D02*
X134506892Y-43567033D01*
X134506892Y-43567033D02*
X134506892Y-44138461D01*
X134506892Y-44138461D02*
X134411654Y-44328937D01*
X134411654Y-44328937D02*
X134316416Y-44424176D01*
X134316416Y-44424176D02*
X134125940Y-44519414D01*
X134125940Y-44519414D02*
X133840225Y-44519414D01*
X136221178Y-43186080D02*
X136221178Y-44519414D01*
X135364035Y-43186080D02*
X135364035Y-44233699D01*
X135364035Y-44233699D02*
X135459273Y-44424176D01*
X135459273Y-44424176D02*
X135649749Y-44519414D01*
X135649749Y-44519414D02*
X135935464Y-44519414D01*
X135935464Y-44519414D02*
X136125940Y-44424176D01*
X136125940Y-44424176D02*
X136221178Y-44328937D01*
X136887845Y-43186080D02*
X137649749Y-43186080D01*
X137173559Y-42519414D02*
X137173559Y-44233699D01*
X137173559Y-44233699D02*
X137268797Y-44424176D01*
X137268797Y-44424176D02*
X137459273Y-44519414D01*
X137459273Y-44519414D02*
X137649749Y-44519414D01*
X140602131Y-44424176D02*
X140411655Y-44519414D01*
X140411655Y-44519414D02*
X140030702Y-44519414D01*
X140030702Y-44519414D02*
X139840226Y-44424176D01*
X139840226Y-44424176D02*
X139744988Y-44233699D01*
X139744988Y-44233699D02*
X139744988Y-43471795D01*
X139744988Y-43471795D02*
X139840226Y-43281318D01*
X139840226Y-43281318D02*
X140030702Y-43186080D01*
X140030702Y-43186080D02*
X140411655Y-43186080D01*
X140411655Y-43186080D02*
X140602131Y-43281318D01*
X140602131Y-43281318D02*
X140697369Y-43471795D01*
X140697369Y-43471795D02*
X140697369Y-43662271D01*
X140697369Y-43662271D02*
X139744988Y-43852747D01*
X141459274Y-44424176D02*
X141649750Y-44519414D01*
X141649750Y-44519414D02*
X142030702Y-44519414D01*
X142030702Y-44519414D02*
X142221179Y-44424176D01*
X142221179Y-44424176D02*
X142316417Y-44233699D01*
X142316417Y-44233699D02*
X142316417Y-44138461D01*
X142316417Y-44138461D02*
X142221179Y-43947985D01*
X142221179Y-43947985D02*
X142030702Y-43852747D01*
X142030702Y-43852747D02*
X141744988Y-43852747D01*
X141744988Y-43852747D02*
X141554512Y-43757509D01*
X141554512Y-43757509D02*
X141459274Y-43567033D01*
X141459274Y-43567033D02*
X141459274Y-43471795D01*
X141459274Y-43471795D02*
X141554512Y-43281318D01*
X141554512Y-43281318D02*
X141744988Y-43186080D01*
X141744988Y-43186080D02*
X142030702Y-43186080D01*
X142030702Y-43186080D02*
X142221179Y-43281318D01*
X143173560Y-43186080D02*
X143173560Y-45186080D01*
X143173560Y-43281318D02*
X143364036Y-43186080D01*
X143364036Y-43186080D02*
X143744989Y-43186080D01*
X143744989Y-43186080D02*
X143935465Y-43281318D01*
X143935465Y-43281318D02*
X144030703Y-43376556D01*
X144030703Y-43376556D02*
X144125941Y-43567033D01*
X144125941Y-43567033D02*
X144125941Y-44138461D01*
X144125941Y-44138461D02*
X144030703Y-44328937D01*
X144030703Y-44328937D02*
X143935465Y-44424176D01*
X143935465Y-44424176D02*
X143744989Y-44519414D01*
X143744989Y-44519414D02*
X143364036Y-44519414D01*
X143364036Y-44519414D02*
X143173560Y-44424176D01*
X144792608Y-42519414D02*
X146030703Y-42519414D01*
X146030703Y-42519414D02*
X145364036Y-43281318D01*
X145364036Y-43281318D02*
X145649751Y-43281318D01*
X145649751Y-43281318D02*
X145840227Y-43376556D01*
X145840227Y-43376556D02*
X145935465Y-43471795D01*
X145935465Y-43471795D02*
X146030703Y-43662271D01*
X146030703Y-43662271D02*
X146030703Y-44138461D01*
X146030703Y-44138461D02*
X145935465Y-44328937D01*
X145935465Y-44328937D02*
X145840227Y-44424176D01*
X145840227Y-44424176D02*
X145649751Y-44519414D01*
X145649751Y-44519414D02*
X145078322Y-44519414D01*
X145078322Y-44519414D02*
X144887846Y-44424176D01*
X144887846Y-44424176D02*
X144792608Y-44328937D01*
X146792608Y-42709890D02*
X146887846Y-42614652D01*
X146887846Y-42614652D02*
X147078322Y-42519414D01*
X147078322Y-42519414D02*
X147554513Y-42519414D01*
X147554513Y-42519414D02*
X147744989Y-42614652D01*
X147744989Y-42614652D02*
X147840227Y-42709890D01*
X147840227Y-42709890D02*
X147935465Y-42900366D01*
X147935465Y-42900366D02*
X147935465Y-43090842D01*
X147935465Y-43090842D02*
X147840227Y-43376556D01*
X147840227Y-43376556D02*
X146697370Y-44519414D01*
X146697370Y-44519414D02*
X147935465Y-44519414D01*
X129459272Y-47739302D02*
X129268796Y-47644064D01*
X129268796Y-47644064D02*
X129173558Y-47453587D01*
X129173558Y-47453587D02*
X129173558Y-45739302D01*
X131078320Y-47739302D02*
X131078320Y-46691683D01*
X131078320Y-46691683D02*
X130983082Y-46501206D01*
X130983082Y-46501206D02*
X130792606Y-46405968D01*
X130792606Y-46405968D02*
X130411653Y-46405968D01*
X130411653Y-46405968D02*
X130221177Y-46501206D01*
X131078320Y-47644064D02*
X130887844Y-47739302D01*
X130887844Y-47739302D02*
X130411653Y-47739302D01*
X130411653Y-47739302D02*
X130221177Y-47644064D01*
X130221177Y-47644064D02*
X130125939Y-47453587D01*
X130125939Y-47453587D02*
X130125939Y-47263111D01*
X130125939Y-47263111D02*
X130221177Y-47072635D01*
X130221177Y-47072635D02*
X130411653Y-46977397D01*
X130411653Y-46977397D02*
X130887844Y-46977397D01*
X130887844Y-46977397D02*
X131078320Y-46882159D01*
X131840225Y-46405968D02*
X132316415Y-47739302D01*
X132792606Y-46405968D02*
X132316415Y-47739302D01*
X132316415Y-47739302D02*
X132125939Y-48215492D01*
X132125939Y-48215492D02*
X132030701Y-48310730D01*
X132030701Y-48310730D02*
X131840225Y-48405968D01*
X133840225Y-47739302D02*
X133649749Y-47644064D01*
X133649749Y-47644064D02*
X133554511Y-47548825D01*
X133554511Y-47548825D02*
X133459273Y-47358349D01*
X133459273Y-47358349D02*
X133459273Y-46786921D01*
X133459273Y-46786921D02*
X133554511Y-46596444D01*
X133554511Y-46596444D02*
X133649749Y-46501206D01*
X133649749Y-46501206D02*
X133840225Y-46405968D01*
X133840225Y-46405968D02*
X134125940Y-46405968D01*
X134125940Y-46405968D02*
X134316416Y-46501206D01*
X134316416Y-46501206D02*
X134411654Y-46596444D01*
X134411654Y-46596444D02*
X134506892Y-46786921D01*
X134506892Y-46786921D02*
X134506892Y-47358349D01*
X134506892Y-47358349D02*
X134411654Y-47548825D01*
X134411654Y-47548825D02*
X134316416Y-47644064D01*
X134316416Y-47644064D02*
X134125940Y-47739302D01*
X134125940Y-47739302D02*
X133840225Y-47739302D01*
X136221178Y-46405968D02*
X136221178Y-47739302D01*
X135364035Y-46405968D02*
X135364035Y-47453587D01*
X135364035Y-47453587D02*
X135459273Y-47644064D01*
X135459273Y-47644064D02*
X135649749Y-47739302D01*
X135649749Y-47739302D02*
X135935464Y-47739302D01*
X135935464Y-47739302D02*
X136125940Y-47644064D01*
X136125940Y-47644064D02*
X136221178Y-47548825D01*
X136887845Y-46405968D02*
X137649749Y-46405968D01*
X137173559Y-45739302D02*
X137173559Y-47453587D01*
X137173559Y-47453587D02*
X137268797Y-47644064D01*
X137268797Y-47644064D02*
X137459273Y-47739302D01*
X137459273Y-47739302D02*
X137649749Y-47739302D01*
X139554512Y-46405968D02*
X140316416Y-46405968D01*
X139840226Y-45739302D02*
X139840226Y-47453587D01*
X139840226Y-47453587D02*
X139935464Y-47644064D01*
X139935464Y-47644064D02*
X140125940Y-47739302D01*
X140125940Y-47739302D02*
X140316416Y-47739302D01*
X141744988Y-47644064D02*
X141554512Y-47739302D01*
X141554512Y-47739302D02*
X141173559Y-47739302D01*
X141173559Y-47739302D02*
X140983083Y-47644064D01*
X140983083Y-47644064D02*
X140887845Y-47453587D01*
X140887845Y-47453587D02*
X140887845Y-46691683D01*
X140887845Y-46691683D02*
X140983083Y-46501206D01*
X140983083Y-46501206D02*
X141173559Y-46405968D01*
X141173559Y-46405968D02*
X141554512Y-46405968D01*
X141554512Y-46405968D02*
X141744988Y-46501206D01*
X141744988Y-46501206D02*
X141840226Y-46691683D01*
X141840226Y-46691683D02*
X141840226Y-46882159D01*
X141840226Y-46882159D02*
X140887845Y-47072635D01*
X142602131Y-47644064D02*
X142792607Y-47739302D01*
X142792607Y-47739302D02*
X143173559Y-47739302D01*
X143173559Y-47739302D02*
X143364036Y-47644064D01*
X143364036Y-47644064D02*
X143459274Y-47453587D01*
X143459274Y-47453587D02*
X143459274Y-47358349D01*
X143459274Y-47358349D02*
X143364036Y-47167873D01*
X143364036Y-47167873D02*
X143173559Y-47072635D01*
X143173559Y-47072635D02*
X142887845Y-47072635D01*
X142887845Y-47072635D02*
X142697369Y-46977397D01*
X142697369Y-46977397D02*
X142602131Y-46786921D01*
X142602131Y-46786921D02*
X142602131Y-46691683D01*
X142602131Y-46691683D02*
X142697369Y-46501206D01*
X142697369Y-46501206D02*
X142887845Y-46405968D01*
X142887845Y-46405968D02*
X143173559Y-46405968D01*
X143173559Y-46405968D02*
X143364036Y-46501206D01*
X144030703Y-46405968D02*
X144792607Y-46405968D01*
X144316417Y-45739302D02*
X144316417Y-47453587D01*
X144316417Y-47453587D02*
X144411655Y-47644064D01*
X144411655Y-47644064D02*
X144602131Y-47739302D01*
X144602131Y-47739302D02*
X144792607Y-47739302D01*
X146983084Y-46405968D02*
X146983084Y-48405968D01*
X146983084Y-46501206D02*
X147173560Y-46405968D01*
X147173560Y-46405968D02*
X147554513Y-46405968D01*
X147554513Y-46405968D02*
X147744989Y-46501206D01*
X147744989Y-46501206D02*
X147840227Y-46596444D01*
X147840227Y-46596444D02*
X147935465Y-46786921D01*
X147935465Y-46786921D02*
X147935465Y-47358349D01*
X147935465Y-47358349D02*
X147840227Y-47548825D01*
X147840227Y-47548825D02*
X147744989Y-47644064D01*
X147744989Y-47644064D02*
X147554513Y-47739302D01*
X147554513Y-47739302D02*
X147173560Y-47739302D01*
X147173560Y-47739302D02*
X146983084Y-47644064D01*
X149078322Y-47739302D02*
X148887846Y-47644064D01*
X148887846Y-47644064D02*
X148792608Y-47548825D01*
X148792608Y-47548825D02*
X148697370Y-47358349D01*
X148697370Y-47358349D02*
X148697370Y-46786921D01*
X148697370Y-46786921D02*
X148792608Y-46596444D01*
X148792608Y-46596444D02*
X148887846Y-46501206D01*
X148887846Y-46501206D02*
X149078322Y-46405968D01*
X149078322Y-46405968D02*
X149364037Y-46405968D01*
X149364037Y-46405968D02*
X149554513Y-46501206D01*
X149554513Y-46501206D02*
X149649751Y-46596444D01*
X149649751Y-46596444D02*
X149744989Y-46786921D01*
X149744989Y-46786921D02*
X149744989Y-47358349D01*
X149744989Y-47358349D02*
X149649751Y-47548825D01*
X149649751Y-47548825D02*
X149554513Y-47644064D01*
X149554513Y-47644064D02*
X149364037Y-47739302D01*
X149364037Y-47739302D02*
X149078322Y-47739302D01*
X150602132Y-47739302D02*
X150602132Y-46405968D01*
X150602132Y-45739302D02*
X150506894Y-45834540D01*
X150506894Y-45834540D02*
X150602132Y-45929778D01*
X150602132Y-45929778D02*
X150697370Y-45834540D01*
X150697370Y-45834540D02*
X150602132Y-45739302D01*
X150602132Y-45739302D02*
X150602132Y-45929778D01*
X151554513Y-46405968D02*
X151554513Y-47739302D01*
X151554513Y-46596444D02*
X151649751Y-46501206D01*
X151649751Y-46501206D02*
X151840227Y-46405968D01*
X151840227Y-46405968D02*
X152125942Y-46405968D01*
X152125942Y-46405968D02*
X152316418Y-46501206D01*
X152316418Y-46501206D02*
X152411656Y-46691683D01*
X152411656Y-46691683D02*
X152411656Y-47739302D01*
X153078323Y-46405968D02*
X153840227Y-46405968D01*
X153364037Y-45739302D02*
X153364037Y-47453587D01*
X153364037Y-47453587D02*
X153459275Y-47644064D01*
X153459275Y-47644064D02*
X153649751Y-47739302D01*
X153649751Y-47739302D02*
X153840227Y-47739302D01*
X154411656Y-47644064D02*
X154602132Y-47739302D01*
X154602132Y-47739302D02*
X154983084Y-47739302D01*
X154983084Y-47739302D02*
X155173561Y-47644064D01*
X155173561Y-47644064D02*
X155268799Y-47453587D01*
X155268799Y-47453587D02*
X155268799Y-47358349D01*
X155268799Y-47358349D02*
X155173561Y-47167873D01*
X155173561Y-47167873D02*
X154983084Y-47072635D01*
X154983084Y-47072635D02*
X154697370Y-47072635D01*
X154697370Y-47072635D02*
X154506894Y-46977397D01*
X154506894Y-46977397D02*
X154411656Y-46786921D01*
X154411656Y-46786921D02*
X154411656Y-46691683D01*
X154411656Y-46691683D02*
X154506894Y-46501206D01*
X154506894Y-46501206D02*
X154697370Y-46405968D01*
X154697370Y-46405968D02*
X154983084Y-46405968D01*
X154983084Y-46405968D02*
X155173561Y-46501206D01*
X157554513Y-45644064D02*
X155840228Y-48215492D01*
X158221180Y-47739302D02*
X158221180Y-45739302D01*
X159078323Y-47739302D02*
X159078323Y-46691683D01*
X159078323Y-46691683D02*
X158983085Y-46501206D01*
X158983085Y-46501206D02*
X158792609Y-46405968D01*
X158792609Y-46405968D02*
X158506894Y-46405968D01*
X158506894Y-46405968D02*
X158316418Y-46501206D01*
X158316418Y-46501206D02*
X158221180Y-46596444D01*
X160792609Y-47644064D02*
X160602133Y-47739302D01*
X160602133Y-47739302D02*
X160221180Y-47739302D01*
X160221180Y-47739302D02*
X160030704Y-47644064D01*
X160030704Y-47644064D02*
X159935466Y-47453587D01*
X159935466Y-47453587D02*
X159935466Y-46691683D01*
X159935466Y-46691683D02*
X160030704Y-46501206D01*
X160030704Y-46501206D02*
X160221180Y-46405968D01*
X160221180Y-46405968D02*
X160602133Y-46405968D01*
X160602133Y-46405968D02*
X160792609Y-46501206D01*
X160792609Y-46501206D02*
X160887847Y-46691683D01*
X160887847Y-46691683D02*
X160887847Y-46882159D01*
X160887847Y-46882159D02*
X159935466Y-47072635D01*
X162602133Y-47739302D02*
X162602133Y-46691683D01*
X162602133Y-46691683D02*
X162506895Y-46501206D01*
X162506895Y-46501206D02*
X162316419Y-46405968D01*
X162316419Y-46405968D02*
X161935466Y-46405968D01*
X161935466Y-46405968D02*
X161744990Y-46501206D01*
X162602133Y-47644064D02*
X162411657Y-47739302D01*
X162411657Y-47739302D02*
X161935466Y-47739302D01*
X161935466Y-47739302D02*
X161744990Y-47644064D01*
X161744990Y-47644064D02*
X161649752Y-47453587D01*
X161649752Y-47453587D02*
X161649752Y-47263111D01*
X161649752Y-47263111D02*
X161744990Y-47072635D01*
X161744990Y-47072635D02*
X161935466Y-46977397D01*
X161935466Y-46977397D02*
X162411657Y-46977397D01*
X162411657Y-46977397D02*
X162602133Y-46882159D01*
X164411657Y-47739302D02*
X164411657Y-45739302D01*
X164411657Y-47644064D02*
X164221181Y-47739302D01*
X164221181Y-47739302D02*
X163840228Y-47739302D01*
X163840228Y-47739302D02*
X163649752Y-47644064D01*
X163649752Y-47644064D02*
X163554514Y-47548825D01*
X163554514Y-47548825D02*
X163459276Y-47358349D01*
X163459276Y-47358349D02*
X163459276Y-46786921D01*
X163459276Y-46786921D02*
X163554514Y-46596444D01*
X163554514Y-46596444D02*
X163649752Y-46501206D01*
X163649752Y-46501206D02*
X163840228Y-46405968D01*
X163840228Y-46405968D02*
X164221181Y-46405968D01*
X164221181Y-46405968D02*
X164411657Y-46501206D01*
X166125943Y-47644064D02*
X165935467Y-47739302D01*
X165935467Y-47739302D02*
X165554514Y-47739302D01*
X165554514Y-47739302D02*
X165364038Y-47644064D01*
X165364038Y-47644064D02*
X165268800Y-47453587D01*
X165268800Y-47453587D02*
X165268800Y-46691683D01*
X165268800Y-46691683D02*
X165364038Y-46501206D01*
X165364038Y-46501206D02*
X165554514Y-46405968D01*
X165554514Y-46405968D02*
X165935467Y-46405968D01*
X165935467Y-46405968D02*
X166125943Y-46501206D01*
X166125943Y-46501206D02*
X166221181Y-46691683D01*
X166221181Y-46691683D02*
X166221181Y-46882159D01*
X166221181Y-46882159D02*
X165268800Y-47072635D01*
X167078324Y-47739302D02*
X167078324Y-46405968D01*
X167078324Y-46786921D02*
X167173562Y-46596444D01*
X167173562Y-46596444D02*
X167268800Y-46501206D01*
X167268800Y-46501206D02*
X167459276Y-46405968D01*
X167459276Y-46405968D02*
X167649753Y-46405968D01*
X168221181Y-47644064D02*
X168411657Y-47739302D01*
X168411657Y-47739302D02*
X168792609Y-47739302D01*
X168792609Y-47739302D02*
X168983086Y-47644064D01*
X168983086Y-47644064D02*
X169078324Y-47453587D01*
X169078324Y-47453587D02*
X169078324Y-47358349D01*
X169078324Y-47358349D02*
X168983086Y-47167873D01*
X168983086Y-47167873D02*
X168792609Y-47072635D01*
X168792609Y-47072635D02*
X168506895Y-47072635D01*
X168506895Y-47072635D02*
X168316419Y-46977397D01*
X168316419Y-46977397D02*
X168221181Y-46786921D01*
X168221181Y-46786921D02*
X168221181Y-46691683D01*
X168221181Y-46691683D02*
X168316419Y-46501206D01*
X168316419Y-46501206D02*
X168506895Y-46405968D01*
X168506895Y-46405968D02*
X168792609Y-46405968D01*
X168792609Y-46405968D02*
X168983086Y-46501206D01*
X129173558Y-50959190D02*
X129173558Y-49625856D01*
X129173558Y-50006809D02*
X129268796Y-49816332D01*
X129268796Y-49816332D02*
X129364034Y-49721094D01*
X129364034Y-49721094D02*
X129554510Y-49625856D01*
X129554510Y-49625856D02*
X129744987Y-49625856D01*
X131268796Y-49625856D02*
X131268796Y-50959190D01*
X130411653Y-49625856D02*
X130411653Y-50673475D01*
X130411653Y-50673475D02*
X130506891Y-50863952D01*
X130506891Y-50863952D02*
X130697367Y-50959190D01*
X130697367Y-50959190D02*
X130983082Y-50959190D01*
X130983082Y-50959190D02*
X131173558Y-50863952D01*
X131173558Y-50863952D02*
X131268796Y-50768713D01*
X132221177Y-49625856D02*
X132221177Y-50959190D01*
X132221177Y-49816332D02*
X132316415Y-49721094D01*
X132316415Y-49721094D02*
X132506891Y-49625856D01*
X132506891Y-49625856D02*
X132792606Y-49625856D01*
X132792606Y-49625856D02*
X132983082Y-49721094D01*
X132983082Y-49721094D02*
X133078320Y-49911571D01*
X133078320Y-49911571D02*
X133078320Y-50959190D01*
X135268797Y-49625856D02*
X136030701Y-49625856D01*
X135554511Y-48959190D02*
X135554511Y-50673475D01*
X135554511Y-50673475D02*
X135649749Y-50863952D01*
X135649749Y-50863952D02*
X135840225Y-50959190D01*
X135840225Y-50959190D02*
X136030701Y-50959190D01*
X136697368Y-50959190D02*
X136697368Y-49625856D01*
X136697368Y-50006809D02*
X136792606Y-49816332D01*
X136792606Y-49816332D02*
X136887844Y-49721094D01*
X136887844Y-49721094D02*
X137078320Y-49625856D01*
X137078320Y-49625856D02*
X137268797Y-49625856D01*
X138792606Y-50959190D02*
X138792606Y-49911571D01*
X138792606Y-49911571D02*
X138697368Y-49721094D01*
X138697368Y-49721094D02*
X138506892Y-49625856D01*
X138506892Y-49625856D02*
X138125939Y-49625856D01*
X138125939Y-49625856D02*
X137935463Y-49721094D01*
X138792606Y-50863952D02*
X138602130Y-50959190D01*
X138602130Y-50959190D02*
X138125939Y-50959190D01*
X138125939Y-50959190D02*
X137935463Y-50863952D01*
X137935463Y-50863952D02*
X137840225Y-50673475D01*
X137840225Y-50673475D02*
X137840225Y-50482999D01*
X137840225Y-50482999D02*
X137935463Y-50292523D01*
X137935463Y-50292523D02*
X138125939Y-50197285D01*
X138125939Y-50197285D02*
X138602130Y-50197285D01*
X138602130Y-50197285D02*
X138792606Y-50102047D01*
X140602130Y-50863952D02*
X140411654Y-50959190D01*
X140411654Y-50959190D02*
X140030701Y-50959190D01*
X140030701Y-50959190D02*
X139840225Y-50863952D01*
X139840225Y-50863952D02*
X139744987Y-50768713D01*
X139744987Y-50768713D02*
X139649749Y-50578237D01*
X139649749Y-50578237D02*
X139649749Y-50006809D01*
X139649749Y-50006809D02*
X139744987Y-49816332D01*
X139744987Y-49816332D02*
X139840225Y-49721094D01*
X139840225Y-49721094D02*
X140030701Y-49625856D01*
X140030701Y-49625856D02*
X140411654Y-49625856D01*
X140411654Y-49625856D02*
X140602130Y-49721094D01*
X142221178Y-50863952D02*
X142030702Y-50959190D01*
X142030702Y-50959190D02*
X141649749Y-50959190D01*
X141649749Y-50959190D02*
X141459273Y-50863952D01*
X141459273Y-50863952D02*
X141364035Y-50673475D01*
X141364035Y-50673475D02*
X141364035Y-49911571D01*
X141364035Y-49911571D02*
X141459273Y-49721094D01*
X141459273Y-49721094D02*
X141649749Y-49625856D01*
X141649749Y-49625856D02*
X142030702Y-49625856D01*
X142030702Y-49625856D02*
X142221178Y-49721094D01*
X142221178Y-49721094D02*
X142316416Y-49911571D01*
X142316416Y-49911571D02*
X142316416Y-50102047D01*
X142316416Y-50102047D02*
X141364035Y-50292523D01*
X143078321Y-50863952D02*
X143268797Y-50959190D01*
X143268797Y-50959190D02*
X143649749Y-50959190D01*
X143649749Y-50959190D02*
X143840226Y-50863952D01*
X143840226Y-50863952D02*
X143935464Y-50673475D01*
X143935464Y-50673475D02*
X143935464Y-50578237D01*
X143935464Y-50578237D02*
X143840226Y-50387761D01*
X143840226Y-50387761D02*
X143649749Y-50292523D01*
X143649749Y-50292523D02*
X143364035Y-50292523D01*
X143364035Y-50292523D02*
X143173559Y-50197285D01*
X143173559Y-50197285D02*
X143078321Y-50006809D01*
X143078321Y-50006809D02*
X143078321Y-49911571D01*
X143078321Y-49911571D02*
X143173559Y-49721094D01*
X143173559Y-49721094D02*
X143364035Y-49625856D01*
X143364035Y-49625856D02*
X143649749Y-49625856D01*
X143649749Y-49625856D02*
X143840226Y-49721094D01*
X129078320Y-54083840D02*
X129268796Y-54179078D01*
X129268796Y-54179078D02*
X129649748Y-54179078D01*
X129649748Y-54179078D02*
X129840225Y-54083840D01*
X129840225Y-54083840D02*
X129935463Y-53893363D01*
X129935463Y-53893363D02*
X129935463Y-53798125D01*
X129935463Y-53798125D02*
X129840225Y-53607649D01*
X129840225Y-53607649D02*
X129649748Y-53512411D01*
X129649748Y-53512411D02*
X129364034Y-53512411D01*
X129364034Y-53512411D02*
X129173558Y-53417173D01*
X129173558Y-53417173D02*
X129078320Y-53226697D01*
X129078320Y-53226697D02*
X129078320Y-53131459D01*
X129078320Y-53131459D02*
X129173558Y-52940982D01*
X129173558Y-52940982D02*
X129364034Y-52845744D01*
X129364034Y-52845744D02*
X129649748Y-52845744D01*
X129649748Y-52845744D02*
X129840225Y-52940982D01*
X130792606Y-54179078D02*
X130792606Y-52845744D01*
X130792606Y-52179078D02*
X130697368Y-52274316D01*
X130697368Y-52274316D02*
X130792606Y-52369554D01*
X130792606Y-52369554D02*
X130887844Y-52274316D01*
X130887844Y-52274316D02*
X130792606Y-52179078D01*
X130792606Y-52179078D02*
X130792606Y-52369554D01*
X132030701Y-54179078D02*
X131840225Y-54083840D01*
X131840225Y-54083840D02*
X131744987Y-53893363D01*
X131744987Y-53893363D02*
X131744987Y-52179078D01*
X132792606Y-54179078D02*
X132792606Y-52179078D01*
X132983082Y-53417173D02*
X133554511Y-54179078D01*
X133554511Y-52845744D02*
X132792606Y-53607649D01*
X135840226Y-54083840D02*
X136030702Y-54179078D01*
X136030702Y-54179078D02*
X136411654Y-54179078D01*
X136411654Y-54179078D02*
X136602131Y-54083840D01*
X136602131Y-54083840D02*
X136697369Y-53893363D01*
X136697369Y-53893363D02*
X136697369Y-53798125D01*
X136697369Y-53798125D02*
X136602131Y-53607649D01*
X136602131Y-53607649D02*
X136411654Y-53512411D01*
X136411654Y-53512411D02*
X136125940Y-53512411D01*
X136125940Y-53512411D02*
X135935464Y-53417173D01*
X135935464Y-53417173D02*
X135840226Y-53226697D01*
X135840226Y-53226697D02*
X135840226Y-53131459D01*
X135840226Y-53131459D02*
X135935464Y-52940982D01*
X135935464Y-52940982D02*
X136125940Y-52845744D01*
X136125940Y-52845744D02*
X136411654Y-52845744D01*
X136411654Y-52845744D02*
X136602131Y-52940982D01*
X138411655Y-54083840D02*
X138221179Y-54179078D01*
X138221179Y-54179078D02*
X137840226Y-54179078D01*
X137840226Y-54179078D02*
X137649750Y-54083840D01*
X137649750Y-54083840D02*
X137554512Y-53988601D01*
X137554512Y-53988601D02*
X137459274Y-53798125D01*
X137459274Y-53798125D02*
X137459274Y-53226697D01*
X137459274Y-53226697D02*
X137554512Y-53036220D01*
X137554512Y-53036220D02*
X137649750Y-52940982D01*
X137649750Y-52940982D02*
X137840226Y-52845744D01*
X137840226Y-52845744D02*
X138221179Y-52845744D01*
X138221179Y-52845744D02*
X138411655Y-52940982D01*
X139268798Y-54179078D02*
X139268798Y-52845744D01*
X139268798Y-53226697D02*
X139364036Y-53036220D01*
X139364036Y-53036220D02*
X139459274Y-52940982D01*
X139459274Y-52940982D02*
X139649750Y-52845744D01*
X139649750Y-52845744D02*
X139840227Y-52845744D01*
X141268798Y-54083840D02*
X141078322Y-54179078D01*
X141078322Y-54179078D02*
X140697369Y-54179078D01*
X140697369Y-54179078D02*
X140506893Y-54083840D01*
X140506893Y-54083840D02*
X140411655Y-53893363D01*
X140411655Y-53893363D02*
X140411655Y-53131459D01*
X140411655Y-53131459D02*
X140506893Y-52940982D01*
X140506893Y-52940982D02*
X140697369Y-52845744D01*
X140697369Y-52845744D02*
X141078322Y-52845744D01*
X141078322Y-52845744D02*
X141268798Y-52940982D01*
X141268798Y-52940982D02*
X141364036Y-53131459D01*
X141364036Y-53131459D02*
X141364036Y-53321935D01*
X141364036Y-53321935D02*
X140411655Y-53512411D01*
X142983084Y-54083840D02*
X142792608Y-54179078D01*
X142792608Y-54179078D02*
X142411655Y-54179078D01*
X142411655Y-54179078D02*
X142221179Y-54083840D01*
X142221179Y-54083840D02*
X142125941Y-53893363D01*
X142125941Y-53893363D02*
X142125941Y-53131459D01*
X142125941Y-53131459D02*
X142221179Y-52940982D01*
X142221179Y-52940982D02*
X142411655Y-52845744D01*
X142411655Y-52845744D02*
X142792608Y-52845744D01*
X142792608Y-52845744D02*
X142983084Y-52940982D01*
X142983084Y-52940982D02*
X143078322Y-53131459D01*
X143078322Y-53131459D02*
X143078322Y-53321935D01*
X143078322Y-53321935D02*
X142125941Y-53512411D01*
X143935465Y-52845744D02*
X143935465Y-54179078D01*
X143935465Y-53036220D02*
X144030703Y-52940982D01*
X144030703Y-52940982D02*
X144221179Y-52845744D01*
X144221179Y-52845744D02*
X144506894Y-52845744D01*
X144506894Y-52845744D02*
X144697370Y-52940982D01*
X144697370Y-52940982D02*
X144792608Y-53131459D01*
X144792608Y-53131459D02*
X144792608Y-54179078D01*
D10*
X81250000Y-36738014D02*
X81250000Y-36976109D01*
X81083334Y-36476109D02*
X81250000Y-36738014D01*
X81250000Y-36738014D02*
X81416667Y-36476109D01*
X118833333Y-37226109D02*
X119166666Y-37726109D01*
X119166666Y-37226109D02*
X118833333Y-37726109D01*
X82833333Y-36518609D02*
X83166666Y-37018609D01*
X83166666Y-36518609D02*
X82833333Y-37018609D01*
D13*
X116685837Y-39967479D02*
X116590314Y-40185573D01*
X116410429Y-40002812D02*
X116590314Y-40185573D01*
X116590314Y-40185573D02*
X116846616Y-40193858D01*
X116383039Y-40302733D02*
X116590314Y-40185573D01*
X116590314Y-40185573D02*
X116644751Y-40417361D01*
X116248386Y-40966242D02*
X116343909Y-40748148D01*
X116523794Y-40930909D02*
X116343909Y-40748148D01*
X116343909Y-40748148D02*
X116087607Y-40739863D01*
X116551184Y-40630988D02*
X116343909Y-40748148D01*
X116343909Y-40748148D02*
X116289472Y-40516360D01*
X87176347Y-38275836D02*
X87271874Y-38493927D01*
X87015572Y-38502218D02*
X87271874Y-38493927D01*
X87271874Y-38493927D02*
X87451755Y-38311164D01*
X87217441Y-38725717D02*
X87271874Y-38493927D01*
X87271874Y-38493927D02*
X87479151Y-38611085D01*
X87613814Y-39274591D02*
X87518287Y-39056500D01*
X87774589Y-39048209D02*
X87518287Y-39056500D01*
X87518287Y-39056500D02*
X87338406Y-39239263D01*
X87572720Y-38824710D02*
X87518287Y-39056500D01*
X87518287Y-39056500D02*
X87311010Y-38939342D01*
X100467100Y-66954819D02*
X100467100Y-67192914D01*
X100229005Y-67097676D02*
X100467100Y-67192914D01*
X100467100Y-67192914D02*
X100705195Y-67097676D01*
X100324243Y-67383390D02*
X100467100Y-67192914D01*
X100467100Y-67192914D02*
X100609957Y-67383390D01*
X100467099Y-68045180D02*
X100467099Y-67807085D01*
X100705194Y-67902323D02*
X100467099Y-67807085D01*
X100467099Y-67807085D02*
X100229004Y-67902323D01*
X100609956Y-67616609D02*
X100467099Y-67807085D01*
X100467099Y-67807085D02*
X100324242Y-67616609D01*
X98073819Y-41138599D02*
X98311914Y-41138599D01*
X98216676Y-41376694D02*
X98311914Y-41138599D01*
X98311914Y-41138599D02*
X98216676Y-40900504D01*
X98502390Y-41281456D02*
X98311914Y-41138599D01*
X98311914Y-41138599D02*
X98502390Y-40995742D01*
X98073819Y-41138599D02*
X98311914Y-41138599D01*
X98216676Y-41376694D02*
X98311914Y-41138599D01*
X98311914Y-41138599D02*
X98216676Y-40900504D01*
X98502390Y-41281456D02*
X98311914Y-41138599D01*
X98311914Y-41138599D02*
X98502390Y-40995742D01*
X85454819Y-69234499D02*
X85692914Y-69234499D01*
X85597676Y-69472594D02*
X85692914Y-69234499D01*
X85692914Y-69234499D02*
X85597676Y-68996404D01*
X85883390Y-69377356D02*
X85692914Y-69234499D01*
X85692914Y-69234499D02*
X85883390Y-69091642D01*
X85454819Y-69234499D02*
X85692914Y-69234499D01*
X85597676Y-69472594D02*
X85692914Y-69234499D01*
X85692914Y-69234499D02*
X85597676Y-68996404D01*
X85883390Y-69377356D02*
X85692914Y-69234499D01*
X85692914Y-69234499D02*
X85883390Y-69091642D01*
D14*
%TO.C,SW2*%
X6525000Y-8475000D02*
X6525000Y-10475000D01*
X5525000Y-11775000D02*
X5075000Y-12225000D01*
X5525000Y-7175000D02*
X5075000Y-6725000D01*
X2475000Y-12225000D02*
X5075000Y-12225000D01*
X2475000Y-6725000D02*
X5075000Y-6725000D01*
X2025000Y-11775000D02*
X2475000Y-12225000D01*
X2025000Y-7175000D02*
X2475000Y-6725000D01*
X1025000Y-8475000D02*
X1025000Y-10475000D01*
%TO.C,SW1*%
X6525000Y-1825000D02*
X6525000Y-3825000D01*
X5525000Y-5125000D02*
X5075000Y-5575000D01*
X5525000Y-525000D02*
X5075000Y-75000D01*
X2475000Y-5575000D02*
X5075000Y-5575000D01*
X2475000Y-75000D02*
X5075000Y-75000D01*
X2025000Y-5125000D02*
X2475000Y-5575000D01*
X2025000Y-525000D02*
X2475000Y-75000D01*
X1025000Y-1825000D02*
X1025000Y-3825000D01*
%TO.C,R25*%
X92120000Y-47653641D02*
X92120000Y-47346359D01*
X92880000Y-47653641D02*
X92880000Y-47346359D01*
%TO.C,R11*%
X86346359Y-52880000D02*
X86653641Y-52880000D01*
X86346359Y-52120000D02*
X86653641Y-52120000D01*
%TO.C,L3*%
X83316294Y-51424589D02*
X83174589Y-51566294D01*
X83825411Y-51933706D02*
X83683706Y-52075411D01*
%TO.C,C41*%
X86359420Y-55760000D02*
X86640580Y-55760000D01*
X86359420Y-54740000D02*
X86640580Y-54740000D01*
%TO.C,C36*%
X86392164Y-54110000D02*
X86607836Y-54110000D01*
X86392164Y-53390000D02*
X86607836Y-53390000D01*
%TO.C,C35*%
X81390000Y-53142164D02*
X81390000Y-53357836D01*
X82110000Y-53142164D02*
X82110000Y-53357836D01*
%TO.C,C34*%
X85360000Y-50087836D02*
X85360000Y-49872164D01*
X84640000Y-50087836D02*
X84640000Y-49872164D01*
D11*
%TO.C,kibuzzard-66936F84*%
G36*
X114155269Y-69691148D02*
G01*
X114192179Y-69780418D01*
X114151836Y-69874839D01*
X114066857Y-69905740D01*
X113881450Y-69905740D01*
X113881450Y-69655097D01*
X114065141Y-69655097D01*
X114155269Y-69691148D01*
G37*
G36*
X116802480Y-69691148D02*
G01*
X116839390Y-69780418D01*
X116799905Y-69874839D01*
X116717501Y-69905740D01*
X116528660Y-69905740D01*
X116528660Y-69655097D01*
X116714068Y-69655097D01*
X116802480Y-69691148D01*
G37*
G36*
X117611473Y-69180932D02*
G01*
X117685271Y-69191879D01*
X117757640Y-69210006D01*
X117827885Y-69235140D01*
X117895327Y-69267038D01*
X117959318Y-69305393D01*
X118019242Y-69349835D01*
X118074521Y-69399937D01*
X118124622Y-69455216D01*
X118169065Y-69515139D01*
X118207420Y-69579131D01*
X118239317Y-69646573D01*
X118264451Y-69716817D01*
X118282579Y-69789187D01*
X118293526Y-69862985D01*
X118297186Y-69937500D01*
X118293526Y-70012015D01*
X118282579Y-70085813D01*
X118264451Y-70158183D01*
X118239317Y-70228427D01*
X118207420Y-70295869D01*
X118169065Y-70359861D01*
X118124622Y-70419784D01*
X118074521Y-70475063D01*
X118019242Y-70525165D01*
X117959318Y-70569607D01*
X117895327Y-70607962D01*
X117827885Y-70639860D01*
X117757640Y-70664994D01*
X117685271Y-70683121D01*
X117611473Y-70694068D01*
X117536958Y-70697729D01*
X117179304Y-70697729D01*
X116968145Y-70697729D01*
X115026514Y-70697729D01*
X113723510Y-70697729D01*
X113567287Y-70697729D01*
X113209633Y-70697729D01*
X112702814Y-69937500D01*
X112996376Y-69497157D01*
X113567287Y-69497157D01*
X113567287Y-70382994D01*
X113569862Y-70442221D01*
X113586171Y-70489431D01*
X113634239Y-70528916D01*
X113723510Y-70540933D01*
X113814497Y-70528916D01*
X113862566Y-70490290D01*
X113878875Y-70443938D01*
X113881450Y-70384710D01*
X113881450Y-70219903D01*
X114065141Y-70219903D01*
X114135312Y-70213036D01*
X114208488Y-70192436D01*
X114281450Y-70158959D01*
X114350978Y-70113466D01*
X114412566Y-70053165D01*
X114461707Y-69975268D01*
X114493896Y-69883637D01*
X114504626Y-69782135D01*
X114493681Y-69680204D01*
X114460849Y-69587285D01*
X114411278Y-69508101D01*
X114350119Y-69447371D01*
X114311249Y-69421620D01*
X114562136Y-69421620D01*
X114569862Y-69548659D01*
X114878875Y-70434496D01*
X114894325Y-70471406D01*
X114940677Y-70516041D01*
X115026514Y-70540933D01*
X115123939Y-70511749D01*
X115179304Y-70424195D01*
X115340677Y-69897157D01*
X115502051Y-70425912D01*
X115511493Y-70450805D01*
X115533810Y-70486856D01*
X115581879Y-70525483D01*
X115654840Y-70540933D01*
X115750548Y-70514324D01*
X115804196Y-70434496D01*
X116111493Y-69548659D01*
X116115373Y-69497157D01*
X116214497Y-69497157D01*
X116214497Y-70382994D01*
X116217072Y-70442221D01*
X116233381Y-70489431D01*
X116281450Y-70528916D01*
X116370720Y-70540933D01*
X116461707Y-70528916D01*
X116509776Y-70490290D01*
X116526085Y-70443938D01*
X116528660Y-70384710D01*
X116528660Y-70218187D01*
X116688317Y-70218187D01*
X116872008Y-70467114D01*
X116968145Y-70546942D01*
X117090033Y-70499732D01*
X117172437Y-70398444D01*
X117126085Y-70279989D01*
X117002480Y-70115182D01*
X117086409Y-70021716D01*
X117136767Y-69910700D01*
X117153553Y-69782135D01*
X117142823Y-69680204D01*
X117110634Y-69587285D01*
X117061493Y-69508101D01*
X116999905Y-69447371D01*
X116930806Y-69401878D01*
X116859132Y-69368401D01*
X116787244Y-69347800D01*
X116717501Y-69340933D01*
X116372437Y-69340933D01*
X116281450Y-69352951D01*
X116233381Y-69392436D01*
X116217072Y-69439646D01*
X116214497Y-69497157D01*
X116115373Y-69497157D01*
X116120935Y-69423337D01*
X116013639Y-69347800D01*
X115884025Y-69340933D01*
X115814497Y-69447371D01*
X115635956Y-69972693D01*
X115495184Y-69457672D01*
X115490033Y-69443938D01*
X115481450Y-69422479D01*
X115470291Y-69401019D01*
X115451407Y-69378702D01*
X115424797Y-69359818D01*
X115387029Y-69345225D01*
X115337244Y-69340933D01*
X115238531Y-69369689D01*
X115186171Y-69455955D01*
X115045398Y-69969260D01*
X114866857Y-69447371D01*
X114797330Y-69341792D01*
X114669433Y-69349517D01*
X114562136Y-69421620D01*
X114311249Y-69421620D01*
X114281450Y-69401878D01*
X114209347Y-69368401D01*
X114136814Y-69347800D01*
X114066857Y-69340933D01*
X113725227Y-69340933D01*
X113634239Y-69352951D01*
X113586171Y-69392436D01*
X113569862Y-69439646D01*
X113567287Y-69497157D01*
X112996376Y-69497157D01*
X113209633Y-69177271D01*
X113567287Y-69177271D01*
X117179304Y-69177271D01*
X117536958Y-69177271D01*
X117611473Y-69180932D01*
G37*
D14*
%TO.C,C5*%
X97640000Y-69884165D02*
X97640000Y-70115835D01*
X98360000Y-69884165D02*
X98360000Y-70115835D01*
%TO.C,C32*%
X86357836Y-46140000D02*
X86142164Y-46140000D01*
X86357836Y-46860000D02*
X86142164Y-46860000D01*
%TO.C,R1*%
X117846359Y-53620000D02*
X118153641Y-53620000D01*
X117846359Y-54380000D02*
X118153641Y-54380000D01*
%TO.C,R19*%
X90870000Y-47653641D02*
X90870000Y-47346359D01*
X91630000Y-47653641D02*
X91630000Y-47346359D01*
%TO.C,R10*%
X113903641Y-46380000D02*
X113596359Y-46380000D01*
X113903641Y-45620000D02*
X113596359Y-45620000D01*
%TO.C,R7*%
X106120000Y-42653641D02*
X106120000Y-42346359D01*
X106880000Y-42653641D02*
X106880000Y-42346359D01*
%TO.C,Y1*%
X92850000Y-43100000D02*
X90150000Y-43100000D01*
X92850000Y-45400000D02*
X92850000Y-43100000D01*
%TO.C,C33*%
X94556726Y-47070147D02*
X94556726Y-46854475D01*
X95276726Y-47070147D02*
X95276726Y-46854475D01*
%TO.C,R16*%
X100380000Y-60846359D02*
X100380000Y-61153641D01*
X99620000Y-60846359D02*
X99620000Y-61153641D01*
%TO.C,C21*%
X91392164Y-65860000D02*
X91607836Y-65860000D01*
X91392164Y-65140000D02*
X91607836Y-65140000D01*
%TO.C,C14*%
X100357836Y-41390000D02*
X100142164Y-41390000D01*
X100357836Y-42110000D02*
X100142164Y-42110000D01*
%TO.C,R9*%
X86096359Y-43620000D02*
X86403641Y-43620000D01*
X86096359Y-44380000D02*
X86403641Y-44380000D01*
%TO.C,C11*%
X86392164Y-40390000D02*
X86607836Y-40390000D01*
X86392164Y-41110000D02*
X86607836Y-41110000D01*
%TO.C,D5*%
X101040000Y-59315000D02*
X101040000Y-62000000D01*
X102960000Y-59315000D02*
X101040000Y-59315000D01*
X102960000Y-62000000D02*
X102960000Y-59315000D01*
%TO.C,D4*%
X109040000Y-68937500D02*
X109040000Y-71622500D01*
X109040000Y-71622500D02*
X110960000Y-71622500D01*
X110960000Y-71622500D02*
X110960000Y-68937500D01*
%TO.C,C31*%
X85011252Y-47265000D02*
X84488748Y-47265000D01*
X85011252Y-48735000D02*
X84488748Y-48735000D01*
D15*
%TO.C,CR1*%
X105449400Y-63365000D02*
X105449400Y-64635000D01*
X105449400Y-64000000D02*
X106211400Y-63365000D01*
X105449400Y-64000000D02*
X106211400Y-63492000D01*
X105449400Y-64000000D02*
X106211400Y-63619000D01*
X105449400Y-64000000D02*
X106211400Y-63746000D01*
X105449400Y-64000000D02*
X106211400Y-63873000D01*
X105449400Y-64000000D02*
X106211400Y-64127000D01*
X105449400Y-64000000D02*
X106211400Y-64254000D01*
X105449400Y-64000000D02*
X106211400Y-64381000D01*
X105449400Y-64000000D02*
X106211400Y-64508000D01*
X105449400Y-64000000D02*
X106211400Y-64635000D01*
X106211400Y-63365000D02*
X106211400Y-64635000D01*
X106465400Y-64000000D02*
X105195400Y-64000000D01*
X107824300Y-61891800D02*
X107824300Y-62536960D01*
X107824300Y-65463040D02*
X107824300Y-66108200D01*
X107824300Y-66108200D02*
X112675700Y-66108200D01*
X112675700Y-61891800D02*
X107824300Y-61891800D01*
X112675700Y-62536960D02*
X112675700Y-61891800D01*
X112675700Y-66108200D02*
X112675700Y-65463040D01*
D14*
%TO.C,R8*%
X108120000Y-42653641D02*
X108120000Y-42346359D01*
X108880000Y-42653641D02*
X108880000Y-42346359D01*
%TO.C,C3*%
X109892164Y-67860000D02*
X110107836Y-67860000D01*
X109892164Y-67140000D02*
X110107836Y-67140000D01*
%TO.C,Y3*%
X94650000Y-68850000D02*
X94650000Y-71150000D01*
X94650000Y-71150000D02*
X97350000Y-71150000D01*
%TO.C,C20*%
X91392164Y-64360000D02*
X91607836Y-64360000D01*
X91392164Y-63640000D02*
X91607836Y-63640000D01*
%TO.C,R15*%
X95880000Y-60547459D02*
X95880000Y-60854741D01*
X95120000Y-60547459D02*
X95120000Y-60854741D01*
%TO.C,D6*%
X80185000Y-65710000D02*
X80185000Y-63790000D01*
X80185000Y-63790000D02*
X77500000Y-63790000D01*
X77500000Y-65710000D02*
X80185000Y-65710000D01*
%TO.C,R20*%
X78346359Y-63130000D02*
X78653641Y-63130000D01*
X78346359Y-62370000D02*
X78653641Y-62370000D01*
%TO.C,R11*%
X92346359Y-62120000D02*
X92653641Y-62120000D01*
X92346359Y-62880000D02*
X92653641Y-62880000D01*
D16*
%TO.C,FL1*%
X84589948Y-66510051D02*
G75*
G02*
X84389950Y-66510051I-99999J0D01*
G01*
X84389950Y-66510051D02*
G75*
G02*
X84589948Y-66510051I99999J0D01*
G01*
D15*
%TO.C,U2*%
X112796049Y-39351859D02*
X113558972Y-39686013D01*
X112929554Y-39047047D02*
X112796049Y-39351859D01*
X114161561Y-36234189D02*
X114028056Y-36539000D01*
X114924484Y-36568342D02*
X114161561Y-36234189D01*
X115150796Y-40383218D02*
X115913719Y-40717371D01*
X115913719Y-40717371D02*
X116047224Y-40412560D01*
X117145726Y-37904513D02*
X117279231Y-37599701D01*
X117279231Y-37599701D02*
X116516308Y-37265547D01*
D11*
G36*
X113732614Y-37150225D02*
G01*
X113579759Y-37499218D01*
X113347098Y-37397315D01*
X113499953Y-37048322D01*
X113732614Y-37150225D01*
G37*
D14*
%TO.C,R22*%
X86433859Y-59130000D02*
X86741141Y-59130000D01*
X86433859Y-58370000D02*
X86741141Y-58370000D01*
%TO.C,U10*%
X88390000Y-49789999D02*
X88390000Y-49380000D01*
X88390000Y-56360000D02*
X88390000Y-55710001D01*
X89039999Y-49140000D02*
X88690000Y-49140000D01*
X89039999Y-56360000D02*
X88390000Y-56360000D01*
X94960001Y-49140000D02*
X95610000Y-49140000D01*
X94960001Y-56360000D02*
X95610000Y-56360000D01*
X95610000Y-49140000D02*
X95610000Y-49789999D01*
X95610000Y-56360000D02*
X95610000Y-55710001D01*
X88390000Y-49140000D02*
X88150000Y-48810000D01*
X88630000Y-48810000D01*
X88390000Y-49140000D01*
G36*
X88390000Y-49140000D02*
G01*
X88150000Y-48810000D01*
X88630000Y-48810000D01*
X88390000Y-49140000D01*
G37*
%TO.C,D3*%
X103515000Y-69261252D02*
X103515000Y-68738748D01*
X104985000Y-69261252D02*
X104985000Y-68738748D01*
%TO.C,R17*%
X101903641Y-63120000D02*
X101596359Y-63120000D01*
X101903641Y-63880000D02*
X101596359Y-63880000D01*
%TO.C,R3*%
X106846359Y-71120000D02*
X107153641Y-71120000D01*
X106846359Y-71880000D02*
X107153641Y-71880000D01*
%TO.C,R13*%
X98880000Y-60547459D02*
X98880000Y-60854741D01*
X98120000Y-60547459D02*
X98120000Y-60854741D01*
%TO.C,R5*%
X120846359Y-58120000D02*
X121153641Y-58120000D01*
X120846359Y-58880000D02*
X121153641Y-58880000D01*
%TO.C,R6*%
X116846359Y-67870000D02*
X117153641Y-67870000D01*
X116846359Y-68630000D02*
X117153641Y-68630000D01*
%TO.C,C12*%
X89761252Y-38765000D02*
X89238748Y-38765000D01*
X89761252Y-40235000D02*
X89238748Y-40235000D01*
%TO.C,C30*%
X86607836Y-51140000D02*
X86392164Y-51140000D01*
X86607836Y-51860000D02*
X86392164Y-51860000D01*
%TO.C,D1*%
X115640000Y-49500000D02*
X115640000Y-51500000D01*
X115640000Y-49500000D02*
X119650000Y-49500000D01*
X115640000Y-51500000D02*
X119650000Y-51500000D01*
%TO.C,R12*%
X99380000Y-69846359D02*
X99380000Y-70153641D01*
X98620000Y-69846359D02*
X98620000Y-70153641D01*
D15*
%TO.C,ANT2*%
X75629100Y-49375800D02*
X75629100Y-49905152D01*
X75629100Y-51094846D02*
X75629100Y-51905153D01*
X75629100Y-53094847D02*
X75629100Y-53905154D01*
X75629100Y-55094848D02*
X75629100Y-55624200D01*
X75629100Y-55624200D02*
X79870900Y-55624200D01*
X79870900Y-49375800D02*
X75629100Y-49375800D01*
X79870900Y-49905152D02*
X79870900Y-49375800D01*
X79870900Y-51905153D02*
X79870900Y-51094846D01*
X79870900Y-53905154D02*
X79870900Y-53094847D01*
X79870900Y-55624200D02*
X79870900Y-55094848D01*
X80731200Y-54500000D02*
G75*
G02*
X80578800Y-54500000I-76200J0D01*
G01*
X80578800Y-54500000D02*
G75*
G02*
X80731200Y-54500000I76200J0D01*
G01*
%TO.C,U3*%
X82720754Y-37599740D02*
X82854263Y-37904550D01*
X83483670Y-37265573D02*
X82720754Y-37599740D01*
X83952810Y-40412577D02*
X84086320Y-40717386D01*
X84086320Y-40717386D02*
X84849238Y-40383220D01*
X85838400Y-36234174D02*
X85075482Y-36568340D01*
X85971910Y-36538983D02*
X85838400Y-36234174D01*
X86441050Y-39685987D02*
X87203966Y-39351820D01*
X87203966Y-39351820D02*
X87070457Y-39047010D01*
D11*
G36*
X83256044Y-38885142D02*
G01*
X83023385Y-38987050D01*
X82870523Y-38638060D01*
X83103182Y-38536151D01*
X83256044Y-38885142D01*
G37*
D14*
%TO.C,C13*%
X102015000Y-38738748D02*
X102015000Y-39261252D01*
X103485000Y-38738748D02*
X103485000Y-39261252D01*
%TO.C,C19*%
X89140000Y-44365835D02*
X89140000Y-44134165D01*
X89860000Y-44365835D02*
X89860000Y-44134165D01*
%TO.C,U4*%
X96941726Y-49987311D02*
X97201726Y-49987311D01*
X96941726Y-52712311D02*
X96941726Y-49987311D01*
X96941726Y-52712311D02*
X96941726Y-55437311D01*
X96941726Y-55437311D02*
X97201726Y-55437311D01*
X102391726Y-49987311D02*
X102131726Y-49987311D01*
X102391726Y-52712311D02*
X102391726Y-49987311D01*
X102391726Y-52712311D02*
X102391726Y-55437311D01*
X102391726Y-55437311D02*
X102131726Y-55437311D01*
X102461726Y-49444811D02*
X102131726Y-49204811D01*
X102461726Y-48964811D01*
X102461726Y-49444811D01*
G36*
X102461726Y-49444811D02*
G01*
X102131726Y-49204811D01*
X102461726Y-48964811D01*
X102461726Y-49444811D01*
G37*
%TO.C,C4*%
X113840000Y-54788748D02*
X113840000Y-56211252D01*
X115660000Y-54788748D02*
X115660000Y-56211252D01*
%TO.C,C18*%
X93140000Y-44134165D02*
X93140000Y-44365835D01*
X93860000Y-44134165D02*
X93860000Y-44365835D01*
%TO.C,C7*%
X119360000Y-67107836D02*
X119360000Y-66892164D01*
X118640000Y-67107836D02*
X118640000Y-66892164D01*
%TO.C,C6*%
X116892164Y-66390000D02*
X117107836Y-66390000D01*
X116892164Y-67110000D02*
X117107836Y-67110000D01*
%TO.C,C23*%
X99640000Y-69392164D02*
X99640000Y-69607836D01*
X100360000Y-69392164D02*
X100360000Y-69607836D01*
D11*
%TO.C,kibuzzard-668D7854*%
G36*
X107326653Y-60771030D02*
G01*
X107360487Y-60852861D01*
X107324293Y-60939413D01*
X107248756Y-60967740D01*
X107075652Y-60967740D01*
X107075652Y-60737983D01*
X107245609Y-60737983D01*
X107326653Y-60771030D01*
G37*
G36*
X108068385Y-60304913D02*
G01*
X108136185Y-60314970D01*
X108202674Y-60331625D01*
X108267210Y-60354716D01*
X108329172Y-60384022D01*
X108387963Y-60419260D01*
X108443017Y-60460091D01*
X108493803Y-60506121D01*
X108539834Y-60556908D01*
X108580665Y-60611962D01*
X108615903Y-60670753D01*
X108645208Y-60732715D01*
X108668300Y-60797251D01*
X108684954Y-60863739D01*
X108695011Y-60931540D01*
X108698375Y-61000000D01*
X108695011Y-61068460D01*
X108684954Y-61136261D01*
X108668300Y-61202749D01*
X108645208Y-61267285D01*
X108615903Y-61329247D01*
X108580665Y-61388038D01*
X108539834Y-61443092D01*
X108493803Y-61493879D01*
X108443017Y-61539909D01*
X108387963Y-61580740D01*
X108329172Y-61615978D01*
X108267210Y-61645284D01*
X108202674Y-61668375D01*
X108136185Y-61685030D01*
X108068385Y-61695087D01*
X107999925Y-61698450D01*
X107672075Y-61698450D01*
X107478513Y-61698450D01*
X106306124Y-61698450D01*
X105206124Y-61698450D01*
X104238313Y-61698450D01*
X104095108Y-61698450D01*
X103767259Y-61698450D01*
X103301625Y-61000000D01*
X103572822Y-60593205D01*
X104095108Y-60593205D01*
X104095108Y-61406795D01*
X104097469Y-61461087D01*
X104112419Y-61504363D01*
X104156482Y-61540558D01*
X104238313Y-61551574D01*
X104817426Y-61551574D01*
X104871718Y-61549213D01*
X104914994Y-61534263D01*
X104951188Y-61490200D01*
X104962204Y-61408369D01*
X104951188Y-61324964D01*
X104915781Y-61280901D01*
X104873291Y-61265951D01*
X104818999Y-61263591D01*
X104383091Y-61263591D01*
X104383091Y-61123534D01*
X104671074Y-61123534D01*
X104723005Y-61121173D01*
X104762347Y-61108584D01*
X104793034Y-61072389D01*
X104801689Y-61002361D01*
X104793034Y-60930758D01*
X104763134Y-60892990D01*
X104725366Y-60880401D01*
X104674221Y-60878040D01*
X104383091Y-60878040D01*
X104383091Y-60737983D01*
X104817426Y-60737983D01*
X104871718Y-60735622D01*
X104914994Y-60720672D01*
X104951188Y-60676609D01*
X104962204Y-60594778D01*
X104961996Y-60593205D01*
X105062919Y-60593205D01*
X105062919Y-61406795D01*
X105065280Y-61461087D01*
X105080230Y-61504363D01*
X105124293Y-61540558D01*
X105206124Y-61551574D01*
X105733306Y-61551574D01*
X105778155Y-61549213D01*
X105815924Y-61535837D01*
X105846610Y-61498069D01*
X105856052Y-61428827D01*
X105846610Y-61358011D01*
X105815924Y-61321030D01*
X105779729Y-61308441D01*
X105734879Y-61306080D01*
X105350902Y-61306080D01*
X105350902Y-61293491D01*
X105903263Y-61293491D01*
X105942605Y-61395780D01*
X105952047Y-61406795D01*
X105969357Y-61428827D01*
X105996896Y-61456366D01*
X106034665Y-61487053D01*
X106083449Y-61516953D01*
X106144035Y-61542918D01*
X106217998Y-61560229D01*
X106306124Y-61567310D01*
X106410773Y-61555508D01*
X106518570Y-61515379D01*
X106615351Y-61445351D01*
X106683806Y-61339127D01*
X106703871Y-61271066D01*
X106710559Y-61195923D01*
X106695806Y-61078290D01*
X106651546Y-60992918D01*
X106582501Y-60933119D01*
X106493391Y-60892203D01*
X106392676Y-60867811D01*
X106296682Y-60848140D01*
X106234522Y-60820601D01*
X106206982Y-60769456D01*
X106232161Y-60721459D01*
X106290387Y-60701788D01*
X106342318Y-60707296D01*
X106373005Y-60719099D01*
X106395037Y-60737196D01*
X106413134Y-60752146D01*
X106518570Y-60781259D01*
X106611417Y-60704936D01*
X106649185Y-60608155D01*
X106638735Y-60593205D01*
X106787669Y-60593205D01*
X106787669Y-61405222D01*
X106790029Y-61459514D01*
X106804979Y-61502790D01*
X106849042Y-61538984D01*
X106930873Y-61550000D01*
X107014278Y-61538984D01*
X107058341Y-61503577D01*
X107073291Y-61461087D01*
X107075652Y-61406795D01*
X107075652Y-61254149D01*
X107222004Y-61254149D01*
X107390387Y-61482332D01*
X107478513Y-61555508D01*
X107590244Y-61512232D01*
X107665781Y-61419385D01*
X107623291Y-61310801D01*
X107509987Y-61159728D01*
X107586922Y-61074050D01*
X107633083Y-60972286D01*
X107648470Y-60854435D01*
X107638635Y-60760998D01*
X107609128Y-60675823D01*
X107564082Y-60603237D01*
X107507626Y-60547568D01*
X107444286Y-60505866D01*
X107378585Y-60475179D01*
X107312687Y-60456295D01*
X107248756Y-60450000D01*
X106932447Y-60450000D01*
X106849042Y-60461016D01*
X106804979Y-60497210D01*
X106790029Y-60540486D01*
X106787669Y-60593205D01*
X106638735Y-60593205D01*
X106592533Y-60527110D01*
X106510877Y-60474654D01*
X106410686Y-60443181D01*
X106291961Y-60432690D01*
X106191071Y-60443268D01*
X106102420Y-60475004D01*
X106026009Y-60527897D01*
X105967434Y-60596876D01*
X105932288Y-60676872D01*
X105920573Y-60767883D01*
X105933162Y-60870172D01*
X105970931Y-60955150D01*
X106033878Y-61022818D01*
X106122004Y-61073176D01*
X106181607Y-61094617D01*
X106256553Y-61114878D01*
X106380087Y-61151860D01*
X106421002Y-61200644D01*
X106392676Y-61273820D01*
X106299829Y-61296638D01*
X106237669Y-61281688D01*
X106173935Y-61224249D01*
X106102945Y-61166897D01*
X106034752Y-61156406D01*
X105969357Y-61192775D01*
X105903263Y-61293491D01*
X105350902Y-61293491D01*
X105350902Y-60594778D01*
X105348542Y-60540486D01*
X105333592Y-60497210D01*
X105289529Y-60461016D01*
X105207698Y-60450000D01*
X105124293Y-60461016D01*
X105080230Y-60497210D01*
X105065280Y-60540486D01*
X105062919Y-60593205D01*
X104961996Y-60593205D01*
X104951188Y-60511373D01*
X104915781Y-60467310D01*
X104873291Y-60452361D01*
X104818999Y-60450000D01*
X104243034Y-60450000D01*
X104127368Y-60480687D01*
X104095108Y-60593205D01*
X103572822Y-60593205D01*
X103767259Y-60301550D01*
X104095108Y-60301550D01*
X107672075Y-60301550D01*
X107999925Y-60301550D01*
X108068385Y-60304913D01*
G37*
D14*
%TO.C,C15*%
X93640000Y-70115835D02*
X93640000Y-69884165D01*
X94360000Y-70115835D02*
X94360000Y-69884165D01*
%TO.C,C22*%
X86860000Y-70372164D02*
X86860000Y-70587836D01*
X86140000Y-70372164D02*
X86140000Y-70587836D01*
%TO.C,R2*%
X118846359Y-52880000D02*
X119153641Y-52880000D01*
X118846359Y-52120000D02*
X119153641Y-52120000D01*
%TO.C,C25*%
X103140000Y-55857836D02*
X103140000Y-55642164D01*
X103860000Y-55857836D02*
X103860000Y-55642164D01*
%TO.C,C16*%
X85360000Y-69912164D02*
X85360000Y-70127836D01*
X84640000Y-69912164D02*
X84640000Y-70127836D01*
%TO.C,D2*%
X102500000Y-47460000D02*
X105185000Y-47460000D01*
X105185000Y-45540000D02*
X102500000Y-45540000D01*
X105185000Y-47460000D02*
X105185000Y-45540000D01*
D15*
%TO.C,U8*%
X94345700Y-62845700D02*
X94345700Y-63290261D01*
X94345700Y-67709739D02*
X94345700Y-68154300D01*
X94345700Y-68154300D02*
X94790261Y-68154300D01*
X94790261Y-62845700D02*
X94345700Y-62845700D01*
X99209739Y-68154300D02*
X99654300Y-68154300D01*
X99654300Y-62845700D02*
X99209739Y-62845700D01*
X99654300Y-63290261D02*
X99654300Y-62845700D01*
X99654300Y-68154300D02*
X99654300Y-67709739D01*
D11*
G36*
X93913900Y-65440501D02*
G01*
X93659900Y-65440501D01*
X93659900Y-65059500D01*
X93913900Y-65059500D01*
X93913900Y-65440501D01*
G37*
G36*
X97940501Y-68840100D02*
G01*
X97559501Y-68840100D01*
X97559501Y-68586100D01*
X97940501Y-68586100D01*
X97940501Y-68840100D01*
G37*
G36*
X98440500Y-62413900D02*
G01*
X98059500Y-62413900D01*
X98059500Y-62159900D01*
X98440500Y-62159900D01*
X98440500Y-62413900D01*
G37*
D14*
%TO.C,C9*%
X113357836Y-40860000D02*
X113142164Y-40860000D01*
X113357836Y-40140000D02*
X113142164Y-40140000D01*
%TO.C,Y2*%
X87650000Y-69350000D02*
X87650000Y-71650000D01*
X87650000Y-71650000D02*
X90350000Y-71650000D01*
%TO.C,C26*%
X101642164Y-64640000D02*
X101857836Y-64640000D01*
X101642164Y-65360000D02*
X101857836Y-65360000D01*
%TO.C,C2*%
X105390000Y-64607836D02*
X105390000Y-64392164D01*
X106110000Y-64607836D02*
X106110000Y-64392164D01*
%TO.C,R18*%
X112380000Y-69846359D02*
X112380000Y-70153641D01*
X111620000Y-69846359D02*
X111620000Y-70153641D01*
%TO.C,R14*%
X97380000Y-60547459D02*
X97380000Y-60854741D01*
X96620000Y-60547459D02*
X96620000Y-60854741D01*
%TO.C,C1*%
X118892164Y-55860000D02*
X119107836Y-55860000D01*
X118892164Y-55140000D02*
X119107836Y-55140000D01*
%TO.C,C10*%
X110515000Y-38488748D02*
X110515000Y-39011252D01*
X111985000Y-38488748D02*
X111985000Y-39011252D01*
%TO.C,U6*%
X113940000Y-62000000D02*
X113940000Y-60050000D01*
X113940000Y-62000000D02*
X113940000Y-63950000D01*
X119060000Y-62000000D02*
X119060000Y-60050000D01*
X119060000Y-62000000D02*
X119060000Y-63950000D01*
X114035000Y-64700000D02*
X113705000Y-64940000D01*
X113705000Y-64460000D01*
X114035000Y-64700000D01*
G36*
X114035000Y-64700000D02*
G01*
X113705000Y-64940000D01*
X113705000Y-64460000D01*
X114035000Y-64700000D01*
G37*
D15*
%TO.C,U1*%
X98120399Y-40879600D02*
X101879600Y-40879601D01*
X98120400Y-37120399D02*
X98120399Y-40879600D01*
X101879600Y-40879601D02*
X101879601Y-37120400D01*
X101879601Y-37120400D02*
X98120400Y-37120399D01*
D11*
G36*
X100440500Y-37242401D02*
G01*
X100059499Y-37242401D01*
X100059499Y-36988401D01*
X100440500Y-36988401D01*
X100440500Y-37242401D01*
G37*
D15*
%TO.C,U9*%
X85328300Y-64078300D02*
X85328300Y-64540260D01*
X85328300Y-67959740D02*
X85328300Y-68421700D01*
X85328300Y-68421700D02*
X85790260Y-68421700D01*
X85790260Y-64078300D02*
X85328300Y-64078300D01*
X89209740Y-68421700D02*
X89671700Y-68421700D01*
X89671700Y-64078300D02*
X89209740Y-64078300D01*
X89671700Y-64540260D02*
X89671700Y-64078300D01*
X89671700Y-68421700D02*
X89671700Y-67959740D01*
D11*
G36*
X84896500Y-65690500D02*
G01*
X84642499Y-65690499D01*
X84642500Y-65309499D01*
X84896500Y-65309499D01*
X84896500Y-65690500D01*
G37*
G36*
X90357500Y-66190500D02*
G01*
X90103500Y-66190500D01*
X90103500Y-65809500D01*
X90357500Y-65809500D01*
X90357500Y-66190500D01*
G37*
D14*
%TO.C,C27*%
X104640000Y-55857836D02*
X104640000Y-55642164D01*
X105360000Y-55857836D02*
X105360000Y-55642164D01*
%TO.C,U7*%
X105440000Y-69000000D02*
X105440000Y-68200000D01*
X105440000Y-69000000D02*
X105440000Y-69800000D01*
X108560000Y-69000000D02*
X108560000Y-68200000D01*
X108560000Y-69000000D02*
X108560000Y-69800000D01*
X105490000Y-70300000D02*
X105160000Y-70540000D01*
X105160000Y-70060000D01*
X105490000Y-70300000D01*
G36*
X105490000Y-70300000D02*
G01*
X105160000Y-70540000D01*
X105160000Y-70060000D01*
X105490000Y-70300000D01*
G37*
%TO.C,C17*%
X88857836Y-63110000D02*
X88642164Y-63110000D01*
X88857836Y-62390000D02*
X88642164Y-62390000D01*
%TO.C,C24*%
X100765000Y-69738748D02*
X100765000Y-70261252D01*
X102235000Y-69738748D02*
X102235000Y-70261252D01*
%TO.C,L2*%
X86890000Y-48149800D02*
X86890000Y-48350200D01*
X87610000Y-48149800D02*
X87610000Y-48350200D01*
%TO.C,C28*%
X88390000Y-47107836D02*
X88390000Y-46892164D01*
X89110000Y-47107836D02*
X89110000Y-46892164D01*
%TO.C,TP1*%
X118200000Y-57250000D02*
G75*
G02*
X116800000Y-57250000I-700000J0D01*
G01*
X116800000Y-57250000D02*
G75*
G02*
X118200000Y-57250000I700000J0D01*
G01*
%TO.C,R21*%
X84596359Y-56370000D02*
X84903641Y-56370000D01*
X84596359Y-57130000D02*
X84903641Y-57130000D01*
%TO.C,R4*%
X120153641Y-57880000D02*
X119846359Y-57880000D01*
X120153641Y-57120000D02*
X119846359Y-57120000D01*
%TD*%
M02*
