%TF.GenerationSoftware,KiCad,Pcbnew,8.0.4*%
%TF.CreationDate,2024-09-21T01:35:51-04:00*%
%TF.ProjectId,DangerDoughnut,44616e67-6572-4446-9f75-67686e75742e,rev?*%
%TF.SameCoordinates,Original*%
%TF.FileFunction,Copper,L3,Inr*%
%TF.FilePolarity,Positive*%
%FSLAX46Y46*%
G04 Gerber Fmt 4.6, Leading zero omitted, Abs format (unit mm)*
G04 Created by KiCad (PCBNEW 8.0.4) date 2024-09-21 01:35:51*
%MOMM*%
%LPD*%
G01*
G04 APERTURE LIST*
%TA.AperFunction,HeatsinkPad*%
%ADD10C,0.500000*%
%TD*%
%TA.AperFunction,ComponentPad*%
%ADD11R,1.600000X1.600000*%
%TD*%
%TA.AperFunction,ComponentPad*%
%ADD12C,1.600000*%
%TD*%
%TA.AperFunction,ComponentPad*%
%ADD13R,1.308000X1.308000*%
%TD*%
%TA.AperFunction,ComponentPad*%
%ADD14C,1.308000*%
%TD*%
%TA.AperFunction,ComponentPad*%
%ADD15O,1.000000X1.800000*%
%TD*%
%TA.AperFunction,ComponentPad*%
%ADD16O,1.000000X2.100000*%
%TD*%
%TA.AperFunction,ComponentPad*%
%ADD17C,1.400000*%
%TD*%
%TA.AperFunction,ComponentPad*%
%ADD18R,3.500000X3.500000*%
%TD*%
%TA.AperFunction,ComponentPad*%
%ADD19C,3.500000*%
%TD*%
%TA.AperFunction,ViaPad*%
%ADD20C,0.600000*%
%TD*%
G04 APERTURE END LIST*
D10*
%TO.N,GND*%
%TO.C,U6*%
X115200000Y-62955000D03*
X116500000Y-62955000D03*
X117800000Y-62955000D03*
X115200000Y-61045000D03*
X116500000Y-61045000D03*
X117800000Y-61045000D03*
%TD*%
D11*
%TO.N,+5V*%
%TO.C,C8*%
X104000000Y-66500000D03*
D12*
%TO.N,GND*%
X101500000Y-66500000D03*
%TD*%
D13*
%TO.N,GND*%
%TO.C,J3*%
X83500000Y-46500000D03*
D14*
%TO.N,Net-(J3-Pin_2)*%
X83500000Y-44500000D03*
%TD*%
D11*
%TO.N,+BATT*%
%TO.C,C29*%
X109182380Y-59500000D03*
D12*
%TO.N,GND*%
X106682379Y-59500000D03*
%TD*%
D13*
%TO.N,GND*%
%TO.C,J2*%
X116500000Y-44500000D03*
D14*
%TO.N,Net-(J2-Pin_2)*%
X116500000Y-46500000D03*
%TD*%
D15*
%TO.N,unconnected-(J6-SHIELD-PadS1)_3*%
%TO.C,J6*%
X95680000Y-38600000D03*
D16*
%TO.N,unconnected-(J6-SHIELD-PadS1)_1*%
X95680000Y-42780000D03*
D15*
%TO.N,unconnected-(J6-SHIELD-PadS1)_2*%
X104320000Y-38600000D03*
D16*
%TO.N,unconnected-(J6-SHIELD-PadS1)*%
X104320000Y-42780000D03*
%TD*%
D13*
%TO.N,Net-(J4-Pin_1)*%
%TO.C,J4*%
X83500000Y-64500000D03*
D14*
%TO.N,Net-(J4-Pin_2)*%
X83500000Y-62500000D03*
%TO.N,+5V*%
X83500000Y-60500000D03*
%TO.N,GND*%
X83500000Y-58500000D03*
%TD*%
D17*
%TO.N,*%
%TO.C,J1*%
X121500000Y-62500000D03*
X121500000Y-51500000D03*
D18*
%TO.N,GND*%
X111500000Y-54500000D03*
D19*
%TO.N,+BATT*%
X111500000Y-59500000D03*
%TD*%
D20*
%TO.N,GND*%
X80250000Y-49250000D03*
X80250000Y-55750000D03*
X85900000Y-49600000D03*
X86700000Y-49600000D03*
X87500000Y-49600000D03*
X88250000Y-49500000D03*
X87250000Y-50750000D03*
X86500000Y-50750000D03*
X85750000Y-50750000D03*
X84250000Y-50000000D03*
X85000000Y-51250000D03*
X81000000Y-53500000D03*
X82750000Y-53250000D03*
X84500000Y-52000000D03*
X84000000Y-52500000D03*
X83500000Y-53000000D03*
X83500000Y-50500000D03*
X83000000Y-51000000D03*
X82500000Y-51500000D03*
X81750000Y-52000000D03*
X81000000Y-52250000D03*
X80250000Y-50000000D03*
X80250000Y-50750000D03*
X80250000Y-51500000D03*
X80250000Y-52250000D03*
X80250000Y-55000000D03*
X80250000Y-54250000D03*
X80250000Y-53500000D03*
%TO.N,/DCC_FB*%
X90468500Y-64000000D03*
X86749999Y-69500000D03*
%TO.N,GND*%
X107000000Y-70000000D03*
%TO.N,+5V*%
X118982404Y-57965498D03*
%TO.N,/DCDC_OUT*%
X113500000Y-67500000D03*
X114000000Y-68000000D03*
X115000000Y-68000000D03*
X114500000Y-67500000D03*
X115000000Y-67000000D03*
X114000000Y-67000000D03*
X113500000Y-66500000D03*
X114500000Y-66500000D03*
X114000000Y-66000000D03*
X115000000Y-66000000D03*
%TO.N,SPIWP*%
X99031726Y-49112311D03*
X99041726Y-54337311D03*
%TO.N,SPICLK*%
X99031726Y-56312311D03*
X97753300Y-53550000D03*
%TO.N,SPID*%
X96867461Y-52663046D03*
X97761726Y-56312311D03*
%TO.N,Net-(ANT1-Feed)*%
X82500000Y-69250000D03*
%TD*%
%TA.AperFunction,Conductor*%
%TO.N,GND*%
G36*
X122002777Y-36300655D02*
G01*
X122296701Y-36317162D01*
X122307724Y-36318404D01*
X122595224Y-36367252D01*
X122606018Y-36369715D01*
X122886251Y-36450449D01*
X122896722Y-36454113D01*
X123166134Y-36565708D01*
X123176136Y-36570525D01*
X123431354Y-36711578D01*
X123440755Y-36717485D01*
X123678575Y-36886228D01*
X123687254Y-36893149D01*
X123717388Y-36920078D01*
X123904697Y-37087467D01*
X123912532Y-37095302D01*
X124005649Y-37199500D01*
X124106850Y-37312745D01*
X124113771Y-37321424D01*
X124282514Y-37559244D01*
X124288421Y-37568645D01*
X124429474Y-37823863D01*
X124434291Y-37833865D01*
X124545884Y-38103273D01*
X124549551Y-38113752D01*
X124630280Y-38393966D01*
X124632750Y-38404790D01*
X124681594Y-38692270D01*
X124682837Y-38703302D01*
X124699344Y-38997222D01*
X124699500Y-39002773D01*
X124699500Y-39054158D01*
X124699503Y-39054211D01*
X124702300Y-69995316D01*
X124702300Y-69997226D01*
X124702144Y-70002777D01*
X124685620Y-70297011D01*
X124684377Y-70308043D01*
X124635480Y-70595832D01*
X124633010Y-70606656D01*
X124552194Y-70887172D01*
X124548527Y-70897651D01*
X124436814Y-71167349D01*
X124431997Y-71177351D01*
X124290792Y-71432843D01*
X124284885Y-71442244D01*
X124115960Y-71680320D01*
X124109039Y-71688999D01*
X123914520Y-71906669D01*
X123906669Y-71914520D01*
X123688999Y-72109039D01*
X123680320Y-72115960D01*
X123442244Y-72284885D01*
X123432843Y-72290792D01*
X123177351Y-72431997D01*
X123167349Y-72436814D01*
X122897651Y-72548527D01*
X122887172Y-72552194D01*
X122606656Y-72633010D01*
X122595832Y-72635480D01*
X122308043Y-72684377D01*
X122297011Y-72685620D01*
X122002778Y-72702144D01*
X121997227Y-72702300D01*
X121992454Y-72702300D01*
X78054505Y-72699502D01*
X78054471Y-72699500D01*
X78047595Y-72699500D01*
X78007584Y-72699500D01*
X78007562Y-72699499D01*
X78002749Y-72699499D01*
X77997219Y-72699343D01*
X77703302Y-72682837D01*
X77692270Y-72681594D01*
X77420858Y-72635480D01*
X77404788Y-72632749D01*
X77393966Y-72630280D01*
X77113752Y-72549551D01*
X77103273Y-72545884D01*
X76833865Y-72434291D01*
X76823863Y-72429474D01*
X76568645Y-72288421D01*
X76559244Y-72282514D01*
X76321424Y-72113771D01*
X76312745Y-72106850D01*
X76211695Y-72016547D01*
X76095302Y-71912532D01*
X76087467Y-71904697D01*
X75894708Y-71688999D01*
X75893149Y-71687254D01*
X75886228Y-71678575D01*
X75717485Y-71440755D01*
X75711578Y-71431354D01*
X75700676Y-71411629D01*
X75580610Y-71194383D01*
X75570525Y-71176136D01*
X75565708Y-71166134D01*
X75503977Y-71017102D01*
X75454113Y-70896722D01*
X75450448Y-70886247D01*
X75369715Y-70606018D01*
X75367252Y-70595224D01*
X75318404Y-70307724D01*
X75317162Y-70296697D01*
X75315612Y-70269103D01*
X75300656Y-70002777D01*
X75300578Y-69999997D01*
X76194451Y-69999997D01*
X76194451Y-70000002D01*
X76214616Y-70269098D01*
X76214618Y-70269107D01*
X76274666Y-70532197D01*
X76313623Y-70631455D01*
X76373257Y-70783398D01*
X76508185Y-71017102D01*
X76508189Y-71017108D01*
X76508191Y-71017110D01*
X76676434Y-71228081D01*
X76676440Y-71228087D01*
X76874252Y-71411629D01*
X76874254Y-71411630D01*
X76874259Y-71411635D01*
X77097226Y-71563651D01*
X77340359Y-71680738D01*
X77598228Y-71760280D01*
X77865071Y-71800500D01*
X77865076Y-71800500D01*
X78134924Y-71800500D01*
X78134929Y-71800500D01*
X78401772Y-71760280D01*
X78659641Y-71680738D01*
X78902775Y-71563651D01*
X79125741Y-71411635D01*
X79323561Y-71228085D01*
X79323565Y-71228081D01*
X79446641Y-71073748D01*
X79491815Y-71017102D01*
X79626743Y-70783398D01*
X79725334Y-70532195D01*
X79785383Y-70269103D01*
X79805549Y-70000000D01*
X79801981Y-69952393D01*
X79794734Y-69855682D01*
X79785383Y-69730897D01*
X79725334Y-69467805D01*
X79639851Y-69249999D01*
X81894318Y-69249999D01*
X81894318Y-69250000D01*
X81914955Y-69406758D01*
X81914957Y-69406766D01*
X81975462Y-69552838D01*
X81975462Y-69552839D01*
X81975464Y-69552841D01*
X82071718Y-69678282D01*
X82197159Y-69774536D01*
X82343238Y-69835044D01*
X82460809Y-69850522D01*
X82499999Y-69855682D01*
X82500000Y-69855682D01*
X82500001Y-69855682D01*
X82531352Y-69851554D01*
X82656762Y-69835044D01*
X82802841Y-69774536D01*
X82928282Y-69678282D01*
X83024536Y-69552841D01*
X83046424Y-69499999D01*
X86144317Y-69499999D01*
X86144317Y-69500000D01*
X86164954Y-69656758D01*
X86164956Y-69656766D01*
X86225461Y-69802838D01*
X86225461Y-69802839D01*
X86250173Y-69835044D01*
X86321717Y-69928282D01*
X86447158Y-70024536D01*
X86447159Y-70024536D01*
X86447160Y-70024537D01*
X86593232Y-70085042D01*
X86593237Y-70085044D01*
X86710808Y-70100522D01*
X86749998Y-70105682D01*
X86749999Y-70105682D01*
X86750000Y-70105682D01*
X86781351Y-70101554D01*
X86906761Y-70085044D01*
X87052840Y-70024536D01*
X87084820Y-69999997D01*
X120194451Y-69999997D01*
X120194451Y-70000002D01*
X120214616Y-70269098D01*
X120214618Y-70269107D01*
X120274666Y-70532197D01*
X120313623Y-70631455D01*
X120373257Y-70783398D01*
X120508185Y-71017102D01*
X120508189Y-71017108D01*
X120508191Y-71017110D01*
X120676434Y-71228081D01*
X120676440Y-71228087D01*
X120874252Y-71411629D01*
X120874254Y-71411630D01*
X120874259Y-71411635D01*
X121097226Y-71563651D01*
X121340359Y-71680738D01*
X121598228Y-71760280D01*
X121865071Y-71800500D01*
X121865076Y-71800500D01*
X122134924Y-71800500D01*
X122134929Y-71800500D01*
X122401772Y-71760280D01*
X122659641Y-71680738D01*
X122902775Y-71563651D01*
X123125741Y-71411635D01*
X123323561Y-71228085D01*
X123323565Y-71228081D01*
X123446641Y-71073748D01*
X123491815Y-71017102D01*
X123626743Y-70783398D01*
X123725334Y-70532195D01*
X123785383Y-70269103D01*
X123805549Y-70000000D01*
X123801981Y-69952393D01*
X123794734Y-69855682D01*
X123785383Y-69730897D01*
X123725334Y-69467805D01*
X123626743Y-69216602D01*
X123491815Y-68982898D01*
X123463314Y-68947159D01*
X123323565Y-68771918D01*
X123323559Y-68771912D01*
X123125747Y-68588370D01*
X123125744Y-68588368D01*
X123125741Y-68588365D01*
X122902775Y-68436349D01*
X122886024Y-68428282D01*
X122659643Y-68319262D01*
X122401776Y-68239721D01*
X122401773Y-68239720D01*
X122401772Y-68239720D01*
X122401767Y-68239719D01*
X122401766Y-68239719D01*
X122134932Y-68199500D01*
X122134929Y-68199500D01*
X121865071Y-68199500D01*
X121865067Y-68199500D01*
X121598233Y-68239719D01*
X121598223Y-68239721D01*
X121340358Y-68319262D01*
X121097233Y-68436345D01*
X121097229Y-68436347D01*
X121097226Y-68436349D01*
X120967878Y-68524537D01*
X120874252Y-68588370D01*
X120676440Y-68771912D01*
X120676434Y-68771918D01*
X120508191Y-68982889D01*
X120508187Y-68982894D01*
X120508185Y-68982898D01*
X120473614Y-69042778D01*
X120373258Y-69216599D01*
X120373254Y-69216608D01*
X120274666Y-69467802D01*
X120214618Y-69730892D01*
X120214616Y-69730901D01*
X120194451Y-69999997D01*
X87084820Y-69999997D01*
X87178281Y-69928282D01*
X87274535Y-69802841D01*
X87335043Y-69656762D01*
X87355681Y-69500000D01*
X87335043Y-69343238D01*
X87335041Y-69343233D01*
X87274536Y-69197161D01*
X87274536Y-69197160D01*
X87178285Y-69071723D01*
X87178284Y-69071722D01*
X87178281Y-69071718D01*
X87178276Y-69071714D01*
X87178275Y-69071713D01*
X87052837Y-68975462D01*
X86906765Y-68914957D01*
X86906757Y-68914955D01*
X86750000Y-68894318D01*
X86749998Y-68894318D01*
X86593240Y-68914955D01*
X86593232Y-68914957D01*
X86447160Y-68975462D01*
X86447159Y-68975462D01*
X86321722Y-69071713D01*
X86321712Y-69071723D01*
X86225461Y-69197160D01*
X86225461Y-69197161D01*
X86164956Y-69343233D01*
X86164954Y-69343241D01*
X86144317Y-69499999D01*
X83046424Y-69499999D01*
X83085044Y-69406762D01*
X83105682Y-69250000D01*
X83085044Y-69093238D01*
X83024537Y-68947161D01*
X83024537Y-68947160D01*
X82928286Y-68821723D01*
X82928285Y-68821722D01*
X82928282Y-68821718D01*
X82928277Y-68821714D01*
X82928276Y-68821713D01*
X82802838Y-68725462D01*
X82656766Y-68664957D01*
X82656758Y-68664955D01*
X82500001Y-68644318D01*
X82499999Y-68644318D01*
X82343241Y-68664955D01*
X82343233Y-68664957D01*
X82197161Y-68725462D01*
X82197160Y-68725462D01*
X82071723Y-68821713D01*
X82071713Y-68821723D01*
X81975462Y-68947160D01*
X81975462Y-68947161D01*
X81914957Y-69093233D01*
X81914955Y-69093241D01*
X81894318Y-69249999D01*
X79639851Y-69249999D01*
X79626743Y-69216602D01*
X79491815Y-68982898D01*
X79463314Y-68947159D01*
X79323565Y-68771918D01*
X79323559Y-68771912D01*
X79125747Y-68588370D01*
X79125744Y-68588368D01*
X79125741Y-68588365D01*
X78902775Y-68436349D01*
X78886024Y-68428282D01*
X78659643Y-68319262D01*
X78401776Y-68239721D01*
X78401773Y-68239720D01*
X78401772Y-68239720D01*
X78401767Y-68239719D01*
X78401766Y-68239719D01*
X78134932Y-68199500D01*
X78134929Y-68199500D01*
X77865071Y-68199500D01*
X77865067Y-68199500D01*
X77598233Y-68239719D01*
X77598223Y-68239721D01*
X77340358Y-68319262D01*
X77097233Y-68436345D01*
X77097229Y-68436347D01*
X77097226Y-68436349D01*
X76967878Y-68524537D01*
X76874252Y-68588370D01*
X76676440Y-68771912D01*
X76676434Y-68771918D01*
X76508191Y-68982889D01*
X76508187Y-68982894D01*
X76508185Y-68982898D01*
X76473614Y-69042778D01*
X76373258Y-69216599D01*
X76373254Y-69216608D01*
X76274666Y-69467802D01*
X76214618Y-69730892D01*
X76214616Y-69730901D01*
X76194451Y-69999997D01*
X75300578Y-69999997D01*
X75300500Y-69997226D01*
X75300500Y-65935931D01*
X80749500Y-65935931D01*
X80749500Y-66064069D01*
X80767938Y-66156762D01*
X80774499Y-66189742D01*
X80774500Y-66189747D01*
X80823534Y-66308125D01*
X80823538Y-66308133D01*
X80866365Y-66372226D01*
X80894724Y-66414669D01*
X80985331Y-66505276D01*
X81048848Y-66547717D01*
X81091866Y-66576461D01*
X81091870Y-66576463D01*
X81091873Y-66576465D01*
X81210256Y-66625501D01*
X81335931Y-66650500D01*
X81335932Y-66650500D01*
X81464068Y-66650500D01*
X81464069Y-66650500D01*
X81589744Y-66625501D01*
X81708127Y-66576465D01*
X81814669Y-66505276D01*
X81819945Y-66500000D01*
X100395287Y-66500000D01*
X100414097Y-66702989D01*
X100469887Y-66899070D01*
X100560751Y-67081551D01*
X100562532Y-67083911D01*
X101100000Y-66546443D01*
X101100000Y-66552661D01*
X101127259Y-66654394D01*
X101179920Y-66745606D01*
X101254394Y-66820080D01*
X101345606Y-66872741D01*
X101447339Y-66900000D01*
X101453553Y-66900000D01*
X100919312Y-67434241D01*
X101007581Y-67488895D01*
X101007586Y-67488898D01*
X101197683Y-67562541D01*
X101398070Y-67600000D01*
X101601930Y-67600000D01*
X101802316Y-67562541D01*
X101992415Y-67488897D01*
X101992416Y-67488897D01*
X102080686Y-67434241D01*
X101546445Y-66900000D01*
X101552661Y-66900000D01*
X101654394Y-66872741D01*
X101745606Y-66820080D01*
X101820080Y-66745606D01*
X101872741Y-66654394D01*
X101900000Y-66552661D01*
X101900000Y-66546445D01*
X102437466Y-67083911D01*
X102439245Y-67081556D01*
X102439249Y-67081549D01*
X102530112Y-66899070D01*
X102585902Y-66702989D01*
X102604712Y-66500000D01*
X102585902Y-66297010D01*
X102530112Y-66100929D01*
X102439249Y-65918450D01*
X102439244Y-65918441D01*
X102437466Y-65916087D01*
X101900000Y-66453553D01*
X101900000Y-66447339D01*
X101872741Y-66345606D01*
X101820080Y-66254394D01*
X101745606Y-66179920D01*
X101654394Y-66127259D01*
X101552661Y-66100000D01*
X101546443Y-66100000D01*
X101991313Y-65655130D01*
X102899500Y-65655130D01*
X102899500Y-67344860D01*
X102899501Y-67344863D01*
X102902414Y-67369990D01*
X102927756Y-67427385D01*
X102947794Y-67472765D01*
X103027235Y-67552206D01*
X103130009Y-67597585D01*
X103155135Y-67600500D01*
X104844864Y-67600499D01*
X104869991Y-67597585D01*
X104972765Y-67552206D01*
X105052206Y-67472765D01*
X105097585Y-67369991D01*
X105100500Y-67344865D01*
X105100499Y-66499999D01*
X112894318Y-66499999D01*
X112894318Y-66500000D01*
X112914955Y-66656758D01*
X112914957Y-66656766D01*
X112975462Y-66802838D01*
X112975462Y-66802839D01*
X113071719Y-66928284D01*
X113073437Y-66930002D01*
X113074225Y-66931550D01*
X113075668Y-66933430D01*
X113075319Y-66933697D01*
X113101210Y-66984521D01*
X113091634Y-67044952D01*
X113073437Y-67069998D01*
X113071719Y-67071715D01*
X112975462Y-67197160D01*
X112975462Y-67197161D01*
X112914957Y-67343233D01*
X112914955Y-67343241D01*
X112894318Y-67499999D01*
X112894318Y-67500000D01*
X112914955Y-67656758D01*
X112914957Y-67656766D01*
X112975462Y-67802838D01*
X112975462Y-67802839D01*
X113071713Y-67928276D01*
X113071718Y-67928282D01*
X113197159Y-68024536D01*
X113343238Y-68085044D01*
X113343246Y-68085045D01*
X113344581Y-68085403D01*
X113345421Y-68085948D01*
X113349232Y-68087527D01*
X113348939Y-68088232D01*
X113395899Y-68118722D01*
X113412271Y-68150851D01*
X113412473Y-68150768D01*
X113413532Y-68153326D01*
X113414594Y-68155409D01*
X113414957Y-68156767D01*
X113475462Y-68302838D01*
X113475462Y-68302839D01*
X113475464Y-68302841D01*
X113571718Y-68428282D01*
X113697159Y-68524536D01*
X113843238Y-68585044D01*
X113960809Y-68600522D01*
X113999999Y-68605682D01*
X114000000Y-68605682D01*
X114000001Y-68605682D01*
X114031352Y-68601554D01*
X114156762Y-68585044D01*
X114302841Y-68524536D01*
X114428282Y-68428282D01*
X114428288Y-68428273D01*
X114429996Y-68426567D01*
X114431547Y-68425776D01*
X114433430Y-68424332D01*
X114433697Y-68424680D01*
X114484513Y-68398790D01*
X114544945Y-68408361D01*
X114570004Y-68426567D01*
X114571713Y-68428276D01*
X114571718Y-68428282D01*
X114697159Y-68524536D01*
X114843238Y-68585044D01*
X114960809Y-68600522D01*
X114999999Y-68605682D01*
X115000000Y-68605682D01*
X115000001Y-68605682D01*
X115031352Y-68601554D01*
X115156762Y-68585044D01*
X115302841Y-68524536D01*
X115428282Y-68428282D01*
X115524536Y-68302841D01*
X115585044Y-68156762D01*
X115605682Y-68000000D01*
X115585044Y-67843238D01*
X115524537Y-67697161D01*
X115524537Y-67697160D01*
X115428286Y-67571723D01*
X115428285Y-67571722D01*
X115428282Y-67571718D01*
X115428277Y-67571714D01*
X115426567Y-67570004D01*
X115425776Y-67568452D01*
X115424332Y-67566570D01*
X115424680Y-67566302D01*
X115398790Y-67515487D01*
X115408361Y-67455055D01*
X115426567Y-67429996D01*
X115428273Y-67428288D01*
X115428282Y-67428282D01*
X115524536Y-67302841D01*
X115585044Y-67156762D01*
X115605682Y-67000000D01*
X115585044Y-66843238D01*
X115568310Y-66802838D01*
X115524537Y-66697161D01*
X115524537Y-66697160D01*
X115428286Y-66571723D01*
X115428285Y-66571722D01*
X115428282Y-66571718D01*
X115428277Y-66571714D01*
X115426567Y-66570004D01*
X115425776Y-66568452D01*
X115424332Y-66566570D01*
X115424680Y-66566302D01*
X115398790Y-66515487D01*
X115408361Y-66455055D01*
X115426567Y-66429996D01*
X115428273Y-66428288D01*
X115428282Y-66428282D01*
X115524536Y-66302841D01*
X115585044Y-66156762D01*
X115605682Y-66000000D01*
X115585044Y-65843238D01*
X115524537Y-65697161D01*
X115524537Y-65697160D01*
X115428286Y-65571723D01*
X115428285Y-65571722D01*
X115428282Y-65571718D01*
X115428277Y-65571714D01*
X115428276Y-65571713D01*
X115302838Y-65475462D01*
X115156766Y-65414957D01*
X115156758Y-65414955D01*
X115000001Y-65394318D01*
X114999999Y-65394318D01*
X114843241Y-65414955D01*
X114843233Y-65414957D01*
X114697161Y-65475462D01*
X114697160Y-65475462D01*
X114571715Y-65571719D01*
X114569998Y-65573437D01*
X114568449Y-65574225D01*
X114566570Y-65575668D01*
X114566302Y-65575319D01*
X114515479Y-65601210D01*
X114455048Y-65591634D01*
X114430002Y-65573437D01*
X114428284Y-65571719D01*
X114302838Y-65475462D01*
X114156766Y-65414957D01*
X114156758Y-65414955D01*
X114000001Y-65394318D01*
X113999999Y-65394318D01*
X113843241Y-65414955D01*
X113843233Y-65414957D01*
X113697161Y-65475462D01*
X113697160Y-65475462D01*
X113571723Y-65571713D01*
X113571713Y-65571723D01*
X113475462Y-65697160D01*
X113475462Y-65697161D01*
X113414956Y-65843235D01*
X113414593Y-65844593D01*
X113414045Y-65845436D01*
X113412473Y-65849232D01*
X113411769Y-65848940D01*
X113381268Y-65895906D01*
X113349148Y-65912271D01*
X113349232Y-65912473D01*
X113346675Y-65913532D01*
X113344593Y-65914593D01*
X113343235Y-65914956D01*
X113197161Y-65975462D01*
X113197160Y-65975462D01*
X113071723Y-66071713D01*
X113071713Y-66071723D01*
X112975462Y-66197160D01*
X112975462Y-66197161D01*
X112914957Y-66343233D01*
X112914955Y-66343241D01*
X112894318Y-66499999D01*
X105100499Y-66499999D01*
X105100499Y-65655136D01*
X105097585Y-65630009D01*
X105052206Y-65527235D01*
X104972765Y-65447794D01*
X104869991Y-65402415D01*
X104869990Y-65402414D01*
X104869988Y-65402414D01*
X104844868Y-65399500D01*
X103155139Y-65399500D01*
X103155136Y-65399501D01*
X103130009Y-65402414D01*
X103027235Y-65447794D01*
X102947794Y-65527235D01*
X102902414Y-65630011D01*
X102899500Y-65655130D01*
X101991313Y-65655130D01*
X102080686Y-65565757D01*
X101992418Y-65511104D01*
X101992413Y-65511101D01*
X101802316Y-65437458D01*
X101601930Y-65400000D01*
X101398070Y-65400000D01*
X101197683Y-65437458D01*
X101007586Y-65511101D01*
X101007584Y-65511102D01*
X100919312Y-65565757D01*
X101453555Y-66100000D01*
X101447339Y-66100000D01*
X101345606Y-66127259D01*
X101254394Y-66179920D01*
X101179920Y-66254394D01*
X101127259Y-66345606D01*
X101100000Y-66447339D01*
X101100000Y-66453554D01*
X100562533Y-65916087D01*
X100560753Y-65918445D01*
X100560750Y-65918449D01*
X100469887Y-66100929D01*
X100414097Y-66297010D01*
X100395287Y-66500000D01*
X81819945Y-66500000D01*
X81905276Y-66414669D01*
X81976465Y-66308127D01*
X82025501Y-66189744D01*
X82050500Y-66064069D01*
X82050500Y-65935931D01*
X82025501Y-65810256D01*
X81976465Y-65691873D01*
X81976463Y-65691870D01*
X81976461Y-65691866D01*
X81935129Y-65630009D01*
X81905276Y-65585331D01*
X81814669Y-65494724D01*
X81772226Y-65466365D01*
X81708133Y-65423538D01*
X81708125Y-65423534D01*
X81589747Y-65374500D01*
X81589745Y-65374499D01*
X81589744Y-65374499D01*
X81464069Y-65349500D01*
X81335931Y-65349500D01*
X81335930Y-65349500D01*
X81273093Y-65361999D01*
X81210256Y-65374499D01*
X81210255Y-65374499D01*
X81210252Y-65374500D01*
X81091874Y-65423534D01*
X81091866Y-65423538D01*
X80985331Y-65494724D01*
X80985327Y-65494727D01*
X80894727Y-65585327D01*
X80894724Y-65585331D01*
X80823538Y-65691866D01*
X80823534Y-65691874D01*
X80774500Y-65810252D01*
X80774499Y-65810257D01*
X80753745Y-65914593D01*
X80749500Y-65935931D01*
X75300500Y-65935931D01*
X75300500Y-60499995D01*
X82540882Y-60499995D01*
X82540882Y-60500004D01*
X82559309Y-60687109D01*
X82559310Y-60687112D01*
X82559311Y-60687115D01*
X82613891Y-60867039D01*
X82613894Y-60867044D01*
X82613895Y-60867047D01*
X82702520Y-61032854D01*
X82821796Y-61178193D01*
X82821801Y-61178199D01*
X82821806Y-61178203D01*
X82967145Y-61297479D01*
X83104925Y-61371123D01*
X83132961Y-61386109D01*
X83196103Y-61405263D01*
X83246299Y-61440248D01*
X83266345Y-61498057D01*
X83248584Y-61556607D01*
X83199799Y-61593536D01*
X83196109Y-61594734D01*
X83157150Y-61606553D01*
X83132968Y-61613889D01*
X83132961Y-61613891D01*
X83132958Y-61613892D01*
X83132952Y-61613895D01*
X82967145Y-61702520D01*
X82821806Y-61821796D01*
X82821796Y-61821806D01*
X82702520Y-61967145D01*
X82613895Y-62132952D01*
X82613890Y-62132964D01*
X82559310Y-62312887D01*
X82559309Y-62312890D01*
X82540882Y-62499995D01*
X82540882Y-62500004D01*
X82559309Y-62687109D01*
X82559310Y-62687112D01*
X82559311Y-62687115D01*
X82613891Y-62867039D01*
X82613894Y-62867044D01*
X82613895Y-62867047D01*
X82702520Y-63032854D01*
X82778922Y-63125950D01*
X82821801Y-63178199D01*
X82821806Y-63178203D01*
X82967145Y-63297479D01*
X83082599Y-63359190D01*
X83125006Y-63403295D01*
X83133389Y-63463903D01*
X83104547Y-63517864D01*
X83049496Y-63544566D01*
X83035931Y-63545500D01*
X82801139Y-63545500D01*
X82801136Y-63545501D01*
X82776009Y-63548414D01*
X82673235Y-63593794D01*
X82593794Y-63673235D01*
X82548414Y-63776011D01*
X82545500Y-63801130D01*
X82545500Y-65198860D01*
X82545501Y-65198863D01*
X82548414Y-65223990D01*
X82573756Y-65281385D01*
X82593794Y-65326765D01*
X82673235Y-65406206D01*
X82776009Y-65451585D01*
X82801135Y-65454500D01*
X84198864Y-65454499D01*
X84223991Y-65451585D01*
X84326765Y-65406206D01*
X84406206Y-65326765D01*
X84451585Y-65223991D01*
X84454500Y-65198865D01*
X84454499Y-63999999D01*
X89862818Y-63999999D01*
X89862818Y-64000000D01*
X89883455Y-64156758D01*
X89883457Y-64156766D01*
X89943962Y-64302838D01*
X89943962Y-64302839D01*
X89943964Y-64302841D01*
X90040218Y-64428282D01*
X90165659Y-64524536D01*
X90311738Y-64585044D01*
X90429309Y-64600522D01*
X90468499Y-64605682D01*
X90468500Y-64605682D01*
X90468501Y-64605682D01*
X90499852Y-64601554D01*
X90625262Y-64585044D01*
X90771341Y-64524536D01*
X90896782Y-64428282D01*
X90993036Y-64302841D01*
X91053544Y-64156762D01*
X91074182Y-64000000D01*
X91053544Y-63843238D01*
X90993037Y-63697161D01*
X90993037Y-63697160D01*
X90896786Y-63571723D01*
X90896785Y-63571722D01*
X90896782Y-63571718D01*
X90896777Y-63571714D01*
X90896776Y-63571713D01*
X90816018Y-63509746D01*
X90776605Y-63479503D01*
X115029047Y-63479503D01*
X115029048Y-63479504D01*
X115056418Y-63490841D01*
X115056423Y-63490843D01*
X115200000Y-63509746D01*
X115343577Y-63490843D01*
X115370950Y-63479504D01*
X115370949Y-63479503D01*
X116329047Y-63479503D01*
X116329048Y-63479504D01*
X116356418Y-63490841D01*
X116356423Y-63490843D01*
X116500000Y-63509746D01*
X116643577Y-63490843D01*
X116670950Y-63479504D01*
X116670949Y-63479503D01*
X117629047Y-63479503D01*
X117629048Y-63479504D01*
X117656418Y-63490841D01*
X117656423Y-63490843D01*
X117800000Y-63509746D01*
X117943577Y-63490843D01*
X117970950Y-63479504D01*
X117799999Y-63308553D01*
X117629047Y-63479503D01*
X116670949Y-63479503D01*
X116499999Y-63308553D01*
X116329047Y-63479503D01*
X115370949Y-63479503D01*
X115199999Y-63308553D01*
X115029047Y-63479503D01*
X90776605Y-63479503D01*
X90771341Y-63475464D01*
X90771340Y-63475463D01*
X90771338Y-63475462D01*
X90625266Y-63414957D01*
X90625258Y-63414955D01*
X90468501Y-63394318D01*
X90468499Y-63394318D01*
X90311741Y-63414955D01*
X90311733Y-63414957D01*
X90165661Y-63475462D01*
X90165660Y-63475462D01*
X90040223Y-63571713D01*
X90040213Y-63571723D01*
X89943962Y-63697160D01*
X89943962Y-63697161D01*
X89883457Y-63843233D01*
X89883455Y-63843241D01*
X89862818Y-63999999D01*
X84454499Y-63999999D01*
X84454499Y-63801136D01*
X84451585Y-63776009D01*
X84406206Y-63673235D01*
X84326765Y-63593794D01*
X84223991Y-63548415D01*
X84223990Y-63548414D01*
X84223988Y-63548414D01*
X84198869Y-63545500D01*
X83964069Y-63545500D01*
X83905878Y-63526593D01*
X83869914Y-63477093D01*
X83869914Y-63415907D01*
X83905878Y-63366407D01*
X83917401Y-63359190D01*
X84032854Y-63297479D01*
X84032855Y-63297477D01*
X84032857Y-63297477D01*
X84178199Y-63178199D01*
X84297477Y-63032857D01*
X84339093Y-62954999D01*
X114645254Y-62954999D01*
X114645254Y-62955000D01*
X114664156Y-63098577D01*
X114675495Y-63125950D01*
X114846446Y-62955000D01*
X114826555Y-62935109D01*
X115100000Y-62935109D01*
X115100000Y-62974891D01*
X115115224Y-63011645D01*
X115143355Y-63039776D01*
X115180109Y-63055000D01*
X115219891Y-63055000D01*
X115256645Y-63039776D01*
X115284776Y-63011645D01*
X115300000Y-62974891D01*
X115300000Y-62954999D01*
X115553553Y-62954999D01*
X115724504Y-63125950D01*
X115735843Y-63098577D01*
X115751847Y-62977020D01*
X115760358Y-62959175D01*
X115757645Y-62950824D01*
X115939641Y-62950824D01*
X115948153Y-62977020D01*
X115964156Y-63098577D01*
X115975495Y-63125950D01*
X116146446Y-62955000D01*
X116126555Y-62935109D01*
X116400000Y-62935109D01*
X116400000Y-62974891D01*
X116415224Y-63011645D01*
X116443355Y-63039776D01*
X116480109Y-63055000D01*
X116519891Y-63055000D01*
X116556645Y-63039776D01*
X116584776Y-63011645D01*
X116600000Y-62974891D01*
X116600000Y-62954999D01*
X116853553Y-62954999D01*
X117024504Y-63125950D01*
X117035843Y-63098577D01*
X117051847Y-62977020D01*
X117060358Y-62959175D01*
X117057645Y-62950824D01*
X117239641Y-62950824D01*
X117248153Y-62977020D01*
X117264156Y-63098577D01*
X117275495Y-63125950D01*
X117446446Y-62955000D01*
X117426555Y-62935109D01*
X117700000Y-62935109D01*
X117700000Y-62974891D01*
X117715224Y-63011645D01*
X117743355Y-63039776D01*
X117780109Y-63055000D01*
X117819891Y-63055000D01*
X117856645Y-63039776D01*
X117884776Y-63011645D01*
X117900000Y-62974891D01*
X117900000Y-62954999D01*
X118153553Y-62954999D01*
X118324504Y-63125950D01*
X118335843Y-63098577D01*
X118354746Y-62955000D01*
X118354746Y-62954999D01*
X118335843Y-62811423D01*
X118335841Y-62811418D01*
X118324504Y-62784048D01*
X118324503Y-62784047D01*
X118153553Y-62954999D01*
X117900000Y-62954999D01*
X117900000Y-62935109D01*
X117884776Y-62898355D01*
X117856645Y-62870224D01*
X117819891Y-62855000D01*
X117780109Y-62855000D01*
X117743355Y-62870224D01*
X117715224Y-62898355D01*
X117700000Y-62935109D01*
X117426555Y-62935109D01*
X117275494Y-62784048D01*
X117264157Y-62811420D01*
X117264156Y-62811421D01*
X117248153Y-62932980D01*
X117239641Y-62950824D01*
X117057645Y-62950824D01*
X117051847Y-62932980D01*
X117035843Y-62811423D01*
X117035841Y-62811418D01*
X117024504Y-62784048D01*
X117024503Y-62784047D01*
X116853553Y-62954999D01*
X116600000Y-62954999D01*
X116600000Y-62935109D01*
X116584776Y-62898355D01*
X116556645Y-62870224D01*
X116519891Y-62855000D01*
X116480109Y-62855000D01*
X116443355Y-62870224D01*
X116415224Y-62898355D01*
X116400000Y-62935109D01*
X116126555Y-62935109D01*
X115975494Y-62784048D01*
X115964157Y-62811420D01*
X115964156Y-62811421D01*
X115948153Y-62932980D01*
X115939641Y-62950824D01*
X115757645Y-62950824D01*
X115751847Y-62932980D01*
X115735843Y-62811423D01*
X115735841Y-62811418D01*
X115724504Y-62784048D01*
X115724503Y-62784047D01*
X115553553Y-62954999D01*
X115300000Y-62954999D01*
X115300000Y-62935109D01*
X115284776Y-62898355D01*
X115256645Y-62870224D01*
X115219891Y-62855000D01*
X115180109Y-62855000D01*
X115143355Y-62870224D01*
X115115224Y-62898355D01*
X115100000Y-62935109D01*
X114826555Y-62935109D01*
X114675494Y-62784048D01*
X114664157Y-62811420D01*
X114664156Y-62811421D01*
X114645254Y-62954999D01*
X84339093Y-62954999D01*
X84386109Y-62867039D01*
X84440689Y-62687115D01*
X84459118Y-62500000D01*
X84459118Y-62499995D01*
X84452273Y-62430494D01*
X115029048Y-62430494D01*
X115200000Y-62601446D01*
X115370950Y-62430495D01*
X115370948Y-62430494D01*
X116329048Y-62430494D01*
X116500000Y-62601446D01*
X116670950Y-62430495D01*
X116670948Y-62430494D01*
X117629048Y-62430494D01*
X117800000Y-62601446D01*
X117901449Y-62499996D01*
X120494659Y-62499996D01*
X120494659Y-62500003D01*
X120513974Y-62696126D01*
X120513975Y-62696129D01*
X120571187Y-62884730D01*
X120571188Y-62884732D01*
X120639025Y-63011645D01*
X120664090Y-63058538D01*
X120664092Y-63058540D01*
X120664093Y-63058542D01*
X120789112Y-63210878D01*
X120789121Y-63210887D01*
X120941457Y-63335906D01*
X120941462Y-63335910D01*
X121035378Y-63386109D01*
X121089346Y-63414956D01*
X121115273Y-63428814D01*
X121303868Y-63486024D01*
X121303870Y-63486024D01*
X121303873Y-63486025D01*
X121499997Y-63505341D01*
X121500000Y-63505341D01*
X121500003Y-63505341D01*
X121696126Y-63486025D01*
X121696127Y-63486024D01*
X121696132Y-63486024D01*
X121884727Y-63428814D01*
X122058538Y-63335910D01*
X122210883Y-63210883D01*
X122335910Y-63058538D01*
X122428814Y-62884727D01*
X122486024Y-62696132D01*
X122486913Y-62687112D01*
X122505341Y-62500003D01*
X122505341Y-62499996D01*
X122486025Y-62303873D01*
X122486024Y-62303870D01*
X122486024Y-62303868D01*
X122428814Y-62115273D01*
X122335910Y-61941462D01*
X122335906Y-61941457D01*
X122210887Y-61789121D01*
X122210878Y-61789112D01*
X122058542Y-61664093D01*
X122058540Y-61664092D01*
X122058538Y-61664090D01*
X121964630Y-61613895D01*
X121884732Y-61571188D01*
X121884730Y-61571187D01*
X121845580Y-61559311D01*
X121696132Y-61513976D01*
X121696129Y-61513975D01*
X121696126Y-61513974D01*
X121500003Y-61494659D01*
X121499997Y-61494659D01*
X121303873Y-61513974D01*
X121303870Y-61513975D01*
X121115269Y-61571187D01*
X121115267Y-61571188D01*
X120941467Y-61664087D01*
X120941457Y-61664093D01*
X120789121Y-61789112D01*
X120789112Y-61789121D01*
X120664093Y-61941457D01*
X120664087Y-61941467D01*
X120571188Y-62115267D01*
X120571187Y-62115269D01*
X120513975Y-62303870D01*
X120513974Y-62303873D01*
X120494659Y-62499996D01*
X117901449Y-62499996D01*
X117970950Y-62430495D01*
X117943576Y-62419156D01*
X117943579Y-62419156D01*
X117800000Y-62400254D01*
X117656421Y-62419156D01*
X117656420Y-62419157D01*
X117629048Y-62430494D01*
X116670948Y-62430494D01*
X116643576Y-62419156D01*
X116643579Y-62419156D01*
X116500000Y-62400254D01*
X116356421Y-62419156D01*
X116356420Y-62419157D01*
X116329048Y-62430494D01*
X115370948Y-62430494D01*
X115343576Y-62419156D01*
X115343579Y-62419156D01*
X115200000Y-62400254D01*
X115056421Y-62419156D01*
X115056420Y-62419157D01*
X115029048Y-62430494D01*
X84452273Y-62430494D01*
X84440690Y-62312890D01*
X84440689Y-62312887D01*
X84440689Y-62312885D01*
X84386109Y-62132961D01*
X84371123Y-62104925D01*
X84297479Y-61967145D01*
X84178203Y-61821806D01*
X84178199Y-61821801D01*
X84138367Y-61789112D01*
X84032854Y-61702520D01*
X83867047Y-61613895D01*
X83867044Y-61613893D01*
X83867039Y-61613891D01*
X83867034Y-61613889D01*
X83867033Y-61613889D01*
X83803897Y-61594737D01*
X83767691Y-61569503D01*
X115029047Y-61569503D01*
X115029048Y-61569504D01*
X115056418Y-61580841D01*
X115056423Y-61580843D01*
X115200000Y-61599746D01*
X115343577Y-61580843D01*
X115370950Y-61569504D01*
X115370949Y-61569503D01*
X116329047Y-61569503D01*
X116329048Y-61569504D01*
X116356418Y-61580841D01*
X116356423Y-61580843D01*
X116500000Y-61599746D01*
X116643577Y-61580843D01*
X116670950Y-61569504D01*
X116670949Y-61569503D01*
X117629047Y-61569503D01*
X117629048Y-61569504D01*
X117656418Y-61580841D01*
X117656423Y-61580843D01*
X117800000Y-61599746D01*
X117943577Y-61580843D01*
X117970950Y-61569504D01*
X117799999Y-61398553D01*
X117629047Y-61569503D01*
X116670949Y-61569503D01*
X116499999Y-61398553D01*
X116329047Y-61569503D01*
X115370949Y-61569503D01*
X115199999Y-61398553D01*
X115029047Y-61569503D01*
X83767691Y-61569503D01*
X83753700Y-61559752D01*
X83733654Y-61501944D01*
X83751415Y-61443393D01*
X83800200Y-61406464D01*
X83803897Y-61405263D01*
X83867039Y-61386109D01*
X83981629Y-61324859D01*
X84032854Y-61297479D01*
X84032855Y-61297477D01*
X84032857Y-61297477D01*
X84178199Y-61178199D01*
X84297477Y-61032857D01*
X84301619Y-61025109D01*
X84367731Y-60901421D01*
X84386109Y-60867039D01*
X84440689Y-60687115D01*
X84445093Y-60642407D01*
X84459118Y-60500004D01*
X84459118Y-60499995D01*
X84440690Y-60312890D01*
X84440689Y-60312887D01*
X84440689Y-60312885D01*
X84386109Y-60132961D01*
X84358629Y-60081549D01*
X84297479Y-59967145D01*
X84178203Y-59821806D01*
X84178199Y-59821801D01*
X84127091Y-59779858D01*
X84032854Y-59702520D01*
X83867047Y-59613895D01*
X83867044Y-59613894D01*
X83867039Y-59613891D01*
X83827165Y-59601795D01*
X83803035Y-59594475D01*
X83752839Y-59559489D01*
X83732794Y-59501680D01*
X83733304Y-59500000D01*
X105577666Y-59500000D01*
X105596476Y-59702989D01*
X105652266Y-59899070D01*
X105743130Y-60081551D01*
X105744911Y-60083911D01*
X106282379Y-59546443D01*
X106282379Y-59552661D01*
X106309638Y-59654394D01*
X106362299Y-59745606D01*
X106436773Y-59820080D01*
X106527985Y-59872741D01*
X106629718Y-59900000D01*
X106635932Y-59900000D01*
X106101691Y-60434241D01*
X106189960Y-60488895D01*
X106189965Y-60488898D01*
X106380062Y-60562541D01*
X106580449Y-60600000D01*
X106784309Y-60600000D01*
X106984695Y-60562541D01*
X107174794Y-60488897D01*
X107174795Y-60488897D01*
X107263065Y-60434241D01*
X106728824Y-59900000D01*
X106735040Y-59900000D01*
X106836773Y-59872741D01*
X106927985Y-59820080D01*
X107002459Y-59745606D01*
X107055120Y-59654394D01*
X107082379Y-59552661D01*
X107082379Y-59546445D01*
X107619845Y-60083911D01*
X107621624Y-60081556D01*
X107621628Y-60081549D01*
X107712491Y-59899070D01*
X107768281Y-59702989D01*
X107787091Y-59500000D01*
X107768281Y-59297010D01*
X107712491Y-59100929D01*
X107621628Y-58918450D01*
X107621623Y-58918441D01*
X107619845Y-58916087D01*
X107082379Y-59453553D01*
X107082379Y-59447339D01*
X107055120Y-59345606D01*
X107002459Y-59254394D01*
X106927985Y-59179920D01*
X106836773Y-59127259D01*
X106735040Y-59100000D01*
X106728822Y-59100000D01*
X107173692Y-58655130D01*
X108081880Y-58655130D01*
X108081880Y-60344860D01*
X108081881Y-60344863D01*
X108084794Y-60369990D01*
X108110136Y-60427385D01*
X108130174Y-60472765D01*
X108209615Y-60552206D01*
X108312389Y-60597585D01*
X108337515Y-60600500D01*
X109715634Y-60600499D01*
X109773825Y-60619406D01*
X109796513Y-60642407D01*
X109905684Y-60797064D01*
X109905688Y-60797069D01*
X110084336Y-60988355D01*
X110097155Y-61002081D01*
X110313625Y-61178193D01*
X110314754Y-61179111D01*
X110540323Y-61316282D01*
X110554427Y-61324859D01*
X110554439Y-61324866D01*
X110811715Y-61436616D01*
X110811717Y-61436616D01*
X110811725Y-61436620D01*
X111081839Y-61512303D01*
X111359742Y-61550500D01*
X111359748Y-61550500D01*
X111640252Y-61550500D01*
X111640258Y-61550500D01*
X111918161Y-61512303D01*
X112188275Y-61436620D01*
X112304561Y-61386110D01*
X112445560Y-61324866D01*
X112445563Y-61324863D01*
X112445568Y-61324862D01*
X112685246Y-61179111D01*
X112850092Y-61044999D01*
X114645254Y-61044999D01*
X114645254Y-61045000D01*
X114664156Y-61188577D01*
X114675495Y-61215950D01*
X114846446Y-61045000D01*
X114826555Y-61025109D01*
X115100000Y-61025109D01*
X115100000Y-61064891D01*
X115115224Y-61101645D01*
X115143355Y-61129776D01*
X115180109Y-61145000D01*
X115219891Y-61145000D01*
X115256645Y-61129776D01*
X115284776Y-61101645D01*
X115300000Y-61064891D01*
X115300000Y-61044999D01*
X115553553Y-61044999D01*
X115724504Y-61215950D01*
X115735843Y-61188577D01*
X115751847Y-61067020D01*
X115760358Y-61049175D01*
X115757645Y-61040824D01*
X115939641Y-61040824D01*
X115948153Y-61067020D01*
X115964156Y-61188577D01*
X115975495Y-61215950D01*
X116146446Y-61045000D01*
X116126555Y-61025109D01*
X116400000Y-61025109D01*
X116400000Y-61064891D01*
X116415224Y-61101645D01*
X116443355Y-61129776D01*
X116480109Y-61145000D01*
X116519891Y-61145000D01*
X116556645Y-61129776D01*
X116584776Y-61101645D01*
X116600000Y-61064891D01*
X116600000Y-61044999D01*
X116853553Y-61044999D01*
X117024504Y-61215950D01*
X117035843Y-61188577D01*
X117051847Y-61067020D01*
X117060358Y-61049175D01*
X117057645Y-61040824D01*
X117239641Y-61040824D01*
X117248153Y-61067020D01*
X117264156Y-61188577D01*
X117275495Y-61215950D01*
X117446446Y-61045000D01*
X117426555Y-61025109D01*
X117700000Y-61025109D01*
X117700000Y-61064891D01*
X117715224Y-61101645D01*
X117743355Y-61129776D01*
X117780109Y-61145000D01*
X117819891Y-61145000D01*
X117856645Y-61129776D01*
X117884776Y-61101645D01*
X117900000Y-61064891D01*
X117900000Y-61044999D01*
X118153553Y-61044999D01*
X118324504Y-61215950D01*
X118335843Y-61188577D01*
X118354746Y-61045000D01*
X118354746Y-61044999D01*
X118335843Y-60901423D01*
X118335841Y-60901418D01*
X118324504Y-60874048D01*
X118324503Y-60874047D01*
X118153553Y-61044999D01*
X117900000Y-61044999D01*
X117900000Y-61025109D01*
X117884776Y-60988355D01*
X117856645Y-60960224D01*
X117819891Y-60945000D01*
X117780109Y-60945000D01*
X117743355Y-60960224D01*
X117715224Y-60988355D01*
X117700000Y-61025109D01*
X117426555Y-61025109D01*
X117275494Y-60874048D01*
X117264157Y-60901420D01*
X117264156Y-60901421D01*
X117248153Y-61022980D01*
X117239641Y-61040824D01*
X117057645Y-61040824D01*
X117051847Y-61022980D01*
X117035843Y-60901423D01*
X117035841Y-60901418D01*
X117024504Y-60874048D01*
X117024503Y-60874047D01*
X116853553Y-61044999D01*
X116600000Y-61044999D01*
X116600000Y-61025109D01*
X116584776Y-60988355D01*
X116556645Y-60960224D01*
X116519891Y-60945000D01*
X116480109Y-60945000D01*
X116443355Y-60960224D01*
X116415224Y-60988355D01*
X116400000Y-61025109D01*
X116126555Y-61025109D01*
X115975494Y-60874048D01*
X115964157Y-60901420D01*
X115964156Y-60901421D01*
X115948153Y-61022980D01*
X115939641Y-61040824D01*
X115757645Y-61040824D01*
X115751847Y-61022980D01*
X115735843Y-60901423D01*
X115735841Y-60901418D01*
X115724504Y-60874048D01*
X115724503Y-60874047D01*
X115553553Y-61044999D01*
X115300000Y-61044999D01*
X115300000Y-61025109D01*
X115284776Y-60988355D01*
X115256645Y-60960224D01*
X115219891Y-60945000D01*
X115180109Y-60945000D01*
X115143355Y-60960224D01*
X115115224Y-60988355D01*
X115100000Y-61025109D01*
X114826555Y-61025109D01*
X114675494Y-60874048D01*
X114664157Y-60901420D01*
X114664156Y-60901421D01*
X114645254Y-61044999D01*
X112850092Y-61044999D01*
X112902845Y-61002081D01*
X113094312Y-60797069D01*
X113256081Y-60567896D01*
X113280643Y-60520494D01*
X115029048Y-60520494D01*
X115200000Y-60691446D01*
X115370950Y-60520495D01*
X115370948Y-60520494D01*
X116329048Y-60520494D01*
X116500000Y-60691446D01*
X116670950Y-60520495D01*
X116670948Y-60520494D01*
X117629048Y-60520494D01*
X117800000Y-60691446D01*
X117970950Y-60520495D01*
X117943576Y-60509156D01*
X117943579Y-60509156D01*
X117800000Y-60490254D01*
X117656421Y-60509156D01*
X117656420Y-60509157D01*
X117629048Y-60520494D01*
X116670948Y-60520494D01*
X116643576Y-60509156D01*
X116643579Y-60509156D01*
X116500000Y-60490254D01*
X116356421Y-60509156D01*
X116356420Y-60509157D01*
X116329048Y-60520494D01*
X115370948Y-60520494D01*
X115343576Y-60509156D01*
X115343579Y-60509156D01*
X115200000Y-60490254D01*
X115056421Y-60509156D01*
X115056420Y-60509157D01*
X115029048Y-60520494D01*
X113280643Y-60520494D01*
X113385136Y-60318830D01*
X113479075Y-60054511D01*
X113536148Y-59779862D01*
X113555291Y-59500000D01*
X113536148Y-59220138D01*
X113489523Y-58995771D01*
X113479076Y-58945493D01*
X113469465Y-58918449D01*
X113385136Y-58681170D01*
X113256081Y-58432104D01*
X113094312Y-58202931D01*
X112902845Y-57997919D01*
X112902844Y-57997918D01*
X112862993Y-57965497D01*
X118376722Y-57965497D01*
X118376722Y-57965498D01*
X118397359Y-58122256D01*
X118397361Y-58122264D01*
X118457866Y-58268336D01*
X118457866Y-58268337D01*
X118526354Y-58357592D01*
X118554122Y-58393780D01*
X118679563Y-58490034D01*
X118679564Y-58490034D01*
X118679565Y-58490035D01*
X118730430Y-58511104D01*
X118825642Y-58550542D01*
X118941212Y-58565757D01*
X118982403Y-58571180D01*
X118982404Y-58571180D01*
X118982405Y-58571180D01*
X119023596Y-58565757D01*
X119139166Y-58550542D01*
X119285245Y-58490034D01*
X119410686Y-58393780D01*
X119506940Y-58268339D01*
X119567448Y-58122260D01*
X119588086Y-57965498D01*
X119567448Y-57808736D01*
X119506941Y-57662659D01*
X119506941Y-57662658D01*
X119410690Y-57537221D01*
X119410689Y-57537220D01*
X119410686Y-57537216D01*
X119410681Y-57537212D01*
X119410680Y-57537211D01*
X119285242Y-57440960D01*
X119139170Y-57380455D01*
X119139162Y-57380453D01*
X118982405Y-57359816D01*
X118982403Y-57359816D01*
X118825645Y-57380453D01*
X118825637Y-57380455D01*
X118679565Y-57440960D01*
X118679564Y-57440960D01*
X118554127Y-57537211D01*
X118554117Y-57537221D01*
X118457866Y-57662658D01*
X118457866Y-57662659D01*
X118397361Y-57808731D01*
X118397359Y-57808739D01*
X118376722Y-57965497D01*
X112862993Y-57965497D01*
X112685255Y-57820896D01*
X112685252Y-57820894D01*
X112685246Y-57820889D01*
X112595947Y-57766585D01*
X112445572Y-57675140D01*
X112445560Y-57675133D01*
X112188284Y-57563383D01*
X112188276Y-57563380D01*
X112188275Y-57563380D01*
X111980901Y-57505276D01*
X111918162Y-57487697D01*
X111848685Y-57478147D01*
X111640258Y-57449500D01*
X111359742Y-57449500D01*
X111220790Y-57468598D01*
X111081837Y-57487697D01*
X110811728Y-57563379D01*
X110811715Y-57563383D01*
X110554439Y-57675133D01*
X110554427Y-57675140D01*
X110314760Y-57820885D01*
X110314744Y-57820896D01*
X110097155Y-57997918D01*
X109905684Y-58202935D01*
X109796515Y-58357592D01*
X109747510Y-58394228D01*
X109715635Y-58399500D01*
X108337519Y-58399500D01*
X108337516Y-58399501D01*
X108312389Y-58402414D01*
X108209615Y-58447794D01*
X108130174Y-58527235D01*
X108084794Y-58630011D01*
X108081880Y-58655130D01*
X107173692Y-58655130D01*
X107263065Y-58565757D01*
X107174797Y-58511104D01*
X107174792Y-58511101D01*
X106984695Y-58437458D01*
X106784309Y-58400000D01*
X106580449Y-58400000D01*
X106380062Y-58437458D01*
X106189965Y-58511101D01*
X106189963Y-58511102D01*
X106101691Y-58565757D01*
X106635934Y-59100000D01*
X106629718Y-59100000D01*
X106527985Y-59127259D01*
X106436773Y-59179920D01*
X106362299Y-59254394D01*
X106309638Y-59345606D01*
X106282379Y-59447339D01*
X106282379Y-59453554D01*
X105744912Y-58916087D01*
X105743132Y-58918445D01*
X105743129Y-58918449D01*
X105652266Y-59100929D01*
X105596476Y-59297010D01*
X105577666Y-59500000D01*
X83733304Y-59500000D01*
X83750556Y-59443130D01*
X83799341Y-59406202D01*
X83803038Y-59405001D01*
X83866844Y-59385646D01*
X83866851Y-59385643D01*
X83974532Y-59328086D01*
X83546446Y-58900000D01*
X83552661Y-58900000D01*
X83654394Y-58872741D01*
X83745606Y-58820080D01*
X83820080Y-58745606D01*
X83872741Y-58654394D01*
X83900000Y-58552661D01*
X83900000Y-58546446D01*
X84328086Y-58974532D01*
X84385643Y-58866851D01*
X84385645Y-58866846D01*
X84440196Y-58687017D01*
X84440197Y-58687012D01*
X84458616Y-58500003D01*
X84458616Y-58499996D01*
X84440197Y-58312987D01*
X84440196Y-58312982D01*
X84385645Y-58133153D01*
X84385643Y-58133148D01*
X84328086Y-58025466D01*
X83900000Y-58453552D01*
X83900000Y-58447339D01*
X83872741Y-58345606D01*
X83820080Y-58254394D01*
X83745606Y-58179920D01*
X83654394Y-58127259D01*
X83552661Y-58100000D01*
X83546445Y-58100000D01*
X83974533Y-57671912D01*
X83866851Y-57614356D01*
X83866846Y-57614354D01*
X83687017Y-57559803D01*
X83687012Y-57559802D01*
X83500003Y-57541384D01*
X83499997Y-57541384D01*
X83312987Y-57559802D01*
X83312982Y-57559803D01*
X83133160Y-57614352D01*
X83133149Y-57614356D01*
X83025466Y-57671913D01*
X83453553Y-58100000D01*
X83447339Y-58100000D01*
X83345606Y-58127259D01*
X83254394Y-58179920D01*
X83179920Y-58254394D01*
X83127259Y-58345606D01*
X83100000Y-58447339D01*
X83100000Y-58453553D01*
X82671913Y-58025466D01*
X82614356Y-58133149D01*
X82614352Y-58133160D01*
X82559803Y-58312982D01*
X82559802Y-58312987D01*
X82541384Y-58499996D01*
X82541384Y-58500003D01*
X82559802Y-58687012D01*
X82559803Y-58687017D01*
X82614354Y-58866846D01*
X82614356Y-58866851D01*
X82671912Y-58974533D01*
X83100000Y-58546445D01*
X83100000Y-58552661D01*
X83127259Y-58654394D01*
X83179920Y-58745606D01*
X83254394Y-58820080D01*
X83345606Y-58872741D01*
X83447339Y-58900000D01*
X83453552Y-58900000D01*
X83025466Y-59328086D01*
X83133148Y-59385643D01*
X83133155Y-59385646D01*
X83196961Y-59405001D01*
X83247158Y-59439985D01*
X83267205Y-59497793D01*
X83249444Y-59556344D01*
X83200660Y-59593273D01*
X83196964Y-59594475D01*
X83152897Y-59607843D01*
X83132961Y-59613891D01*
X83132958Y-59613892D01*
X83132952Y-59613895D01*
X82967145Y-59702520D01*
X82821806Y-59821796D01*
X82821796Y-59821806D01*
X82702520Y-59967145D01*
X82613895Y-60132952D01*
X82613890Y-60132964D01*
X82559310Y-60312887D01*
X82559309Y-60312890D01*
X82540882Y-60499995D01*
X75300500Y-60499995D01*
X75300500Y-56935930D01*
X80749500Y-56935930D01*
X80749500Y-57064069D01*
X80774499Y-57189742D01*
X80774500Y-57189747D01*
X80823534Y-57308125D01*
X80823538Y-57308133D01*
X80858072Y-57359816D01*
X80894724Y-57414669D01*
X80985331Y-57505276D01*
X81039371Y-57541384D01*
X81091866Y-57576461D01*
X81091870Y-57576463D01*
X81091873Y-57576465D01*
X81210256Y-57625501D01*
X81335931Y-57650500D01*
X81335932Y-57650500D01*
X81464068Y-57650500D01*
X81464069Y-57650500D01*
X81589744Y-57625501D01*
X81708127Y-57576465D01*
X81814669Y-57505276D01*
X81905276Y-57414669D01*
X81976465Y-57308127D01*
X82025501Y-57189744D01*
X82050500Y-57064069D01*
X82050500Y-56935931D01*
X82025501Y-56810256D01*
X81976465Y-56691873D01*
X81976463Y-56691870D01*
X81976461Y-56691866D01*
X81947717Y-56648848D01*
X81905276Y-56585331D01*
X81814669Y-56494724D01*
X81772226Y-56466365D01*
X81708133Y-56423538D01*
X81708125Y-56423534D01*
X81589747Y-56374500D01*
X81589745Y-56374499D01*
X81589744Y-56374499D01*
X81464069Y-56349500D01*
X81335931Y-56349500D01*
X81335930Y-56349500D01*
X81273093Y-56361999D01*
X81210256Y-56374499D01*
X81210255Y-56374499D01*
X81210252Y-56374500D01*
X81091874Y-56423534D01*
X81091866Y-56423538D01*
X80985331Y-56494724D01*
X80985327Y-56494727D01*
X80894727Y-56585327D01*
X80894724Y-56585331D01*
X80823538Y-56691866D01*
X80823534Y-56691874D01*
X80774500Y-56810252D01*
X80774499Y-56810257D01*
X80749500Y-56935930D01*
X75300500Y-56935930D01*
X75300500Y-56312310D01*
X97156044Y-56312310D01*
X97156044Y-56312311D01*
X97176681Y-56469069D01*
X97176683Y-56469077D01*
X97237188Y-56615149D01*
X97237188Y-56615150D01*
X97333439Y-56740587D01*
X97333444Y-56740593D01*
X97458885Y-56836847D01*
X97604964Y-56897355D01*
X97722535Y-56912833D01*
X97761725Y-56917993D01*
X97761726Y-56917993D01*
X97761727Y-56917993D01*
X97793078Y-56913865D01*
X97918488Y-56897355D01*
X98064567Y-56836847D01*
X98190008Y-56740593D01*
X98286262Y-56615152D01*
X98305262Y-56569283D01*
X98344998Y-56522757D01*
X98404493Y-56508473D01*
X98461021Y-56531888D01*
X98488190Y-56569283D01*
X98507188Y-56615149D01*
X98507188Y-56615150D01*
X98603439Y-56740587D01*
X98603444Y-56740593D01*
X98728885Y-56836847D01*
X98874964Y-56897355D01*
X98992535Y-56912833D01*
X99031725Y-56917993D01*
X99031726Y-56917993D01*
X99031727Y-56917993D01*
X99063078Y-56913865D01*
X99188488Y-56897355D01*
X99334567Y-56836847D01*
X99460008Y-56740593D01*
X99556262Y-56615152D01*
X99616770Y-56469073D01*
X99637408Y-56312311D01*
X99635101Y-56294791D01*
X99616770Y-56155552D01*
X99616770Y-56155549D01*
X99556263Y-56009472D01*
X99556263Y-56009471D01*
X99460012Y-55884034D01*
X99460011Y-55884033D01*
X99460008Y-55884029D01*
X99460003Y-55884025D01*
X99460002Y-55884024D01*
X99334564Y-55787773D01*
X99188492Y-55727268D01*
X99188484Y-55727266D01*
X99031727Y-55706629D01*
X99031725Y-55706629D01*
X98874967Y-55727266D01*
X98874959Y-55727268D01*
X98728887Y-55787773D01*
X98728886Y-55787773D01*
X98603449Y-55884024D01*
X98603439Y-55884034D01*
X98507189Y-56009471D01*
X98488190Y-56055339D01*
X98448453Y-56101865D01*
X98388958Y-56116148D01*
X98332430Y-56092733D01*
X98305262Y-56055339D01*
X98295837Y-56032588D01*
X98286262Y-56009470D01*
X98190008Y-55884029D01*
X98190003Y-55884025D01*
X98190002Y-55884024D01*
X98064564Y-55787773D01*
X97918492Y-55727268D01*
X97918484Y-55727266D01*
X97761727Y-55706629D01*
X97761725Y-55706629D01*
X97604967Y-55727266D01*
X97604959Y-55727268D01*
X97458887Y-55787773D01*
X97458886Y-55787773D01*
X97333449Y-55884024D01*
X97333439Y-55884034D01*
X97237188Y-56009471D01*
X97237188Y-56009472D01*
X97176683Y-56155544D01*
X97176681Y-56155552D01*
X97156044Y-56312310D01*
X75300500Y-56312310D01*
X75300500Y-54337310D01*
X98436044Y-54337310D01*
X98436044Y-54337311D01*
X98456681Y-54494069D01*
X98456683Y-54494077D01*
X98517188Y-54640149D01*
X98517188Y-54640150D01*
X98613439Y-54765587D01*
X98613444Y-54765593D01*
X98738885Y-54861847D01*
X98884964Y-54922355D01*
X99002535Y-54937833D01*
X99041725Y-54942993D01*
X99041726Y-54942993D01*
X99041727Y-54942993D01*
X99073078Y-54938865D01*
X99198488Y-54922355D01*
X99344567Y-54861847D01*
X99470008Y-54765593D01*
X99566262Y-54640152D01*
X99626770Y-54494073D01*
X99647408Y-54337311D01*
X99626770Y-54180549D01*
X99566263Y-54034472D01*
X99566263Y-54034471D01*
X99470012Y-53909034D01*
X99470011Y-53909033D01*
X99470008Y-53909029D01*
X99470003Y-53909025D01*
X99470002Y-53909024D01*
X99344564Y-53812773D01*
X99198492Y-53752268D01*
X99198484Y-53752266D01*
X99041727Y-53731629D01*
X99041725Y-53731629D01*
X98884967Y-53752266D01*
X98884959Y-53752268D01*
X98738887Y-53812773D01*
X98738886Y-53812773D01*
X98613449Y-53909024D01*
X98613439Y-53909034D01*
X98517188Y-54034471D01*
X98517188Y-54034472D01*
X98456683Y-54180544D01*
X98456681Y-54180552D01*
X98436044Y-54337310D01*
X75300500Y-54337310D01*
X75300500Y-52663045D01*
X96261779Y-52663045D01*
X96261779Y-52663046D01*
X96282416Y-52819804D01*
X96282418Y-52819812D01*
X96342923Y-52965884D01*
X96342923Y-52965885D01*
X96439174Y-53091322D01*
X96439179Y-53091328D01*
X96564620Y-53187582D01*
X96564621Y-53187582D01*
X96564622Y-53187583D01*
X96708451Y-53247159D01*
X96710699Y-53248090D01*
X96828270Y-53263568D01*
X96867460Y-53268728D01*
X96867461Y-53268728D01*
X96867462Y-53268728D01*
X96898813Y-53264600D01*
X97024223Y-53248090D01*
X97049847Y-53237475D01*
X97110842Y-53232675D01*
X97163012Y-53264644D01*
X97186427Y-53321171D01*
X97179196Y-53366825D01*
X97168257Y-53393232D01*
X97168255Y-53393241D01*
X97147618Y-53549999D01*
X97147618Y-53550000D01*
X97168255Y-53706758D01*
X97168257Y-53706766D01*
X97228762Y-53852838D01*
X97228762Y-53852839D01*
X97271878Y-53909029D01*
X97325018Y-53978282D01*
X97450459Y-54074536D01*
X97596538Y-54135044D01*
X97714109Y-54150522D01*
X97753299Y-54155682D01*
X97753300Y-54155682D01*
X97753301Y-54155682D01*
X97784652Y-54151554D01*
X97910062Y-54135044D01*
X98056141Y-54074536D01*
X98181582Y-53978282D01*
X98277836Y-53852841D01*
X98338344Y-53706762D01*
X98358982Y-53550000D01*
X98338344Y-53393238D01*
X98277837Y-53247161D01*
X98277837Y-53247160D01*
X98181586Y-53121723D01*
X98181585Y-53121722D01*
X98181582Y-53121718D01*
X98181577Y-53121714D01*
X98181576Y-53121713D01*
X98056138Y-53025462D01*
X97910066Y-52964957D01*
X97910058Y-52964955D01*
X97753301Y-52944318D01*
X97753299Y-52944318D01*
X97596541Y-52964955D01*
X97596533Y-52964957D01*
X97570911Y-52975570D01*
X97509914Y-52980369D01*
X97457746Y-52948398D01*
X97434333Y-52891870D01*
X97441564Y-52846220D01*
X97452505Y-52819808D01*
X97467593Y-52705202D01*
X109450000Y-52705202D01*
X109450000Y-54249999D01*
X109450001Y-54250000D01*
X110581116Y-54250000D01*
X110550000Y-54406433D01*
X110550000Y-54593567D01*
X110581116Y-54750000D01*
X109450002Y-54750000D01*
X109450001Y-54750001D01*
X109450001Y-56294791D01*
X109452909Y-56319874D01*
X109498213Y-56422477D01*
X109577522Y-56501786D01*
X109680127Y-56547090D01*
X109705203Y-56549999D01*
X111249998Y-56549999D01*
X111250000Y-56549998D01*
X111250000Y-55418883D01*
X111406433Y-55450000D01*
X111593567Y-55450000D01*
X111750000Y-55418883D01*
X111750000Y-56549998D01*
X111750001Y-56549999D01*
X113294790Y-56549999D01*
X113294791Y-56549998D01*
X113319874Y-56547090D01*
X113422477Y-56501786D01*
X113501786Y-56422477D01*
X113547090Y-56319872D01*
X113549999Y-56294797D01*
X113550000Y-56294795D01*
X113550000Y-54750001D01*
X113549999Y-54750000D01*
X112418884Y-54750000D01*
X112450000Y-54593567D01*
X112450000Y-54406433D01*
X112418884Y-54250000D01*
X113549998Y-54250000D01*
X113549999Y-54249999D01*
X113549999Y-52705210D01*
X113549998Y-52705208D01*
X113547090Y-52680125D01*
X113501786Y-52577522D01*
X113422477Y-52498213D01*
X113319872Y-52452909D01*
X113294797Y-52450000D01*
X111750001Y-52450000D01*
X111750000Y-52450001D01*
X111750000Y-53581116D01*
X111593567Y-53550000D01*
X111406433Y-53550000D01*
X111250000Y-53581116D01*
X111250000Y-52450001D01*
X111249999Y-52450000D01*
X109705210Y-52450000D01*
X109705208Y-52450001D01*
X109680125Y-52452909D01*
X109577522Y-52498213D01*
X109498213Y-52577522D01*
X109452909Y-52680127D01*
X109450000Y-52705202D01*
X97467593Y-52705202D01*
X97473143Y-52663046D01*
X97452505Y-52506284D01*
X97449162Y-52498213D01*
X97391998Y-52360207D01*
X97391998Y-52360206D01*
X97295747Y-52234769D01*
X97295746Y-52234768D01*
X97295743Y-52234764D01*
X97295738Y-52234760D01*
X97295737Y-52234759D01*
X97170299Y-52138508D01*
X97024227Y-52078003D01*
X97024219Y-52078001D01*
X96867462Y-52057364D01*
X96867460Y-52057364D01*
X96710702Y-52078001D01*
X96710694Y-52078003D01*
X96564622Y-52138508D01*
X96564621Y-52138508D01*
X96439184Y-52234759D01*
X96439174Y-52234769D01*
X96342923Y-52360206D01*
X96342923Y-52360207D01*
X96282418Y-52506279D01*
X96282416Y-52506287D01*
X96261779Y-52663045D01*
X75300500Y-52663045D01*
X75300500Y-51499996D01*
X120494659Y-51499996D01*
X120494659Y-51500003D01*
X120513974Y-51696126D01*
X120513975Y-51696129D01*
X120571187Y-51884730D01*
X120571188Y-51884732D01*
X120642218Y-52017618D01*
X120664090Y-52058538D01*
X120664092Y-52058540D01*
X120664093Y-52058542D01*
X120789112Y-52210878D01*
X120789121Y-52210887D01*
X120941457Y-52335906D01*
X120941462Y-52335910D01*
X121115273Y-52428814D01*
X121303868Y-52486024D01*
X121303870Y-52486024D01*
X121303873Y-52486025D01*
X121499997Y-52505341D01*
X121500000Y-52505341D01*
X121500003Y-52505341D01*
X121696126Y-52486025D01*
X121696127Y-52486024D01*
X121696132Y-52486024D01*
X121884727Y-52428814D01*
X122058538Y-52335910D01*
X122210883Y-52210883D01*
X122335910Y-52058538D01*
X122428814Y-51884727D01*
X122486024Y-51696132D01*
X122505341Y-51500000D01*
X122505341Y-51499996D01*
X122486025Y-51303873D01*
X122486024Y-51303870D01*
X122486024Y-51303868D01*
X122428814Y-51115273D01*
X122335910Y-50941462D01*
X122335906Y-50941457D01*
X122210887Y-50789121D01*
X122210878Y-50789112D01*
X122058542Y-50664093D01*
X122058540Y-50664092D01*
X122058538Y-50664090D01*
X122017618Y-50642218D01*
X121884732Y-50571188D01*
X121884730Y-50571187D01*
X121696129Y-50513975D01*
X121696126Y-50513974D01*
X121500003Y-50494659D01*
X121499997Y-50494659D01*
X121303873Y-50513974D01*
X121303870Y-50513975D01*
X121115269Y-50571187D01*
X121115267Y-50571188D01*
X120941467Y-50664087D01*
X120941457Y-50664093D01*
X120789121Y-50789112D01*
X120789112Y-50789121D01*
X120664093Y-50941457D01*
X120664087Y-50941467D01*
X120571188Y-51115267D01*
X120571187Y-51115269D01*
X120513975Y-51303870D01*
X120513974Y-51303873D01*
X120494659Y-51499996D01*
X75300500Y-51499996D01*
X75300500Y-49112310D01*
X98426044Y-49112310D01*
X98426044Y-49112311D01*
X98446681Y-49269069D01*
X98446683Y-49269077D01*
X98507188Y-49415149D01*
X98507188Y-49415150D01*
X98507190Y-49415152D01*
X98603444Y-49540593D01*
X98728885Y-49636847D01*
X98874964Y-49697355D01*
X98992535Y-49712833D01*
X99031725Y-49717993D01*
X99031726Y-49717993D01*
X99031727Y-49717993D01*
X99063078Y-49713865D01*
X99188488Y-49697355D01*
X99334567Y-49636847D01*
X99460008Y-49540593D01*
X99556262Y-49415152D01*
X99616770Y-49269073D01*
X99637408Y-49112311D01*
X99616770Y-48955549D01*
X99556263Y-48809472D01*
X99556263Y-48809471D01*
X99460012Y-48684034D01*
X99460011Y-48684033D01*
X99460008Y-48684029D01*
X99460003Y-48684025D01*
X99460002Y-48684024D01*
X99334564Y-48587773D01*
X99188492Y-48527268D01*
X99188484Y-48527266D01*
X99031727Y-48506629D01*
X99031725Y-48506629D01*
X98874967Y-48527266D01*
X98874959Y-48527268D01*
X98728887Y-48587773D01*
X98728886Y-48587773D01*
X98603449Y-48684024D01*
X98603439Y-48684034D01*
X98507188Y-48809471D01*
X98507188Y-48809472D01*
X98446683Y-48955544D01*
X98446681Y-48955552D01*
X98426044Y-49112310D01*
X75300500Y-49112310D01*
X75300500Y-47935930D01*
X80749500Y-47935930D01*
X80749500Y-48064069D01*
X80774499Y-48189742D01*
X80774500Y-48189747D01*
X80823534Y-48308125D01*
X80823538Y-48308133D01*
X80866365Y-48372226D01*
X80894724Y-48414669D01*
X80985331Y-48505276D01*
X81048848Y-48547717D01*
X81091866Y-48576461D01*
X81091870Y-48576463D01*
X81091873Y-48576465D01*
X81210256Y-48625501D01*
X81335931Y-48650500D01*
X81335932Y-48650500D01*
X81464068Y-48650500D01*
X81464069Y-48650500D01*
X81589744Y-48625501D01*
X81708127Y-48576465D01*
X81814669Y-48505276D01*
X81905276Y-48414669D01*
X81976465Y-48308127D01*
X82025501Y-48189744D01*
X82050500Y-48064069D01*
X82050500Y-47935931D01*
X82050500Y-47935930D01*
X117949500Y-47935930D01*
X117949500Y-48064069D01*
X117974499Y-48189742D01*
X117974500Y-48189747D01*
X118023534Y-48308125D01*
X118023538Y-48308133D01*
X118066365Y-48372226D01*
X118094724Y-48414669D01*
X118185331Y-48505276D01*
X118248848Y-48547717D01*
X118291866Y-48576461D01*
X118291870Y-48576463D01*
X118291873Y-48576465D01*
X118410256Y-48625501D01*
X118535931Y-48650500D01*
X118535932Y-48650500D01*
X118664068Y-48650500D01*
X118664069Y-48650500D01*
X118789744Y-48625501D01*
X118908127Y-48576465D01*
X119014669Y-48505276D01*
X119105276Y-48414669D01*
X119176465Y-48308127D01*
X119225501Y-48189744D01*
X119250500Y-48064069D01*
X119250500Y-47935931D01*
X119225501Y-47810256D01*
X119176465Y-47691873D01*
X119176463Y-47691870D01*
X119176461Y-47691866D01*
X119147717Y-47648848D01*
X119105276Y-47585331D01*
X119014669Y-47494724D01*
X118953720Y-47453999D01*
X118908133Y-47423538D01*
X118908125Y-47423534D01*
X118789747Y-47374500D01*
X118789745Y-47374499D01*
X118789744Y-47374499D01*
X118664069Y-47349500D01*
X118535931Y-47349500D01*
X118535930Y-47349500D01*
X118473093Y-47361999D01*
X118410256Y-47374499D01*
X118410255Y-47374499D01*
X118410252Y-47374500D01*
X118291874Y-47423534D01*
X118291866Y-47423538D01*
X118185331Y-47494724D01*
X118185327Y-47494727D01*
X118094727Y-47585327D01*
X118094724Y-47585331D01*
X118023538Y-47691866D01*
X118023534Y-47691874D01*
X117974500Y-47810252D01*
X117974499Y-47810257D01*
X117949500Y-47935930D01*
X82050500Y-47935930D01*
X82025501Y-47810256D01*
X81976465Y-47691873D01*
X81976463Y-47691870D01*
X81976461Y-47691866D01*
X81947717Y-47648848D01*
X81905276Y-47585331D01*
X81814669Y-47494724D01*
X81753720Y-47453999D01*
X81708133Y-47423538D01*
X81708125Y-47423534D01*
X81589747Y-47374500D01*
X81589745Y-47374499D01*
X81589744Y-47374499D01*
X81464069Y-47349500D01*
X81335931Y-47349500D01*
X81335930Y-47349500D01*
X81273093Y-47361999D01*
X81210256Y-47374499D01*
X81210255Y-47374499D01*
X81210252Y-47374500D01*
X81091874Y-47423534D01*
X81091866Y-47423538D01*
X80985331Y-47494724D01*
X80985327Y-47494727D01*
X80894727Y-47585327D01*
X80894724Y-47585331D01*
X80823538Y-47691866D01*
X80823534Y-47691874D01*
X80774500Y-47810252D01*
X80774499Y-47810257D01*
X80749500Y-47935930D01*
X75300500Y-47935930D01*
X75300500Y-44499995D01*
X82540882Y-44499995D01*
X82540882Y-44500004D01*
X82559309Y-44687109D01*
X82559310Y-44687112D01*
X82559311Y-44687115D01*
X82613891Y-44867039D01*
X82613894Y-44867044D01*
X82613895Y-44867047D01*
X82702520Y-45032854D01*
X82821796Y-45178193D01*
X82821801Y-45178199D01*
X82821806Y-45178203D01*
X82967145Y-45297479D01*
X83083535Y-45359690D01*
X83125942Y-45403795D01*
X83134325Y-45464403D01*
X83105483Y-45518364D01*
X83050432Y-45545066D01*
X83036867Y-45546000D01*
X82801210Y-45546000D01*
X82801208Y-45546001D01*
X82776125Y-45548909D01*
X82673522Y-45594213D01*
X82594213Y-45673522D01*
X82548909Y-45776127D01*
X82546000Y-45801202D01*
X82546000Y-46249999D01*
X82546001Y-46250000D01*
X83184314Y-46250000D01*
X83179920Y-46254394D01*
X83127259Y-46345606D01*
X83100000Y-46447339D01*
X83100000Y-46552661D01*
X83127259Y-46654394D01*
X83179920Y-46745606D01*
X83184314Y-46750000D01*
X82546002Y-46750000D01*
X82546001Y-46750001D01*
X82546001Y-47198791D01*
X82548909Y-47223874D01*
X82594213Y-47326477D01*
X82673522Y-47405786D01*
X82776127Y-47451090D01*
X82801203Y-47453999D01*
X83249998Y-47453999D01*
X83250000Y-47453998D01*
X83250000Y-46815686D01*
X83254394Y-46820080D01*
X83345606Y-46872741D01*
X83447339Y-46900000D01*
X83552661Y-46900000D01*
X83654394Y-46872741D01*
X83745606Y-46820080D01*
X83750000Y-46815686D01*
X83750000Y-47453998D01*
X83750001Y-47453999D01*
X84198790Y-47453999D01*
X84198791Y-47453998D01*
X84223874Y-47451090D01*
X84326477Y-47405786D01*
X84405786Y-47326477D01*
X84451090Y-47223872D01*
X84453999Y-47198797D01*
X84454000Y-47198795D01*
X84454000Y-46750001D01*
X84453999Y-46750000D01*
X83815686Y-46750000D01*
X83820080Y-46745606D01*
X83872741Y-46654394D01*
X83900000Y-46552661D01*
X83900000Y-46499995D01*
X115540882Y-46499995D01*
X115540882Y-46500004D01*
X115559309Y-46687109D01*
X115559310Y-46687112D01*
X115559311Y-46687115D01*
X115613891Y-46867039D01*
X115613894Y-46867044D01*
X115613895Y-46867047D01*
X115702520Y-47032854D01*
X115821796Y-47178193D01*
X115821801Y-47178199D01*
X115821806Y-47178203D01*
X115967145Y-47297479D01*
X116104925Y-47371123D01*
X116132961Y-47386109D01*
X116312885Y-47440689D01*
X116312887Y-47440689D01*
X116312890Y-47440690D01*
X116499996Y-47459118D01*
X116500000Y-47459118D01*
X116500004Y-47459118D01*
X116687109Y-47440690D01*
X116687110Y-47440689D01*
X116687115Y-47440689D01*
X116867039Y-47386109D01*
X116978602Y-47326477D01*
X117032854Y-47297479D01*
X117032855Y-47297477D01*
X117032857Y-47297477D01*
X117178199Y-47178199D01*
X117297477Y-47032857D01*
X117386109Y-46867039D01*
X117440689Y-46687115D01*
X117453932Y-46552661D01*
X117459118Y-46500004D01*
X117459118Y-46499995D01*
X117440690Y-46312890D01*
X117440689Y-46312887D01*
X117440689Y-46312885D01*
X117386109Y-46132961D01*
X117368491Y-46100000D01*
X117297479Y-45967145D01*
X117178203Y-45821806D01*
X117178199Y-45821801D01*
X117122542Y-45776125D01*
X117032854Y-45702520D01*
X116916464Y-45640309D01*
X116874057Y-45596204D01*
X116865674Y-45535595D01*
X116894516Y-45481635D01*
X116949568Y-45454933D01*
X116963132Y-45453999D01*
X117198790Y-45453999D01*
X117198791Y-45453998D01*
X117223874Y-45451090D01*
X117326477Y-45405786D01*
X117405786Y-45326477D01*
X117451090Y-45223872D01*
X117453999Y-45198797D01*
X117454000Y-45198795D01*
X117454000Y-44750001D01*
X117453999Y-44750000D01*
X116815686Y-44750000D01*
X116820080Y-44745606D01*
X116872741Y-44654394D01*
X116900000Y-44552661D01*
X116900000Y-44447339D01*
X116872741Y-44345606D01*
X116820080Y-44254394D01*
X116815686Y-44250000D01*
X117453998Y-44250000D01*
X117453999Y-44249999D01*
X117453999Y-43801210D01*
X117453998Y-43801208D01*
X117451090Y-43776125D01*
X117405786Y-43673522D01*
X117326477Y-43594213D01*
X117223872Y-43548909D01*
X117198797Y-43546000D01*
X116750001Y-43546000D01*
X116750000Y-43546001D01*
X116750000Y-44184314D01*
X116745606Y-44179920D01*
X116654394Y-44127259D01*
X116552661Y-44100000D01*
X116447339Y-44100000D01*
X116345606Y-44127259D01*
X116254394Y-44179920D01*
X116250000Y-44184314D01*
X116250000Y-43546001D01*
X116249999Y-43546000D01*
X115801210Y-43546000D01*
X115801207Y-43546001D01*
X115776125Y-43548909D01*
X115673522Y-43594213D01*
X115594213Y-43673522D01*
X115548909Y-43776127D01*
X115546000Y-43801202D01*
X115546000Y-44249999D01*
X115546001Y-44250000D01*
X116184314Y-44250000D01*
X116179920Y-44254394D01*
X116127259Y-44345606D01*
X116100000Y-44447339D01*
X116100000Y-44552661D01*
X116127259Y-44654394D01*
X116179920Y-44745606D01*
X116184314Y-44750000D01*
X115546002Y-44750000D01*
X115546001Y-44750001D01*
X115546001Y-45198791D01*
X115548909Y-45223874D01*
X115594213Y-45326477D01*
X115673522Y-45405786D01*
X115776127Y-45451090D01*
X115801203Y-45453999D01*
X116036865Y-45453999D01*
X116095055Y-45472906D01*
X116131019Y-45522406D01*
X116131020Y-45583591D01*
X116095056Y-45633091D01*
X116083534Y-45640309D01*
X115967144Y-45702521D01*
X115821806Y-45821796D01*
X115821796Y-45821806D01*
X115702520Y-45967145D01*
X115613895Y-46132952D01*
X115613890Y-46132964D01*
X115559310Y-46312887D01*
X115559309Y-46312890D01*
X115540882Y-46499995D01*
X83900000Y-46499995D01*
X83900000Y-46447339D01*
X83872741Y-46345606D01*
X83820080Y-46254394D01*
X83815686Y-46250000D01*
X84453998Y-46250000D01*
X84453999Y-46249999D01*
X84453999Y-45801210D01*
X84453998Y-45801208D01*
X84451090Y-45776125D01*
X84405786Y-45673522D01*
X84326477Y-45594213D01*
X84223872Y-45548909D01*
X84198797Y-45546000D01*
X83963134Y-45546000D01*
X83904943Y-45527093D01*
X83868979Y-45477593D01*
X83868979Y-45416407D01*
X83904943Y-45366907D01*
X83916466Y-45359690D01*
X84032854Y-45297479D01*
X84032855Y-45297477D01*
X84032857Y-45297477D01*
X84178199Y-45178199D01*
X84297477Y-45032857D01*
X84386109Y-44867039D01*
X84440689Y-44687115D01*
X84453932Y-44552661D01*
X84459118Y-44500004D01*
X84459118Y-44499995D01*
X84440690Y-44312890D01*
X84440689Y-44312887D01*
X84440689Y-44312885D01*
X84386109Y-44132961D01*
X84368350Y-44099736D01*
X84297479Y-43967145D01*
X84178203Y-43821806D01*
X84178199Y-43821801D01*
X84040975Y-43709185D01*
X84032854Y-43702520D01*
X83867047Y-43613895D01*
X83867044Y-43613894D01*
X83867039Y-43613891D01*
X83687115Y-43559311D01*
X83687112Y-43559310D01*
X83687109Y-43559309D01*
X83500004Y-43540882D01*
X83499996Y-43540882D01*
X83312890Y-43559309D01*
X83312887Y-43559310D01*
X83132964Y-43613890D01*
X83132961Y-43613891D01*
X83132958Y-43613892D01*
X83132952Y-43613895D01*
X82967145Y-43702520D01*
X82821806Y-43821796D01*
X82821796Y-43821806D01*
X82702520Y-43967145D01*
X82613895Y-44132952D01*
X82613890Y-44132964D01*
X82559310Y-44312887D01*
X82559309Y-44312890D01*
X82540882Y-44499995D01*
X75300500Y-44499995D01*
X75300500Y-42935930D01*
X80749500Y-42935930D01*
X80749500Y-43064069D01*
X80774499Y-43189742D01*
X80774500Y-43189747D01*
X80823534Y-43308125D01*
X80823538Y-43308133D01*
X80866365Y-43372226D01*
X80894724Y-43414669D01*
X80985331Y-43505276D01*
X81038619Y-43540882D01*
X81091866Y-43576461D01*
X81091870Y-43576463D01*
X81091873Y-43576465D01*
X81210256Y-43625501D01*
X81335931Y-43650500D01*
X81335932Y-43650500D01*
X81464068Y-43650500D01*
X81464069Y-43650500D01*
X81589744Y-43625501D01*
X81708127Y-43576465D01*
X81814669Y-43505276D01*
X81905276Y-43414669D01*
X81976465Y-43308127D01*
X82025501Y-43189744D01*
X82050500Y-43064069D01*
X82050500Y-42935931D01*
X82025501Y-42810256D01*
X81976465Y-42691873D01*
X81976463Y-42691870D01*
X81976461Y-42691866D01*
X81947717Y-42648848D01*
X81905276Y-42585331D01*
X81814669Y-42494724D01*
X81772226Y-42466365D01*
X81708133Y-42423538D01*
X81708125Y-42423534D01*
X81589747Y-42374500D01*
X81589745Y-42374499D01*
X81589744Y-42374499D01*
X81464069Y-42349500D01*
X81335931Y-42349500D01*
X81335930Y-42349500D01*
X81273093Y-42361999D01*
X81210256Y-42374499D01*
X81210255Y-42374499D01*
X81210252Y-42374500D01*
X81091874Y-42423534D01*
X81091866Y-42423538D01*
X80985331Y-42494724D01*
X80985327Y-42494727D01*
X80894727Y-42585327D01*
X80894724Y-42585331D01*
X80823538Y-42691866D01*
X80823534Y-42691874D01*
X80774500Y-42810252D01*
X80774499Y-42810257D01*
X80749500Y-42935930D01*
X75300500Y-42935930D01*
X75300500Y-42151155D01*
X94879500Y-42151155D01*
X94879500Y-43408844D01*
X94898681Y-43505272D01*
X94909430Y-43559311D01*
X94910263Y-43563496D01*
X94910263Y-43563498D01*
X94970603Y-43709174D01*
X94970609Y-43709185D01*
X95015338Y-43776125D01*
X95058211Y-43840289D01*
X95169711Y-43951789D01*
X95247876Y-44004017D01*
X95300814Y-44039390D01*
X95300825Y-44039396D01*
X95354638Y-44061685D01*
X95446503Y-44099737D01*
X95601158Y-44130500D01*
X95601159Y-44130500D01*
X95758841Y-44130500D01*
X95758842Y-44130500D01*
X95913497Y-44099737D01*
X96059179Y-44039394D01*
X96190289Y-43951789D01*
X96301789Y-43840289D01*
X96389394Y-43709179D01*
X96449737Y-43563497D01*
X96480500Y-43408842D01*
X96480500Y-42223982D01*
X96684500Y-42223982D01*
X96684500Y-42336018D01*
X96694811Y-42374499D01*
X96713498Y-42444241D01*
X96742647Y-42494727D01*
X96769515Y-42541263D01*
X96848737Y-42620485D01*
X96848739Y-42620486D01*
X96945759Y-42676501D01*
X96945757Y-42676501D01*
X96945761Y-42676502D01*
X96945763Y-42676503D01*
X97053982Y-42705500D01*
X97053984Y-42705500D01*
X97166016Y-42705500D01*
X97166018Y-42705500D01*
X97274237Y-42676503D01*
X97274239Y-42676501D01*
X97274241Y-42676501D01*
X97303064Y-42659859D01*
X97371263Y-42620485D01*
X97450485Y-42541263D01*
X97506503Y-42444237D01*
X97535500Y-42336018D01*
X97535500Y-42223982D01*
X102464500Y-42223982D01*
X102464500Y-42336018D01*
X102474811Y-42374499D01*
X102493498Y-42444241D01*
X102522647Y-42494727D01*
X102549515Y-42541263D01*
X102628737Y-42620485D01*
X102628739Y-42620486D01*
X102725759Y-42676501D01*
X102725757Y-42676501D01*
X102725761Y-42676502D01*
X102725763Y-42676503D01*
X102833982Y-42705500D01*
X102833984Y-42705500D01*
X102946016Y-42705500D01*
X102946018Y-42705500D01*
X103054237Y-42676503D01*
X103054239Y-42676501D01*
X103054241Y-42676501D01*
X103083064Y-42659859D01*
X103151263Y-42620485D01*
X103230485Y-42541263D01*
X103286503Y-42444237D01*
X103315500Y-42336018D01*
X103315500Y-42223982D01*
X103295986Y-42151155D01*
X103519500Y-42151155D01*
X103519500Y-43408844D01*
X103538681Y-43505272D01*
X103549430Y-43559311D01*
X103550263Y-43563496D01*
X103550263Y-43563498D01*
X103610603Y-43709174D01*
X103610609Y-43709185D01*
X103655338Y-43776125D01*
X103698211Y-43840289D01*
X103809711Y-43951789D01*
X103887876Y-44004017D01*
X103940814Y-44039390D01*
X103940825Y-44039396D01*
X103994638Y-44061685D01*
X104086503Y-44099737D01*
X104241158Y-44130500D01*
X104241159Y-44130500D01*
X104398841Y-44130500D01*
X104398842Y-44130500D01*
X104553497Y-44099737D01*
X104699179Y-44039394D01*
X104830289Y-43951789D01*
X104941789Y-43840289D01*
X105029394Y-43709179D01*
X105089737Y-43563497D01*
X105120500Y-43408842D01*
X105120500Y-42935930D01*
X117949500Y-42935930D01*
X117949500Y-43064069D01*
X117974499Y-43189742D01*
X117974500Y-43189747D01*
X118023534Y-43308125D01*
X118023538Y-43308133D01*
X118066365Y-43372226D01*
X118094724Y-43414669D01*
X118185331Y-43505276D01*
X118238619Y-43540882D01*
X118291866Y-43576461D01*
X118291870Y-43576463D01*
X118291873Y-43576465D01*
X118410256Y-43625501D01*
X118535931Y-43650500D01*
X118535932Y-43650500D01*
X118664068Y-43650500D01*
X118664069Y-43650500D01*
X118789744Y-43625501D01*
X118908127Y-43576465D01*
X119014669Y-43505276D01*
X119105276Y-43414669D01*
X119176465Y-43308127D01*
X119225501Y-43189744D01*
X119250500Y-43064069D01*
X119250500Y-42935931D01*
X119225501Y-42810256D01*
X119176465Y-42691873D01*
X119176463Y-42691870D01*
X119176461Y-42691866D01*
X119147717Y-42648848D01*
X119105276Y-42585331D01*
X119014669Y-42494724D01*
X118972226Y-42466365D01*
X118908133Y-42423538D01*
X118908125Y-42423534D01*
X118789747Y-42374500D01*
X118789745Y-42374499D01*
X118789744Y-42374499D01*
X118664069Y-42349500D01*
X118535931Y-42349500D01*
X118535930Y-42349500D01*
X118473093Y-42361999D01*
X118410256Y-42374499D01*
X118410255Y-42374499D01*
X118410252Y-42374500D01*
X118291874Y-42423534D01*
X118291866Y-42423538D01*
X118185331Y-42494724D01*
X118185327Y-42494727D01*
X118094727Y-42585327D01*
X118094724Y-42585331D01*
X118023538Y-42691866D01*
X118023534Y-42691874D01*
X117974500Y-42810252D01*
X117974499Y-42810257D01*
X117949500Y-42935930D01*
X105120500Y-42935930D01*
X105120500Y-42151158D01*
X105089737Y-41996503D01*
X105029394Y-41850821D01*
X105029393Y-41850819D01*
X105029390Y-41850814D01*
X104994017Y-41797876D01*
X104941789Y-41719711D01*
X104830289Y-41608211D01*
X104778059Y-41573312D01*
X104699185Y-41520609D01*
X104699174Y-41520603D01*
X104553497Y-41460263D01*
X104398844Y-41429500D01*
X104398842Y-41429500D01*
X104241158Y-41429500D01*
X104241155Y-41429500D01*
X104086503Y-41460263D01*
X104086501Y-41460263D01*
X103940825Y-41520603D01*
X103940814Y-41520609D01*
X103809711Y-41608211D01*
X103809707Y-41608214D01*
X103698214Y-41719707D01*
X103698211Y-41719711D01*
X103610609Y-41850814D01*
X103610603Y-41850825D01*
X103550263Y-41996501D01*
X103550263Y-41996503D01*
X103519500Y-42151155D01*
X103295986Y-42151155D01*
X103286503Y-42115763D01*
X103286501Y-42115760D01*
X103286501Y-42115758D01*
X103230486Y-42018739D01*
X103230485Y-42018737D01*
X103151263Y-41939515D01*
X103151260Y-41939513D01*
X103054240Y-41883498D01*
X103054242Y-41883498D01*
X103012251Y-41872247D01*
X102946018Y-41854500D01*
X102833982Y-41854500D01*
X102767748Y-41872247D01*
X102725758Y-41883498D01*
X102628739Y-41939513D01*
X102549513Y-42018739D01*
X102493498Y-42115758D01*
X102493497Y-42115763D01*
X102464500Y-42223982D01*
X97535500Y-42223982D01*
X97506503Y-42115763D01*
X97506501Y-42115760D01*
X97506501Y-42115758D01*
X97450486Y-42018739D01*
X97450485Y-42018737D01*
X97371263Y-41939515D01*
X97371260Y-41939513D01*
X97274240Y-41883498D01*
X97274242Y-41883498D01*
X97232251Y-41872247D01*
X97166018Y-41854500D01*
X97053982Y-41854500D01*
X96987748Y-41872247D01*
X96945758Y-41883498D01*
X96848739Y-41939513D01*
X96769513Y-42018739D01*
X96713498Y-42115758D01*
X96713497Y-42115763D01*
X96684500Y-42223982D01*
X96480500Y-42223982D01*
X96480500Y-42151158D01*
X96449737Y-41996503D01*
X96389394Y-41850821D01*
X96389393Y-41850819D01*
X96389390Y-41850814D01*
X96354017Y-41797876D01*
X96301789Y-41719711D01*
X96190289Y-41608211D01*
X96138059Y-41573312D01*
X96059185Y-41520609D01*
X96059174Y-41520603D01*
X95913497Y-41460263D01*
X95758844Y-41429500D01*
X95758842Y-41429500D01*
X95601158Y-41429500D01*
X95601155Y-41429500D01*
X95446503Y-41460263D01*
X95446501Y-41460263D01*
X95300825Y-41520603D01*
X95300814Y-41520609D01*
X95169711Y-41608211D01*
X95169707Y-41608214D01*
X95058214Y-41719707D01*
X95058211Y-41719711D01*
X94970609Y-41850814D01*
X94970603Y-41850825D01*
X94910263Y-41996501D01*
X94910263Y-41996503D01*
X94879500Y-42151155D01*
X75300500Y-42151155D01*
X75300500Y-39002773D01*
X75300578Y-38999997D01*
X76194451Y-38999997D01*
X76194451Y-39000002D01*
X76214616Y-39269098D01*
X76214618Y-39269107D01*
X76274666Y-39532197D01*
X76344212Y-39709394D01*
X76373257Y-39783398D01*
X76508185Y-40017102D01*
X76508189Y-40017108D01*
X76508191Y-40017110D01*
X76676434Y-40228081D01*
X76676440Y-40228087D01*
X76874252Y-40411629D01*
X76874254Y-40411630D01*
X76874259Y-40411635D01*
X77097226Y-40563651D01*
X77340359Y-40680738D01*
X77598228Y-40760280D01*
X77865071Y-40800500D01*
X77865076Y-40800500D01*
X78134924Y-40800500D01*
X78134929Y-40800500D01*
X78401772Y-40760280D01*
X78659641Y-40680738D01*
X78902775Y-40563651D01*
X79125741Y-40411635D01*
X79323561Y-40228085D01*
X79323565Y-40228081D01*
X79446641Y-40073748D01*
X79491815Y-40017102D01*
X79626743Y-39783398D01*
X79725334Y-39532195D01*
X79785383Y-39269103D01*
X79805549Y-39000000D01*
X79785383Y-38730897D01*
X79725334Y-38467805D01*
X79626743Y-38216602D01*
X79571637Y-38121155D01*
X94879500Y-38121155D01*
X94879500Y-38121158D01*
X94879500Y-39078842D01*
X94907659Y-39220408D01*
X94910263Y-39233496D01*
X94910263Y-39233498D01*
X94970603Y-39379174D01*
X94970609Y-39379185D01*
X95023312Y-39458059D01*
X95058211Y-39510289D01*
X95169711Y-39621789D01*
X95247876Y-39674017D01*
X95300814Y-39709390D01*
X95300825Y-39709396D01*
X95354638Y-39731685D01*
X95446503Y-39769737D01*
X95601158Y-39800500D01*
X95601159Y-39800500D01*
X95758841Y-39800500D01*
X95758842Y-39800500D01*
X95913497Y-39769737D01*
X96059179Y-39709394D01*
X96190289Y-39621789D01*
X96301789Y-39510289D01*
X96389394Y-39379179D01*
X96449737Y-39233497D01*
X96480500Y-39078842D01*
X96480500Y-38121158D01*
X96480499Y-38121155D01*
X103519500Y-38121155D01*
X103519500Y-38121158D01*
X103519500Y-39078842D01*
X103547659Y-39220408D01*
X103550263Y-39233496D01*
X103550263Y-39233498D01*
X103610603Y-39379174D01*
X103610609Y-39379185D01*
X103663312Y-39458059D01*
X103698211Y-39510289D01*
X103809711Y-39621789D01*
X103887876Y-39674017D01*
X103940814Y-39709390D01*
X103940825Y-39709396D01*
X103994638Y-39731685D01*
X104086503Y-39769737D01*
X104241158Y-39800500D01*
X104241159Y-39800500D01*
X104398841Y-39800500D01*
X104398842Y-39800500D01*
X104553497Y-39769737D01*
X104699179Y-39709394D01*
X104830289Y-39621789D01*
X104941789Y-39510289D01*
X105029394Y-39379179D01*
X105089737Y-39233497D01*
X105120500Y-39078842D01*
X105120500Y-38999997D01*
X120194451Y-38999997D01*
X120194451Y-39000002D01*
X120214616Y-39269098D01*
X120214618Y-39269107D01*
X120274666Y-39532197D01*
X120344212Y-39709394D01*
X120373257Y-39783398D01*
X120508185Y-40017102D01*
X120508189Y-40017108D01*
X120508191Y-40017110D01*
X120676434Y-40228081D01*
X120676440Y-40228087D01*
X120874252Y-40411629D01*
X120874254Y-40411630D01*
X120874259Y-40411635D01*
X121097226Y-40563651D01*
X121340359Y-40680738D01*
X121598228Y-40760280D01*
X121865071Y-40800500D01*
X121865076Y-40800500D01*
X122134924Y-40800500D01*
X122134929Y-40800500D01*
X122401772Y-40760280D01*
X122659641Y-40680738D01*
X122902775Y-40563651D01*
X123125741Y-40411635D01*
X123323561Y-40228085D01*
X123323565Y-40228081D01*
X123446641Y-40073748D01*
X123491815Y-40017102D01*
X123626743Y-39783398D01*
X123725334Y-39532195D01*
X123785383Y-39269103D01*
X123805549Y-39000000D01*
X123785383Y-38730897D01*
X123725334Y-38467805D01*
X123626743Y-38216602D01*
X123491815Y-37982898D01*
X123491808Y-37982889D01*
X123323565Y-37771918D01*
X123323559Y-37771912D01*
X123125747Y-37588370D01*
X123125744Y-37588368D01*
X123125741Y-37588365D01*
X122902775Y-37436349D01*
X122902767Y-37436345D01*
X122659643Y-37319262D01*
X122401776Y-37239721D01*
X122401773Y-37239720D01*
X122401772Y-37239720D01*
X122401767Y-37239719D01*
X122401766Y-37239719D01*
X122134932Y-37199500D01*
X122134929Y-37199500D01*
X121865071Y-37199500D01*
X121865067Y-37199500D01*
X121598233Y-37239719D01*
X121598223Y-37239721D01*
X121340358Y-37319262D01*
X121097233Y-37436345D01*
X121097229Y-37436347D01*
X121097226Y-37436349D01*
X120889148Y-37578214D01*
X120874252Y-37588370D01*
X120676440Y-37771912D01*
X120676434Y-37771918D01*
X120508191Y-37982889D01*
X120508187Y-37982894D01*
X120508185Y-37982898D01*
X120473614Y-38042778D01*
X120373258Y-38216599D01*
X120373254Y-38216608D01*
X120274666Y-38467802D01*
X120214618Y-38730892D01*
X120214616Y-38730901D01*
X120194451Y-38999997D01*
X105120500Y-38999997D01*
X105120500Y-38121158D01*
X105089737Y-37966503D01*
X105034797Y-37833865D01*
X105029396Y-37820825D01*
X105029390Y-37820814D01*
X104994017Y-37767876D01*
X104941789Y-37689711D01*
X104830289Y-37578211D01*
X104778059Y-37543312D01*
X104699185Y-37490609D01*
X104699174Y-37490603D01*
X104553497Y-37430263D01*
X104398844Y-37399500D01*
X104398842Y-37399500D01*
X104241158Y-37399500D01*
X104241155Y-37399500D01*
X104086503Y-37430263D01*
X104086501Y-37430263D01*
X103940825Y-37490603D01*
X103940814Y-37490609D01*
X103809711Y-37578211D01*
X103809707Y-37578214D01*
X103698214Y-37689707D01*
X103698211Y-37689711D01*
X103610609Y-37820814D01*
X103610603Y-37820825D01*
X103550263Y-37966501D01*
X103550263Y-37966503D01*
X103519500Y-38121155D01*
X96480499Y-38121155D01*
X96449737Y-37966503D01*
X96394797Y-37833865D01*
X96389396Y-37820825D01*
X96389390Y-37820814D01*
X96354017Y-37767876D01*
X96301789Y-37689711D01*
X96190289Y-37578211D01*
X96138059Y-37543312D01*
X96059185Y-37490609D01*
X96059174Y-37490603D01*
X95913497Y-37430263D01*
X95758844Y-37399500D01*
X95758842Y-37399500D01*
X95601158Y-37399500D01*
X95601155Y-37399500D01*
X95446503Y-37430263D01*
X95446501Y-37430263D01*
X95300825Y-37490603D01*
X95300814Y-37490609D01*
X95169711Y-37578211D01*
X95169707Y-37578214D01*
X95058214Y-37689707D01*
X95058211Y-37689711D01*
X94970609Y-37820814D01*
X94970603Y-37820825D01*
X94910263Y-37966501D01*
X94910263Y-37966503D01*
X94879500Y-38121155D01*
X79571637Y-38121155D01*
X79491815Y-37982898D01*
X79491808Y-37982889D01*
X79323565Y-37771918D01*
X79323559Y-37771912D01*
X79125747Y-37588370D01*
X79125744Y-37588368D01*
X79125741Y-37588365D01*
X78902775Y-37436349D01*
X78902767Y-37436345D01*
X78659643Y-37319262D01*
X78401776Y-37239721D01*
X78401773Y-37239720D01*
X78401772Y-37239720D01*
X78401767Y-37239719D01*
X78401766Y-37239719D01*
X78134932Y-37199500D01*
X78134929Y-37199500D01*
X77865071Y-37199500D01*
X77865067Y-37199500D01*
X77598233Y-37239719D01*
X77598223Y-37239721D01*
X77340358Y-37319262D01*
X77097233Y-37436345D01*
X77097229Y-37436347D01*
X77097226Y-37436349D01*
X76889148Y-37578214D01*
X76874252Y-37588370D01*
X76676440Y-37771912D01*
X76676434Y-37771918D01*
X76508191Y-37982889D01*
X76508187Y-37982894D01*
X76508185Y-37982898D01*
X76473614Y-38042778D01*
X76373258Y-38216599D01*
X76373254Y-38216608D01*
X76274666Y-38467802D01*
X76214618Y-38730892D01*
X76214616Y-38730901D01*
X76194451Y-38999997D01*
X75300578Y-38999997D01*
X75300656Y-38997222D01*
X75315612Y-38730901D01*
X75317162Y-38703296D01*
X75318405Y-38692270D01*
X75367253Y-38404771D01*
X75369714Y-38393985D01*
X75450451Y-38113742D01*
X75454111Y-38103283D01*
X75565711Y-37833858D01*
X75570525Y-37823863D01*
X75572204Y-37820825D01*
X75711583Y-37568636D01*
X75717479Y-37559253D01*
X75886230Y-37321421D01*
X75893149Y-37312745D01*
X75958408Y-37239720D01*
X76087475Y-37095293D01*
X76095293Y-37087475D01*
X76312748Y-36893146D01*
X76321424Y-36886228D01*
X76559253Y-36717479D01*
X76568636Y-36711583D01*
X76823869Y-36570522D01*
X76833858Y-36565711D01*
X77103283Y-36454111D01*
X77113742Y-36450451D01*
X77393985Y-36369714D01*
X77404771Y-36367253D01*
X77692277Y-36318404D01*
X77703296Y-36317162D01*
X77997222Y-36300655D01*
X78002773Y-36300500D01*
X78047595Y-36300500D01*
X121952405Y-36300500D01*
X121997227Y-36300500D01*
X122002777Y-36300655D01*
G37*
%TD.AperFunction*%
%TD*%
M02*
