%TF.GenerationSoftware,KiCad,Pcbnew,8.0.5*%
%TF.CreationDate,2024-10-20T13:06:47-04:00*%
%TF.ProjectId,DangerDoughnut,44616e67-6572-4446-9f75-67686e75742e,rev?*%
%TF.SameCoordinates,Original*%
%TF.FileFunction,Paste,Top*%
%TF.FilePolarity,Positive*%
%FSLAX46Y46*%
G04 Gerber Fmt 4.6, Leading zero omitted, Abs format (unit mm)*
G04 Created by KiCad (PCBNEW 8.0.5) date 2024-10-20 13:06:47*
%MOMM*%
%LPD*%
G01*
G04 APERTURE LIST*
G04 Aperture macros list*
%AMRoundRect*
0 Rectangle with rounded corners*
0 $1 Rounding radius*
0 $2 $3 $4 $5 $6 $7 $8 $9 X,Y pos of 4 corners*
0 Add a 4 corners polygon primitive as box body*
4,1,4,$2,$3,$4,$5,$6,$7,$8,$9,$2,$3,0*
0 Add four circle primitives for the rounded corners*
1,1,$1+$1,$2,$3*
1,1,$1+$1,$4,$5*
1,1,$1+$1,$6,$7*
1,1,$1+$1,$8,$9*
0 Add four rect primitives between the rounded corners*
20,1,$1+$1,$2,$3,$4,$5,0*
20,1,$1+$1,$4,$5,$6,$7,0*
20,1,$1+$1,$6,$7,$8,$9,0*
20,1,$1+$1,$8,$9,$2,$3,0*%
%AMRotRect*
0 Rectangle, with rotation*
0 The origin of the aperture is its center*
0 $1 length*
0 $2 width*
0 $3 Rotation angle, in degrees counterclockwise*
0 Add horizontal line*
21,1,$1,$2,0,0,$3*%
G04 Aperture macros list end*
%ADD10C,0.000000*%
%ADD11RoundRect,0.050000X0.275000X0.200000X-0.275000X0.200000X-0.275000X-0.200000X0.275000X-0.200000X0*%
%ADD12RoundRect,0.225000X0.225000X0.250000X-0.225000X0.250000X-0.225000X-0.250000X0.225000X-0.250000X0*%
%ADD13RoundRect,0.218750X0.218750X0.256250X-0.218750X0.256250X-0.218750X-0.256250X0.218750X-0.256250X0*%
%ADD14RoundRect,0.155000X-0.155000X0.212500X-0.155000X-0.212500X0.155000X-0.212500X0.155000X0.212500X0*%
%ADD15RoundRect,0.140000X0.170000X-0.140000X0.170000X0.140000X-0.170000X0.140000X-0.170000X-0.140000X0*%
%ADD16RoundRect,0.140000X0.140000X0.170000X-0.140000X0.170000X-0.140000X-0.170000X0.140000X-0.170000X0*%
%ADD17RoundRect,0.135000X-0.135000X-0.185000X0.135000X-0.185000X0.135000X0.185000X-0.135000X0.185000X0*%
%ADD18RoundRect,0.135000X0.185000X-0.135000X0.185000X0.135000X-0.185000X0.135000X-0.185000X-0.135000X0*%
%ADD19RoundRect,0.135000X0.035355X-0.226274X0.226274X-0.035355X-0.035355X0.226274X-0.226274X0.035355X0*%
%ADD20RoundRect,0.140000X-0.170000X0.140000X-0.170000X-0.140000X0.170000X-0.140000X0.170000X0.140000X0*%
%ADD21R,0.900000X0.800000*%
%ADD22RoundRect,0.155000X0.155000X-0.212500X0.155000X0.212500X-0.155000X0.212500X-0.155000X-0.212500X0*%
%ADD23RoundRect,0.140000X-0.140000X-0.170000X0.140000X-0.170000X0.140000X0.170000X-0.140000X0.170000X0*%
%ADD24RoundRect,0.243750X-0.456250X0.243750X-0.456250X-0.243750X0.456250X-0.243750X0.456250X0.243750X0*%
%ADD25RoundRect,0.243750X0.456250X-0.243750X0.456250X0.243750X-0.456250X0.243750X-0.456250X-0.243750X0*%
%ADD26RoundRect,0.250000X0.337500X0.475000X-0.337500X0.475000X-0.337500X-0.475000X0.337500X-0.475000X0*%
%ADD27R,2.209800X2.260600*%
%ADD28RoundRect,0.135000X-0.185000X0.135000X-0.185000X-0.135000X0.185000X-0.135000X0.185000X0.135000X0*%
%ADD29RoundRect,0.243750X0.243750X0.456250X-0.243750X0.456250X-0.243750X-0.456250X0.243750X-0.456250X0*%
%ADD30RotRect,0.550000X0.550000X225.000000*%
%ADD31RotRect,0.300000X0.500000X225.000000*%
%ADD32RoundRect,0.160000X0.044194X0.270468X-0.270468X-0.044194X-0.044194X-0.270468X0.270468X0.044194X0*%
%ADD33RotRect,0.355600X0.457200X336.347000*%
%ADD34RotRect,0.355600X0.457200X246.347000*%
%ADD35RoundRect,0.250000X-0.285000X-0.285000X0.285000X-0.285000X0.285000X0.285000X-0.285000X0.285000X0*%
%ADD36RoundRect,0.050000X-0.350000X-0.050000X0.350000X-0.050000X0.350000X0.050000X-0.350000X0.050000X0*%
%ADD37RoundRect,0.050000X-0.050000X-0.350000X0.050000X-0.350000X0.050000X0.350000X-0.050000X0.350000X0*%
%ADD38RoundRect,0.135000X0.135000X0.185000X-0.135000X0.185000X-0.135000X-0.185000X0.135000X-0.185000X0*%
%ADD39RoundRect,0.135000X0.226274X0.035355X0.035355X0.226274X-0.226274X-0.035355X-0.035355X-0.226274X0*%
%ADD40RoundRect,0.225000X-0.225000X-0.375000X0.225000X-0.375000X0.225000X0.375000X-0.225000X0.375000X0*%
%ADD41R,0.990600X0.990600*%
%ADD42RotRect,0.355600X0.457200X293.654000*%
%ADD43RotRect,0.355600X0.457200X203.654000*%
%ADD44RoundRect,0.250000X-0.475000X0.337500X-0.475000X-0.337500X0.475000X-0.337500X0.475000X0.337500X0*%
%ADD45RoundRect,0.150000X-0.150000X0.650000X-0.150000X-0.650000X0.150000X-0.650000X0.150000X0.650000X0*%
%ADD46RoundRect,0.250000X-0.650000X0.412500X-0.650000X-0.412500X0.650000X-0.412500X0.650000X0.412500X0*%
%ADD47RoundRect,0.140000X-0.219203X-0.021213X-0.021213X-0.219203X0.219203X0.021213X0.021213X0.219203X0*%
%ADD48R,0.762000X0.254000*%
%ADD49R,0.254000X0.762000*%
%ADD50R,3.759200X3.759200*%
%ADD51RoundRect,0.250000X-0.337500X-0.475000X0.337500X-0.475000X0.337500X0.475000X-0.337500X0.475000X0*%
%ADD52RoundRect,0.242500X0.382500X-0.242500X0.382500X0.242500X-0.382500X0.242500X-0.382500X-0.242500X0*%
%ADD53RoundRect,0.150000X0.150000X-0.650000X0.150000X0.650000X-0.150000X0.650000X-0.150000X-0.650000X0*%
%ADD54R,0.304800X0.457200*%
%ADD55R,0.457200X0.304800*%
%ADD56RoundRect,0.150000X0.150000X-0.512500X0.150000X0.512500X-0.150000X0.512500X-0.150000X-0.512500X0*%
%ADD57RoundRect,0.140000X0.219203X0.021213X0.021213X0.219203X-0.219203X-0.021213X-0.021213X-0.219203X0*%
%ADD58RoundRect,0.160000X0.160000X-0.222500X0.160000X0.222500X-0.160000X0.222500X-0.160000X-0.222500X0*%
G04 APERTURE END LIST*
D10*
%TO.C,U8*%
G36*
X96900000Y-65400000D02*
G01*
X95220400Y-65400000D01*
X95220400Y-63720400D01*
X96900000Y-63720400D01*
X96900000Y-65400000D01*
G37*
G36*
X96900000Y-67279600D02*
G01*
X95220400Y-67279600D01*
X95220400Y-65600000D01*
X96900000Y-65600000D01*
X96900000Y-67279600D01*
G37*
G36*
X98779600Y-65400000D02*
G01*
X97100000Y-65400000D01*
X97100000Y-63720400D01*
X98779600Y-63720400D01*
X98779600Y-65400000D01*
G37*
G36*
X98779600Y-67279600D02*
G01*
X97100000Y-67279600D01*
X97100000Y-65600000D01*
X98779600Y-65600000D01*
X98779600Y-67279600D01*
G37*
%TO.C,U9*%
G36*
X87400000Y-66150000D02*
G01*
X86279200Y-66150000D01*
X86279200Y-65029200D01*
X87400000Y-65029200D01*
X87400000Y-66150000D01*
G37*
G36*
X87400000Y-67470800D02*
G01*
X86279200Y-67470800D01*
X86279200Y-66350000D01*
X87400000Y-66350000D01*
X87400000Y-67470800D01*
G37*
G36*
X88720800Y-66150000D02*
G01*
X87600000Y-66150000D01*
X87600000Y-65029200D01*
X88720800Y-65029200D01*
X88720800Y-66150000D01*
G37*
G36*
X88720800Y-67470800D02*
G01*
X87600000Y-67470800D01*
X87600000Y-66350000D01*
X88720800Y-66350000D01*
X88720800Y-67470800D01*
G37*
%TD*%
D11*
%TO.C,D19*%
X123074999Y-78750000D03*
X123074999Y-79500000D03*
X123074999Y-80250000D03*
X121724999Y-78750000D03*
X121724999Y-79500000D03*
X121724999Y-80250000D03*
%TD*%
%TO.C,D13*%
X107474998Y-78750000D03*
X107474998Y-79500000D03*
X107474998Y-80250000D03*
X106124998Y-78750000D03*
X106124998Y-79500000D03*
X106124998Y-80250000D03*
%TD*%
%TO.C,D8*%
X94474998Y-78750000D03*
X94474998Y-79500000D03*
X94474998Y-80250000D03*
X93124998Y-78750000D03*
X93124998Y-79500000D03*
X93124998Y-80250000D03*
%TD*%
D12*
%TO.C,C3*%
X97574998Y-81400000D03*
X96024998Y-81400000D03*
%TD*%
D11*
%TO.C,D7*%
X91874998Y-78750000D03*
X91874998Y-79500000D03*
X91874998Y-80250000D03*
X90524998Y-78750000D03*
X90524998Y-79500000D03*
X90524998Y-80250000D03*
%TD*%
D13*
%TO.C,F1*%
X112287498Y-77200000D03*
X110712498Y-77200000D03*
%TD*%
D11*
%TO.C,D5*%
X86674998Y-78750000D03*
X86674998Y-79500000D03*
X86674998Y-80250000D03*
X85324998Y-78750000D03*
X85324998Y-79500000D03*
X85324998Y-80250000D03*
%TD*%
%TO.C,D1*%
X76274998Y-78750000D03*
X76274998Y-79500000D03*
X76274998Y-80250000D03*
X74924998Y-78750000D03*
X74924998Y-79500000D03*
X74924998Y-80250000D03*
%TD*%
%TO.C,D9*%
X97074998Y-78750000D03*
X97074998Y-79500000D03*
X97074998Y-80250000D03*
X95724998Y-78750000D03*
X95724998Y-79500000D03*
X95724998Y-80250000D03*
%TD*%
%TO.C,D12*%
X104874998Y-78750000D03*
X104874998Y-79500000D03*
X104874998Y-80250000D03*
X103524998Y-78750000D03*
X103524998Y-79500000D03*
X103524998Y-80250000D03*
%TD*%
%TO.C,D16*%
X115274998Y-78750000D03*
X115274998Y-79500000D03*
X115274998Y-80250000D03*
X113924998Y-78750000D03*
X113924998Y-79500000D03*
X113924998Y-80250000D03*
%TD*%
%TO.C,D18*%
X120474998Y-78750000D03*
X120474998Y-79500000D03*
X120474998Y-80250000D03*
X119124998Y-78750000D03*
X119124998Y-79500000D03*
X119124998Y-80250000D03*
%TD*%
%TO.C,D10*%
X99674998Y-78750000D03*
X99674998Y-79500000D03*
X99674998Y-80250000D03*
X98324998Y-78750000D03*
X98324998Y-79500000D03*
X98324998Y-80250000D03*
%TD*%
%TO.C,D17*%
X117874998Y-78750000D03*
X117874998Y-79500000D03*
X117874998Y-80250000D03*
X116524998Y-78750000D03*
X116524998Y-79500000D03*
X116524998Y-80250000D03*
%TD*%
D12*
%TO.C,C5*%
X118374998Y-81400000D03*
X116824998Y-81400000D03*
%TD*%
D11*
%TO.C,D20*%
X125674998Y-78750000D03*
X125674998Y-79500000D03*
X125674998Y-80250000D03*
X124324998Y-78750000D03*
X124324998Y-79500000D03*
X124324998Y-80250000D03*
%TD*%
D12*
%TO.C,C2*%
X87174998Y-81400000D03*
X85624998Y-81400000D03*
%TD*%
D11*
%TO.C,D11*%
X102274998Y-78750000D03*
X102274998Y-79500000D03*
X102274998Y-80250000D03*
X100924998Y-78750000D03*
X100924998Y-79500000D03*
X100924998Y-80250000D03*
%TD*%
%TO.C,D3*%
X81474998Y-78750000D03*
X81474998Y-79500000D03*
X81474998Y-80250000D03*
X80124998Y-78750000D03*
X80124998Y-79500000D03*
X80124998Y-80250000D03*
%TD*%
%TO.C,D2*%
X78874998Y-78750000D03*
X78874998Y-79500000D03*
X78874998Y-80250000D03*
X77524998Y-78750000D03*
X77524998Y-79500000D03*
X77524998Y-80250000D03*
%TD*%
%TO.C,D4*%
X84074998Y-78750000D03*
X84074998Y-79500000D03*
X84074998Y-80250000D03*
X82724998Y-78750000D03*
X82724998Y-79500000D03*
X82724998Y-80250000D03*
%TD*%
D12*
%TO.C,C1*%
X76774998Y-81400000D03*
X75224998Y-81400000D03*
%TD*%
D11*
%TO.C,D14*%
X110074999Y-78750000D03*
X110074999Y-79500000D03*
X110074999Y-80250000D03*
X108724999Y-78750000D03*
X108724999Y-79500000D03*
X108724999Y-80250000D03*
%TD*%
%TO.C,D15*%
X112674998Y-78750000D03*
X112674998Y-79500000D03*
X112674998Y-80250000D03*
X111324998Y-78750000D03*
X111324998Y-79500000D03*
X111324998Y-80250000D03*
%TD*%
D12*
%TO.C,C4*%
X107974998Y-81400000D03*
X106424998Y-81400000D03*
%TD*%
D11*
%TO.C,D6*%
X89274998Y-78750000D03*
X89274998Y-79500000D03*
X89274998Y-80250000D03*
X87924998Y-78750000D03*
X87924998Y-79500000D03*
X87924998Y-80250000D03*
%TD*%
D14*
%TO.C,C5*%
X98000000Y-69432500D03*
X98000000Y-70567500D03*
%TD*%
D15*
%TO.C,C38*%
X85250000Y-58710000D03*
X85250000Y-57750000D03*
%TD*%
D16*
%TO.C,C32*%
X86980000Y-54750000D03*
X86020000Y-54750000D03*
%TD*%
D17*
%TO.C,R1*%
X117490000Y-54000000D03*
X118510000Y-54000000D03*
%TD*%
D18*
%TO.C,R19*%
X92000000Y-48010000D03*
X92000000Y-46990000D03*
%TD*%
D19*
%TO.C,R10*%
X97389376Y-49110624D03*
X98110624Y-48389376D03*
%TD*%
D17*
%TO.C,R26*%
X97490000Y-52250000D03*
X98510000Y-52250000D03*
%TD*%
%TO.C,R32*%
X108240000Y-39750000D03*
X109260000Y-39750000D03*
%TD*%
D18*
%TO.C,R7*%
X101750000Y-43760000D03*
X101750000Y-42740000D03*
%TD*%
D20*
%TO.C,C37*%
X85250000Y-60020000D03*
X85250000Y-60980000D03*
%TD*%
D21*
%TO.C,Y1*%
X90800000Y-44800000D03*
X92200000Y-44800000D03*
X92200000Y-43700000D03*
X90800000Y-43700000D03*
%TD*%
D15*
%TO.C,C33*%
X94000000Y-47980000D03*
X94000000Y-47020000D03*
%TD*%
D18*
%TO.C,R16*%
X100750000Y-65260000D03*
X100750000Y-64240000D03*
%TD*%
D15*
%TO.C,C21*%
X91250000Y-65230000D03*
X91250000Y-64270000D03*
%TD*%
%TO.C,C14*%
X97500000Y-39230000D03*
X97500000Y-38270000D03*
%TD*%
D18*
%TO.C,R9*%
X95000000Y-48010000D03*
X95000000Y-46990000D03*
%TD*%
D22*
%TO.C,C43*%
X87100000Y-71167500D03*
X87100000Y-70032500D03*
%TD*%
D23*
%TO.C,C11*%
X86020000Y-40750000D03*
X86980000Y-40750000D03*
%TD*%
D24*
%TO.C,D5*%
X102000000Y-60062500D03*
X102000000Y-61937500D03*
%TD*%
D25*
%TO.C,D4*%
X110000000Y-70937500D03*
X110000000Y-69062500D03*
%TD*%
D26*
%TO.C,C31*%
X86537500Y-56250000D03*
X84462500Y-56250000D03*
%TD*%
D27*
%TO.C,CR1*%
X108205300Y-64000000D03*
X112294700Y-64000000D03*
%TD*%
D18*
%TO.C,R8*%
X98750000Y-43760000D03*
X98750000Y-42740000D03*
%TD*%
D23*
%TO.C,C3*%
X109520000Y-67500000D03*
X110480000Y-67500000D03*
%TD*%
D21*
%TO.C,Y3*%
X95300000Y-70550000D03*
X96700000Y-70550000D03*
X96700000Y-69450000D03*
X95300000Y-69450000D03*
%TD*%
D15*
%TO.C,C20*%
X90250000Y-63730000D03*
X90250000Y-62770000D03*
%TD*%
D28*
%TO.C,R15*%
X94750000Y-60740000D03*
X94750000Y-61760000D03*
%TD*%
D16*
%TO.C,C40*%
X110980000Y-40750000D03*
X110020000Y-40750000D03*
%TD*%
D29*
%TO.C,D6*%
X79437500Y-64750000D03*
X77562500Y-64750000D03*
%TD*%
D17*
%TO.C,R20*%
X77990000Y-62750000D03*
X79010000Y-62750000D03*
%TD*%
D30*
%TO.C,FL1*%
X83924264Y-67075736D03*
D31*
X83252513Y-67252513D03*
D30*
X83075736Y-67924264D03*
D31*
X83747487Y-67747487D03*
%TD*%
D32*
%TO.C,L3*%
X83654819Y-51095181D03*
X82845181Y-51904819D03*
%TD*%
D33*
%TO.C,U2*%
X116473573Y-37690502D03*
X116015461Y-37489853D03*
X115557350Y-37289204D03*
X115099239Y-37088555D03*
X114641127Y-36887906D03*
D34*
X114051713Y-37497959D03*
X113851064Y-37956070D03*
X113650415Y-38414181D03*
D33*
X113601707Y-39261058D03*
X114059819Y-39461707D03*
X114517930Y-39662356D03*
X114976041Y-39863005D03*
X115434153Y-40063654D03*
D34*
X116023567Y-39453601D03*
X116224216Y-38995490D03*
X116424865Y-38537379D03*
%TD*%
D17*
%TO.C,R22*%
X86240000Y-58750000D03*
X87260000Y-58750000D03*
%TD*%
D35*
%TO.C,U10*%
X90670000Y-51420000D03*
X90670000Y-52750000D03*
X90670000Y-54080000D03*
X92000000Y-51420000D03*
X92000000Y-52750000D03*
X92000000Y-54080000D03*
X93330000Y-51420000D03*
X93330000Y-52750000D03*
X93330000Y-54080000D03*
D36*
X88550000Y-50150000D03*
X88550001Y-50550000D03*
X88550000Y-50950000D03*
X88550000Y-51350000D03*
X88550000Y-51750000D03*
X88550001Y-52150000D03*
X88550000Y-52550000D03*
X88550000Y-52950000D03*
X88550001Y-53350000D03*
X88550000Y-53750000D03*
X88550000Y-54150000D03*
X88550000Y-54550000D03*
X88550001Y-54950000D03*
X88550000Y-55350000D03*
D37*
X89400000Y-56200000D03*
X89800000Y-56199999D03*
X90200000Y-56200000D03*
X90600000Y-56200000D03*
X91000000Y-56200000D03*
X91400000Y-56199999D03*
X91800000Y-56200000D03*
X92200000Y-56200000D03*
X92600000Y-56199999D03*
X93000000Y-56200000D03*
X93400000Y-56200000D03*
X93800000Y-56200000D03*
X94200000Y-56199999D03*
X94600000Y-56200000D03*
D36*
X95450000Y-55350000D03*
X95449999Y-54950000D03*
X95450000Y-54550000D03*
X95450000Y-54150000D03*
X95450000Y-53750000D03*
X95449999Y-53350000D03*
X95450000Y-52950000D03*
X95450000Y-52550000D03*
X95449999Y-52150000D03*
X95450000Y-51750000D03*
X95450000Y-51350000D03*
X95450000Y-50950000D03*
X95449999Y-50550000D03*
X95450000Y-50150000D03*
D37*
X94600000Y-49300000D03*
X94200000Y-49300001D03*
X93800000Y-49300000D03*
X93400000Y-49300000D03*
X93000000Y-49300000D03*
X92600000Y-49300001D03*
X92200000Y-49300000D03*
X91800000Y-49300000D03*
X91400000Y-49300001D03*
X91000000Y-49300000D03*
X90600000Y-49300000D03*
X90200000Y-49300000D03*
X89800000Y-49300001D03*
X89400000Y-49300000D03*
%TD*%
D25*
%TO.C,D3*%
X104250000Y-69937500D03*
X104250000Y-68062500D03*
%TD*%
D38*
%TO.C,R17*%
X102010000Y-63250000D03*
X100990000Y-63250000D03*
%TD*%
D17*
%TO.C,R3*%
X106490000Y-71500000D03*
X107510000Y-71500000D03*
%TD*%
D16*
%TO.C,C39*%
X110980000Y-39750000D03*
X110020000Y-39750000D03*
%TD*%
D28*
%TO.C,R13*%
X85250000Y-62240000D03*
X85250000Y-63260000D03*
%TD*%
D17*
%TO.C,R23*%
X97490000Y-50250000D03*
X98510000Y-50250000D03*
%TD*%
D39*
%TO.C,R35*%
X93360624Y-68360624D03*
X92639376Y-67639376D03*
%TD*%
D17*
%TO.C,R5*%
X120490000Y-58500000D03*
X121510000Y-58500000D03*
%TD*%
%TO.C,R6*%
X116490000Y-68250000D03*
X117510000Y-68250000D03*
%TD*%
D26*
%TO.C,C12*%
X90537500Y-39500000D03*
X88462500Y-39500000D03*
%TD*%
D18*
%TO.C,R36*%
X91000000Y-48010000D03*
X91000000Y-46990000D03*
%TD*%
D38*
%TO.C,R31*%
X95010000Y-57500000D03*
X93990000Y-57500000D03*
%TD*%
D16*
%TO.C,C30*%
X86980000Y-51750000D03*
X86020000Y-51750000D03*
%TD*%
D18*
%TO.C,R25*%
X93000000Y-48010000D03*
X93000000Y-46990000D03*
%TD*%
D40*
%TO.C,D1*%
X116350000Y-50500000D03*
X119650000Y-50500000D03*
%TD*%
D28*
%TO.C,R12*%
X99000000Y-69490000D03*
X99000000Y-70510000D03*
%TD*%
D41*
%TO.C,ANT2*%
X79058100Y-54801905D03*
X79058100Y-52801904D03*
X79058100Y-50201905D03*
X76441900Y-50201905D03*
X76441900Y-52801904D03*
X76441900Y-54801905D03*
%TD*%
D42*
%TO.C,U3*%
X86550241Y-38872265D03*
X86349582Y-38414157D03*
X86148927Y-37956049D03*
X85948270Y-37497941D03*
X85747614Y-37039834D03*
D43*
X84900737Y-37088558D03*
X84442629Y-37289213D03*
X83984521Y-37489870D03*
D42*
X83374479Y-38079295D03*
X83575138Y-38537403D03*
X83775793Y-38995511D03*
X83976450Y-39453619D03*
X84177106Y-39911726D03*
D43*
X85023983Y-39863002D03*
X85482091Y-39662347D03*
X85940199Y-39461690D03*
%TD*%
D44*
%TO.C,C13*%
X102750000Y-37962500D03*
X102750000Y-40037500D03*
%TD*%
D17*
%TO.C,R34*%
X108240000Y-38750000D03*
X109260000Y-38750000D03*
%TD*%
D14*
%TO.C,C19*%
X93500000Y-43682500D03*
X93500000Y-44817500D03*
%TD*%
D15*
%TO.C,C36*%
X82750000Y-42730000D03*
X82750000Y-41770000D03*
%TD*%
D45*
%TO.C,U4*%
X103905000Y-49112311D03*
X102635000Y-49112311D03*
X101365000Y-49112311D03*
X100095000Y-49112311D03*
X100095000Y-56312311D03*
X101365000Y-56312311D03*
X102635000Y-56312311D03*
X103905000Y-56312311D03*
%TD*%
D46*
%TO.C,C4*%
X114750000Y-53937500D03*
X114750000Y-57062500D03*
%TD*%
D22*
%TO.C,C18*%
X89500000Y-44817500D03*
X89500000Y-43682500D03*
%TD*%
D20*
%TO.C,C7*%
X119750000Y-64270000D03*
X119750000Y-65230000D03*
%TD*%
D23*
%TO.C,C6*%
X116520000Y-66750000D03*
X117480000Y-66750000D03*
%TD*%
D17*
%TO.C,R33*%
X108240000Y-40750000D03*
X109260000Y-40750000D03*
%TD*%
D20*
%TO.C,C23*%
X100000000Y-69020000D03*
X100000000Y-69980000D03*
%TD*%
D12*
%TO.C,C41*%
X80025000Y-47750000D03*
X78475000Y-47750000D03*
%TD*%
D22*
%TO.C,C44*%
X90900000Y-71067500D03*
X90900000Y-69932500D03*
%TD*%
D17*
%TO.C,R24*%
X97490000Y-51250000D03*
X98510000Y-51250000D03*
%TD*%
D22*
%TO.C,C15*%
X94000000Y-70567500D03*
X94000000Y-69432500D03*
%TD*%
D18*
%TO.C,R30*%
X93000000Y-58260000D03*
X93000000Y-57240000D03*
%TD*%
D47*
%TO.C,C35*%
X82410589Y-52410589D03*
X83089411Y-53089411D03*
%TD*%
D20*
%TO.C,C22*%
X86100000Y-70000000D03*
X86100000Y-70960000D03*
%TD*%
D17*
%TO.C,R27*%
X97490000Y-53250000D03*
X98510000Y-53250000D03*
%TD*%
%TO.C,R2*%
X118490000Y-52500000D03*
X119510000Y-52500000D03*
%TD*%
D20*
%TO.C,C25*%
X104500000Y-57770000D03*
X104500000Y-58730000D03*
%TD*%
%TO.C,C16*%
X84900000Y-69920000D03*
X84900000Y-70880000D03*
%TD*%
D25*
%TO.C,D2*%
X108250000Y-57187500D03*
X108250000Y-55312500D03*
%TD*%
D48*
%TO.C,U8*%
X99451100Y-67249999D03*
X99451100Y-66750000D03*
X99451100Y-66250001D03*
X99451100Y-65750000D03*
X99451100Y-65250000D03*
X99451100Y-64749999D03*
X99451100Y-64250000D03*
X99451100Y-63750001D03*
D49*
X98749999Y-63048900D03*
X98250000Y-63048900D03*
X97750001Y-63048900D03*
X97250000Y-63048900D03*
X96750000Y-63048900D03*
X96249999Y-63048900D03*
X95750000Y-63048900D03*
X95250001Y-63048900D03*
D48*
X94548900Y-63750001D03*
X94548900Y-64250000D03*
X94548900Y-64749999D03*
X94548900Y-65250000D03*
X94548900Y-65750000D03*
X94548900Y-66250001D03*
X94548900Y-66750000D03*
X94548900Y-67249999D03*
D49*
X95250001Y-67951100D03*
X95750000Y-67951100D03*
X96249999Y-67951100D03*
X96750000Y-67951100D03*
X97250000Y-67951100D03*
X97750001Y-67951100D03*
X98250000Y-67951100D03*
X98749999Y-67951100D03*
D50*
X97000000Y-65500000D03*
%TD*%
D20*
%TO.C,C9*%
X117250000Y-40020000D03*
X117250000Y-40980000D03*
%TD*%
D28*
%TO.C,R11*%
X84000000Y-41740000D03*
X84000000Y-42760000D03*
%TD*%
D21*
%TO.C,Y2*%
X88300000Y-71050000D03*
X89700000Y-71050000D03*
X89700000Y-69950000D03*
X88300000Y-69950000D03*
%TD*%
D23*
%TO.C,C26*%
X101770000Y-64250000D03*
X102730000Y-64250000D03*
%TD*%
D20*
%TO.C,C2*%
X102750000Y-69520000D03*
X102750000Y-70480000D03*
%TD*%
D28*
%TO.C,R18*%
X111750000Y-67490000D03*
X111750000Y-68510000D03*
%TD*%
%TO.C,R14*%
X95750000Y-60740000D03*
X95750000Y-61760000D03*
%TD*%
D23*
%TO.C,C1*%
X118520000Y-55500000D03*
X119480000Y-55500000D03*
%TD*%
D51*
%TO.C,C10*%
X113712500Y-42000000D03*
X115787500Y-42000000D03*
%TD*%
D52*
%TO.C,U6*%
X115725000Y-62600000D03*
X117275000Y-62600000D03*
X115725000Y-61400000D03*
X117275000Y-61400000D03*
D53*
X114595000Y-64650000D03*
X115865000Y-64650000D03*
X117135000Y-64650000D03*
X118405000Y-64650000D03*
X118405000Y-59350000D03*
X117135000Y-59350000D03*
X115865000Y-59350000D03*
X114595000Y-59350000D03*
%TD*%
D54*
%TO.C,U1*%
X99249999Y-40274999D03*
X99750000Y-40274999D03*
X100250000Y-40274999D03*
X100750001Y-40274999D03*
D55*
X101274999Y-39750001D03*
X101274999Y-39250000D03*
X101274999Y-38750000D03*
X101274999Y-38249999D03*
D54*
X100750001Y-37725001D03*
X100250000Y-37725001D03*
X99750000Y-37725001D03*
X99249999Y-37725001D03*
D55*
X98725001Y-38249999D03*
X98725001Y-38750000D03*
X98725001Y-39250000D03*
X98725001Y-39750001D03*
%TD*%
D49*
%TO.C,U9*%
X86250000Y-68218500D03*
X86749999Y-68218500D03*
X87250000Y-68218500D03*
X87750000Y-68218500D03*
X88250001Y-68218500D03*
X88750000Y-68218500D03*
D48*
X89468500Y-67500000D03*
X89468500Y-67000001D03*
X89468500Y-66500000D03*
X89468500Y-66000000D03*
X89468500Y-65499999D03*
X89468500Y-65000000D03*
D49*
X88750000Y-64281500D03*
X88250001Y-64281500D03*
X87750000Y-64281500D03*
X87250000Y-64281500D03*
X86749999Y-64281500D03*
X86250000Y-64281500D03*
D48*
X85531500Y-65000000D03*
X85531500Y-65499999D03*
X85531500Y-66000000D03*
X85531500Y-66500000D03*
X85531500Y-67000001D03*
X85531500Y-67500000D03*
%TD*%
D20*
%TO.C,C27*%
X103500000Y-57770000D03*
X103500000Y-58730000D03*
%TD*%
D56*
%TO.C,U7*%
X106050000Y-70137500D03*
X107000000Y-70137500D03*
X107950000Y-70137500D03*
X107950000Y-67862500D03*
X106050000Y-67862500D03*
%TD*%
D57*
%TO.C,C34*%
X84089411Y-50589411D03*
X83410589Y-49910589D03*
%TD*%
D16*
%TO.C,C17*%
X89230000Y-62750000D03*
X88270000Y-62750000D03*
%TD*%
D44*
%TO.C,C24*%
X101500000Y-68962500D03*
X101500000Y-71037500D03*
%TD*%
D17*
%TO.C,R29*%
X97490000Y-55250000D03*
X98510000Y-55250000D03*
%TD*%
D58*
%TO.C,L2*%
X87000000Y-53822500D03*
X87000000Y-52677500D03*
%TD*%
D17*
%TO.C,R28*%
X97490000Y-54250000D03*
X98510000Y-54250000D03*
%TD*%
D15*
%TO.C,C28*%
X89250000Y-47980000D03*
X89250000Y-47020000D03*
%TD*%
D16*
%TO.C,C42*%
X110980000Y-38750000D03*
X110020000Y-38750000D03*
%TD*%
D17*
%TO.C,R21*%
X86240000Y-60000000D03*
X87260000Y-60000000D03*
%TD*%
D38*
%TO.C,R4*%
X120510000Y-57500000D03*
X119490000Y-57500000D03*
%TD*%
M02*
